SplineFontDB: 3.2
FontName: AltiumMono-Lakes-Italic
FullName: Altium Mono-Lakes-Ialic
FamilyName: AltiumMono-Lakes
Weight: Italic
Copyright: Copyright (c) 2020-2021 by TypeType. Designers Vika Usmanova, Ksenia Ushakova, Antonina Zhulkova. Technical designers Marina Khodak, Yulia Gonina, Ivan Gladkikh, Yuri Nako, Viktor Rubenko, Eugene Tantsurin. All rights reserved.
Version: 1.0
ItalicAngle: -13.0072
UnderlinePosition: -280
UnderlineWidth: 90
Ascent: 800
Descent: 200
InvalidEm: 0
sfntRevision: 0x00011999
LayerCount: 2
Layer: 0 1 "Back" 1
Layer: 1 1 "Fore" 0
XUID: [1021 25 786891604 2758]
StyleMap: 0x0001
FSType: 0
OS2Version: 3
OS2_WeightWidthSlopeOnly: 0
OS2_UseTypoMetrics: 0
CreationTime: 1617880265
ModificationTime: 1662738221
PfmFamily: 17
TTFWeight: 910
TTFWidth: 7
LineGap: 0
VLineGap: 0
Panose: 2 1 0 1 4 0 0 8 3 7
OS2TypoAscent: 950
OS2TypoAOffset: 0
OS2TypoDescent: -250
OS2TypoDOffset: 0
OS2TypoLinegap: 200
OS2WinAscent: 1050
OS2WinAOffset: 0
OS2WinDescent: 350
OS2WinDOffset: 0
HheadAscent: 1050
HheadAOffset: 0
HheadDescent: -350
HheadDOffset: 0
OS2SubXSize: 650
OS2SubYSize: 600
OS2SubXOff: -17
OS2SubYOff: 75
OS2SupXSize: 650
OS2SupYSize: 600
OS2SupXOff: 81
OS2SupYOff: 350
OS2StrikeYSize: 90
OS2StrikeYPos: 270
OS2CapHeight: 700
OS2XHeight: 530
OS2Vendor: 'TpTp'
OS2CodePages: 00000097.00000000
OS2UnicodeRanges: 0000025f.00000000.00000000.00000000
MarkAttachClasses: 1
DEI: 91125
TtTable: prep
NPUSHB
 16
 133
 50
 131
 85
 132
 50
 130
 85
 123
 50
 121
 85
 122
 50
 120
 85
PUSHW_1
 -64
NPUSHB
 117
 131
 13
 19
 70
 63
 130
 159
 130
 2
 64
 121
 80
 121
 2
 63
 120
 1
 113
 50
 91
 85
 112
 50
 90
 85
 63
 110
 79
 110
 95
 110
 159
 110
 4
 97
 50
 93
 85
 96
 50
 92
 85
 95
 50
 91
 85
 94
 50
 90
 85
 19
 167
 18
 85
 17
 100
 16
 85
 18
 89
 16
 89
 13
 167
 12
 85
 5
 167
 4
 85
 12
 89
 4
 89
 15
 100
 14
 85
 11
 167
 10
 85
 7
 167
 6
 85
 1
 167
 0
 85
 14
 89
 10
 89
 6
 89
 0
 89
 9
 167
 8
 85
 3
 167
 2
 85
 8
 89
 2
 89
 16
 50
 3
 64
 64
 5
 1

StartChar: period
Encoding: 46 46 5
Width: 242
GlyphClass: 1
Flags: W
LayerCount: 2
Fore
SplineSet
-5 -48.4904896612 m 2,0,1
 -42.1702966853 -48.4904896612 -42.1702966853 -48.4904896612 -64.8303931733 -25.8303931733 c 128,-1,2
 -87.4904896612 -3.17029668531 -87.4904896612 -3.17029668531 -87.4904896612 29 c 0,3,4
 -87.4904896612 42.8232825386 -87.4904896612 42.8232825386 -84.8566663737 51.6713859524 c 2,5,-1
 -56.2941933795 177.740176256 l 2,6,7
 -50.268286751 204.426334182 -50.268286751 204.426334182 -32.7905237629 221.90409717 c 0,8,9
 -8.20413127178 246.490489661 -8.20413127178 246.490489661 31 246.490489661 c 2,10,-1
 172 246.490489661 l 2,11,12
 211.049687786 246.490489661 211.049687786 246.490489661 232.770088724 224.770088724 c 128,-1,13
 254.490489661 203.049687786 254.490489661 203.049687786 254.490489661 171 c 0,14,15
 254.490489661 166.958478214 254.490489661 166.958478214 253.028517352 158.186644358 c 128,-1,16
 251.566545043 149.414810502 251.566545043 149.414810502 251.205580771 147.874696277 c 0,17,18
 221.123875201 19.526085843 221.123875201 19.526085843 221.036974086 19.1784710535 c 0,19,20
 213.210435642 -12.1276827235 213.210435642 -12.1276827235 191.39275148 -30.3090861923 c 128,-1,21
 169.575067317 -48.4904896612 169.575067317 -48.4904896612 136 -48.4904896612 c 2,22,-1
 -5 -48.4904896612 l 2,0,1
136 26 m 2,23,24
 142 26 142 26 144 28 c 128,-1,25
 146 30 146 30 147 37 c 2,26,-1
 177 165 l 2,27,28
 178 169 178 169 177 170.5 c 128,-1,29
 176 172 176 172 172 172 c 2,30,-1
 31 172 l 2,31,32
 24 172 24 172 21.5 170 c 128,-1,33
 19 168 19 168 18 161 c 2,34,-1
 -11 33 l 2,35,36
 -12 29 -12 29 -11 27.5 c 128,-1,37
 -10 26 -10 26 -5 26 c 2,38,-1
 136 26 l 2,23,24
EndSplineSet
EndChar

StartChar: comma
Encoding: 44 44 7
Width: 242
GlyphClass: 1
Flags: W
LayerCount: 2
Fore
SplineSet
44 -208.490489661 m 2,0,1
 5.24595947232 -208.490489661 5.24595947232 -208.490489661 -17.1222650944 -186.122265094 c 128,-1,2
 -39.4904896612 -163.754040528 -39.4904896612 -163.754040528 -39.4904896612 -132 c 0,3,4
 -39.4904896612 -121.975170927 -39.4904896612 -121.975170927 -36.1390697786 -108.586557847 c 2,5,-1
 -24.7452117845 -59.3650913121 l 1,6,7
 -50.9192546165 -55.4569884044 -50.9192546165 -55.4569884044 -68.0622144963 -38.3140285247 c 0,8,9
 -89.4904896612 -16.8857533598 -89.4904896612 -16.8857533598 -89.4904896612 17 c 0,10,11
 -89.4904896612 29.6744717161 -89.4904896612 29.6744717161 -87.2037500412 39.142932093 c 0,12,13
 -56.1783997995 177.255781556 -56.1783997995 177.255781556 -56.0369740864 177.821528946 c 0,14,15
 -49.3647844105 204.51028765 -49.3647844105 204.51028765 -32.0293727651 221.845699296 c 0,16,17
 -7.3845823996 246.490489661 -7.3845823996 246.490489661 31 246.490489661 c 2,18,-1
 175 246.490489661 l 2,19,20
 210.170296685 246.490489661 210.170296685 246.490489661 231.830393173 224.830393173 c 128,-1,21
 253.490489661 203.170296685 253.490489661 203.170296685 253.490489661 171 c 0,22,23
 253.490489661 161.109699998 253.490489661 161.109699998 250.243207423 147.036481692 c 2,24,-1
 184.195911859 -139.166477025 l 2,25,26
 176.496406829 -171.889373401 176.496406829 -171.889373401 154.535737073 -190.189931531 c 128,-1,27
 132.575067317 -208.490489661 132.575067317 -208.490489661 97 -208.490489661 c 2,28,-1
 44 -208.490489661 l 2,0,1
96 -134 m 2,29,30
 103 -134 103 -134 105.5 -131.5 c 128,-1,31
 108 -129 108 -129 110 -122 c 2,32,-1
 176 164 l 1,33,-1
 177 168 l 2,34,35
 177 171 177 171 174.5 171.5 c 128,-1,36
 172 172 172 172 169 172 c 2,37,-1
 32 172 l 2,38,39
 25 172 25 172 22 169.5 c 128,-1,40
 19 167 19 167 18 160 c 2,41,-1
 -13 22 l 1,42,-1
 -14 18 l 2,43,44
 -14 14 -14 14 -6 14 c 2,45,-1
 71 14 l 1,46,-1
 39 -125 l 1,47,-1
 38 -129 l 2,48,49
 38 -134 38 -134 47 -134 c 2,50,-1
 96 -134 l 2,29,30
EndSplineSet
EndChar

StartChar: colon
Encoding: 58 58 8
Width: 284
GlyphClass: 1
Flags: W
LayerCount: 2
Fore
SplineSet
157 26 m 2,0,1
 163 26 163 26 165 28 c 128,-1,2
 167 30 167 30 168 37 c 2,3,-1
 198 165 l 2,4,5
 199 169 199 169 198 170.5 c 128,-1,6
 197 172 197 172 193 172 c 2,7,-1
 52 172 l 2,8,9
 45 172 45 172 42.5 170 c 128,-1,10
 40 168 40 168 39 161 c 2,11,-1
 10 33 l 2,12,13
 9 29 9 29 10 27.5 c 128,-1,14
 11 26 11 26 16 26 c 2,15,-1
 157 26 l 2,0,1
234 359 m 2,16,17
 240 359 240 359 242 361 c 128,-1,18
 244 363 244 363 245 370 c 2,19,-1
 275 498 l 2,20,21
 276 502 276 502 275 503.5 c 128,-1,22
 274 505 274 505 270 505 c 2,23,-1
 129 505 l 2,24,25
 122 505 122 505 119.5 503 c 128,-1,26
 117 501 117 501 116 494 c 2,27,-1
 87 366 l 2,28,29
 86 362 86 362 87 360.5 c 128,-1,30
 88 359 88 359 93 359 c 2,31,-1
 234 359 l 2,16,17
16 -96.9809793224 m 2,32,33
 -41.2691647992 -96.9809793224 -41.2691647992 -96.9809793224 -78.1250720608 -60.1250720608 c 0,34,35
 -119.916249984 -18.3338941378 -119.916249984 -18.3338941378 -114.384802562 45.3289867408 c 0,36,37
 -113.890250937 51.0209112606 -113.890250937 51.0209112606 -110.880678714 63.9543094165 c 128,-1,38
 -107.871106491 76.8877075724 -107.871106491 76.8877075724 -82.5883867589 188.480352512 c 0,39,40
 -73.483941923 228.800036785 -73.483941923 228.800036785 -46.0852026504 256.198776058 c 0,41,42
 -29.6634267636 272.620551945 -29.6634267636 272.620551945 -12.0052630817 280.938059276 c 0,43,44
 -10.4711520723 281.660670064 -10.4711520723 281.660670064 -9.62808856662 282.167550536 c 1,45,46
 -42.3329258109 321.379736944 -42.3329258109 321.379736944 -37.384802562 378.328986741 c 0,47,48
 -36.8902509367 384.020911261 -36.8902509367 384.020911261 -33.8806787137 396.954309417 c 128,-1,49
 -30.8711064907 409.887707572 -30.8711064907 409.887707572 -5.58838675891 521.480352512 c 0,50,51
 3.516058077 561.800036785 3.516058077 561.800036785 30.9147973496 589.198776058 c 0,52,53
 69.6970006143 627.980979322 69.6970006143 627.980979322 129 627.980979322 c 2,54,-1
 270 627.980979322 l 2,55,56
 329.1485559 627.980979322 329.1485559 627.980979322 365.064767611 592.064767611 c 128,-1,57
 400.980979322 556.1485559 400.980979322 556.1485559 400.980979322 504 c 0,58,59
 400.980979322 489.244058641 400.980979322 489.244058641 396.410718473 469.747502295 c 0,60,61
 366.066576852 340.325502393 366.066576852 340.325502393 365.964511156 339.921491964 c 0,62,63
 355.931730318 300.209960231 355.931730318 300.209960231 329.14104242 273.419272332 c 0,64,65
 314.220279734 258.498509646 314.220279734 258.498509646 296.78073177 249.788586367 c 1,66,67
 323.980979885 216.532486784 323.980979885 216.532486784 323.980979322 171 c 0,68,69
 323.980979322 156.244058641 323.980979322 156.244058641 319.410718473 136.747502295 c 0,70,71
 289.066576852 7.32550239264 289.066576852 7.32550239264 288.964511156 6.92149196359 c 0,72,73
 278.931730318 -32.790039769 278.931730318 -32.790039769 252.14104242 -59.5807276675 c 0,74,75
 214.740790765 -96.9809793224 214.740790765 -96.9809793224 157 -96.9809793224 c 2,76,-1
 16 -96.9809793224 l 2,32,33
-9.06274771973 282.550957537 m 1,77,-1
 -9.06274771973 282.550957537 l 1,77,-1
EndSplineSet
EndChar

StartChar: semicolon
Encoding: 59 59 9
Width: 284
GlyphClass: 1
Flags: W
LayerCount: 2
Fore
SplineSet
117 -134 m 2,0,1
 124 -134 124 -134 126.5 -131.5 c 128,-1,2
 129 -129 129 -129 131 -122 c 2,3,-1
 197 164 l 1,4,-1
 198 168 l 2,5,6
 198 171 198 171 195.5 171.5 c 128,-1,7
 193 172 193 172 190 172 c 2,8,-1
 53 172 l 2,9,10
 46 172 46 172 43 169.5 c 128,-1,11
 40 167 40 167 39 160 c 2,12,-1
 8 22 l 1,13,-1
 7 18 l 2,14,15
 7 14 7 14 15 14 c 2,16,-1
 92 14 l 1,17,-1
 60 -125 l 1,18,-1
 59 -129 l 2,19,20
 59 -134 59 -134 68 -134 c 2,21,-1
 117 -134 l 2,0,1
234 359 m 2,22,23
 240 359 240 359 242 361 c 128,-1,24
 244 363 244 363 245 370 c 2,25,-1
 275 498 l 2,26,27
 276 502 276 502 275 503.5 c 128,-1,28
 274 505 274 505 270 505 c 2,29,-1
 129 505 l 2,30,31
 122 505 122 505 119.5 503 c 128,-1,32
 117 501 117 501 116 494 c 2,33,-1
 87 366 l 2,34,35
 86 362 86 362 87 360.5 c 128,-1,36
 88 359 88 359 93 359 c 2,37,-1
 234 359 l 2,22,23
65 -256.980979322 m 2,38,39
 6.14709135844 -256.980979322 6.14709135844 -256.980979322 -30.416943982 -220.416943982 c 128,-1,40
 -66.9809793224 -183.852908642 -66.9809793224 -183.852908642 -66.9809793224 -132 c 0,41,42
 -66.9809793224 -116.12531848 -66.9809793224 -116.12531848 -62.1704459653 -96.7404110821 c 0,43,44
 -61.0624069975 -92.2753692274 -61.0624069975 -92.2753692274 -60.521163462 -89.2467911656 c 0,45,46
 -60.9711326863 -88.9216370903 -60.9711326863 -88.9216370903 -61.5353688911 -88.5676956317 c 0,47,48
 -71.8988365815 -82.0667642146 -71.8988365815 -82.0667642146 -81.3568933838 -72.6087074123 c 0,49,50
 -116.980979322 -36.9846214737 -116.980979322 -36.9846214737 -116.980979322 17 c 0,51,52
 -116.980979322 35.0502969612 -116.980979322 35.0502969612 -113.380510871 50.4056354432 c 0,53,54
 -82.0622715756 189.694990113 -82.0622715756 189.694990113 -81.8951164617 190.352203202 c 0,55,56
 -71.9279549659 229.53647487 -71.9279549659 229.53647487 -45.3240516526 256.140378183 c 0,57,58
 -29.0651236723 272.399306164 -29.0651236723 272.399306164 -11.7926358205 280.686916524 c 0,59,60
 -10.2708299707 281.41710282 -10.2708299707 281.41710282 -9.42895386804 281.929403948 c 1,61,62
 -42.3475210656 321.211756324 -42.3475210656 321.211756324 -37.384802562 378.328986741 c 0,63,64
 -36.8902509367 384.020911261 -36.8902509367 384.020911261 -33.8806787137 396.954309417 c 128,-1,65
 -30.8711064907 409.887707572 -30.8711064907 409.887707572 -5.58838675891 521.480352512 c 0,66,67
 3.516058077 561.800036785 3.516058077 561.800036785 30.9147973496 589.198776058 c 0,68,69
 69.6970006143 627.980979322 69.6970006143 627.980979322 129 627.980979322 c 2,70,-1
 270 627.980979322 l 2,71,72
 329.1485559 627.980979322 329.1485559 627.980979322 365.064767611 592.064767611 c 128,-1,73
 400.980979322 556.1485559 400.980979322 556.1485559 400.980979322 504 c 0,74,75
 400.980979322 489.244058641 400.980979322 489.244058641 396.410718473 469.747502295 c 0,76,77
 366.066576852 340.325502393 366.066576852 340.325502393 365.964511156 339.921491964 c 0,78,79
 355.931730318 300.209960231 355.931730318 300.209960231 329.14104242 273.419272332 c 0,80,81
 313.958456673 258.236686586 313.958456673 258.236686586 296.176424814 249.487527677 c 1,82,83
 333.900515813 202.875289761 333.900515813 202.875289761 318.486414823 136.072963281 c 1,84,-1
 252.391823718 -150.332954049 l 2,85,86
 242.540502421 -192.20106956 242.540502421 -192.20106956 215.120667418 -219.620904563 c 0,87,88
 177.760592659 -256.980979322 177.760592659 -256.980979322 118 -256.980979322 c 2,89,-1
 65 -256.980979322 l 2,38,39
-8.86184770527 282.317544395 m 1,90,-1
 -8.86184770527 282.317544395 l 1,90,-1
EndSplineSet
EndChar

StartChar: exclam
Encoding: 33 33 10
Width: 386
GlyphClass: 1
Flags: W
LayerCount: 2
Fore
SplineSet
211 26 m 2,0,1
 218 26 218 26 220.5 28.5 c 128,-1,2
 223 31 223 31 225 39 c 2,3,-1
 255 168 l 1,4,-1
 256 173 l 2,5,6
 256 178 256 178 247 178 c 2,7,-1
 98 178 l 2,8,9
 91 178 91 178 88.5 175.5 c 128,-1,10
 86 173 86 173 84 165 c 2,11,-1
 55 37 l 1,12,-1
 54 32 l 2,13,14
 54 26 54 26 63 26 c 2,15,-1
 211 26 l 2,0,1
260 262 m 2,16,17
 268 262 268 262 271 264.5 c 128,-1,18
 274 267 274 267 276 275 c 2,19,-1
 366 665 l 1,20,-1
 367 668 l 2,21,22
 367 674 367 674 357 674 c 2,23,-1
 218 674 l 2,24,25
 210 674 210 674 207.5 672 c 128,-1,26
 205 670 205 670 203 661 c 2,27,-1
 113 271 l 2,28,29
 112 269 112 269 112 266 c 0,30,31
 112 262 112 262 120 262 c 2,32,-1
 260 262 l 2,16,17
59 -48.4904896612 m 2,33,34
 20.2459594723 -48.4904896612 20.2459594723 -48.4904896612 -2.12226509444 -26.1222650944 c 128,-1,35
 -24.4904896612 -3.75404052768 -24.4904896612 -3.75404052768 -24.4904896612 28 c 0,36,37
 -24.4904896612 37.8230290507 -24.4904896612 37.8230290507 -21.1630976233 51.3136356145 c 2,38,-1
 8.73858782213 181.884328726 l 2,39,40
 15.4650486672 209.647626781 15.4650486672 209.647626781 33.1531809229 227.335759037 c 0,41,42
 36.4350646947 230.617642809 36.4350646947 230.617642809 39.9644013573 233.471346241 c 1,43,44
 34.5095103388 246.93861755 34.5095103388 246.93861755 34.5095103388 263 c 0,45,46
 34.5095103388 267.041521786 34.5095103388 267.041521786 35.9672494797 275.787956631 c 128,-1,47
 37.4249886206 284.534391477 37.4249886206 284.534391477 37.7710690407 286.025199441 c 2,48,-1
 128.68026524 677.634044606 l 2,49,50
 134.69283044 705.364155428 134.69283044 705.364155428 152.75933885 723.430663838 c 0,51,52
 177.819164673 748.490489661 177.819164673 748.490489661 218 748.490489661 c 2,53,-1
 362 748.490489661 l 2,54,55
 401.365534781 748.490489661 401.365534781 748.490489661 422.928012221 726.928012221 c 128,-1,56
 444.490489661 705.365534781 444.490489661 705.365534781 444.490489661 674 c 0,57,58
 444.490489661 664.154445474 444.490489661 664.154445474 441.147819846 650.624473689 c 2,59,-1
 350.322748671 258.379935539 l 2,60,61
 344.358838011 230.86625443 344.358838011 230.86625443 326.323815204 212.831231622 c 0,62,63
 325.76853359 212.275950008 325.76853359 212.275950008 325.20571154 211.7328452 c 0,64,65
 333.49048966 195.515919991 333.49048966 195.515919991 333.490489661 175 c 0,66,67
 333.490489661 161.411625632 333.490489661 161.411625632 331.181592276 151.769482719 c 2,68,-1
 301.327091959 22.3999813485 l 2,69,70
 295.365407542 -5.12717603979 295.365407542 -5.12717603979 277.323815204 -23.1687683777 c 0,71,72
 252.00209392 -48.4904896612 252.00209392 -48.4904896612 211 -48.4904896612 c 2,73,-1
 59 -48.4904896612 l 2,33,34
EndSplineSet
EndChar

StartChar: question
Encoding: 63 63 11
Width: 789
GlyphClass: 1
Flags: W
LayerCount: 2
Fore
SplineSet
398 26 m 2,0,1
 405 26 405 26 407.5 28.5 c 128,-1,2
 410 31 410 31 412 39 c 2,3,-1
 441 164 l 2,4,5
 442 168 442 168 442 173 c 0,6,7
 442 177 442 177 439.5 177.5 c 128,-1,8
 437 178 437 178 432 178 c 2,9,-1
 285 178 l 2,10,11
 278 178 278 178 275 175.5 c 128,-1,12
 272 173 272 173 271 165 c 2,13,-1
 243 41 l 2,14,15
 242 37 242 37 242 32 c 0,16,17
 242 28 242 28 244 27 c 128,-1,18
 246 26 246 26 251 26 c 2,19,-1
 398 26 l 2,0,1
  Spiro
    398 26 ]
    403.875 26.625 o
    407.5 28.5 o
    409.875 32.375 o
    412 39 [
    441 164 ]
    441.75 168.25 o
    442 173 o
    441.375 176.125 o
    439.5 177.5 o
    436.375 177.875 o
    432 178 [
    285 178 ]
    279 177.375 o
    275 175.5 o
    272.5 171.625 o
    271 165 [
    243 41 ]
    242.25 36.75 o
    242 32 o
    242.5 28.75 o
    244 27 o
    246.75 26.25 o
    251 26 [
    0 0 z
  EndSpiro
449 262 m 2,20,21
 456 262 456 262 459 264.5 c 128,-1,22
 462 267 462 267 464 275 c 2,23,-1
 472 310 l 1,24,-1
 613 310 l 2,25,26
 678 310 678 310 712 338.5 c 128,-1,27
 746 367 746 367 762 438 c 2,28,-1
 783 527 l 2,29,30
 789 553 789 553 789 574 c 0,31,32
 789 624 789 624 756 650.5 c 128,-1,33
 723 677 723 677 659 677 c 2,34,-1
 262 677 l 2,35,36
 196 677 196 677 162 648 c 128,-1,37
 128 619 128 619 112 547 c 2,38,-1
 96 478 l 1,39,-1
 95 473 l 2,40,41
 95 469 95 469 104 469 c 2,42,-1
 267 469 l 2,43,44
 274 469 274 469 276.5 471.5 c 128,-1,45
 279 474 279 474 281 482 c 2,46,-1
 285 499 l 2,47,48
 292 527 292 527 304.5 538 c 128,-1,49
 317 549 317 549 343 549 c 2,50,-1
 547 549 l 2,51,52
 601 549 601 549 601 512 c 1,53,-1
 599 496 l 1,54,-1
 586 440 l 2,55,56
 580 414 580 414 566.5 403.5 c 128,-1,57
 553 393 553 393 525 393 c 2,58,-1
 338 393 l 2,59,60
 331 393 331 393 327.5 390.5 c 128,-1,61
 324 388 324 388 323 380 c 2,62,-1
 298 271 l 1,63,-1
 297 266 l 2,64,65
 297 262 297 262 306 262 c 2,66,-1
 449 262 l 2,20,21
  Spiro
    449 262 ]
    455 262.625 o
    459 264.5 o
    461.75 268.375 o
    464 275 [
    472 310 v
    613 310 ]
    670.25 317.125 o
    712 338.5 o
    741.5 377.625 o
    762 438 [
    783 527 ]
    787.5 551.75 o
    789 574 o
    780.75 618.125 o
    756 650.5 o
    715.25 670.375 o
    659 677 [
    262 677 ]
    204 669.75 o
    162 648 o
    132.5 608.25 o
    112 547 [
    96 478 v
    95 473 ]
    97.25 470 o
    104 469 [
    267 469 ]
    272.875 469.625 o
    276.5 471.5 o
    278.875 475.375 o
    281 482 [
    285 499 ]
    293.375 522.75 o
    304.5 538 o
    320.375 546.25 o
    343 549 [
    547 549 ]
    587.5 539.75 o
    601 512 v
    599 496 v
    586 440 ]
    578.125 417.875 o
    566.5 403.5 o
    549.375 395.625 o
    525 393 [
    338 393 ]
    331.875 392.375 o
    327.5 390.5 o
    324.625 386.625 o
    323 380 [
    298 271 v
    297 266 ]
    299.25 263 o
    306 262 [
    0 0 z
  EndSpiro
245 -96.9809793224 m 2,67,68
 187.157102482 -96.9809793224 187.157102482 -96.9809793224 150.58806158 -60.4119384203 c 128,-1,69
 114.019020678 -23.8428975181 114.019020678 -23.8428975181 114.019020678 29 c 0,70,71
 114.019020678 43.4505905546 114.019020678 43.4505905546 118.513585153 62.9270366166 c 2,72,-1
 148.513585153 192.927036617 l 2,73,74
 155.971304102 223.716404102 155.971304102 223.716404102 173.208160893 246.955307748 c 1,75,76
 172.019020678 255.859230696 172.019020678 255.859230696 172.019020678 267.595178269 c 128,-1,77
 172.019020678 279.331125842 172.019020678 279.331125842 176.484394358 298.800155087 c 2,78,-1
 187.314409401 346.019020678 l 1,79,-1
 104 346.019020678 l 2,80,81
 45.1571024819 346.019020678 45.1571024819 346.019020678 8.08806157974 383.08806158 c 128,-1,82
 -28.9809793224 420.157102482 -28.9809793224 420.157102482 -28.9809793224 473 c 0,83,84
 -28.9809793224 491.460589846 -28.9809793224 491.460589846 -25.3335658832 506.586430498 c 2,85,-1
 -9.40710821271 575.267894537 l 2,86,87
 16.9934221387 687.81752393 16.9934221387 687.81752393 84.4540511064 743.899251626 c 128,-1,88
 151.914680074 799.980979322 151.914680074 799.980979322 262 799.980979322 c 2,89,-1
 659 799.980979322 l 2,90,91
 783.507088746 799.980979322 783.507088746 799.980979322 852.96081888 730.527249189 c 0,92,93
 913.980979322 669.507088746 913.980979322 669.507088746 913.980979322 574 c 0,94,95
 913.980979322 543.759085926 913.980979322 543.759085926 904.859805337 500.759265707 c 0,96,97
 904.746035121 500.222920403 904.746035121 500.222920403 882.272657384 405.894799679 c 0,98,99
 856.884270876 299.331433207 856.884270876 299.331433207 790.147909808 243.175226942 c 128,-1,100
 723.41154874 187.019020678 723.41154874 187.019020678 613 187.019020678 c 2,101,-1
 568.474849458 187.019020678 l 1,102,103
 570.582739762 162.200518503 570.582739762 162.200518503 565.345478445 140.462238976 c 2,104,-1
 535.634879936 11.7163121039 l 2,105,106
 526.604045345 -29.4778960112 526.604045345 -29.4778960112 498.618494091 -57.4634472652 c 0,107,108
 459.100962034 -96.9809793224 459.100962034 -96.9809793224 398 -96.9809793224 c 2,109,-1
 245 -96.9809793224 l 2,67,68
EndSplineSet
EndChar

StartChar: questiondown
Encoding: 191 191 12
Width: 735
GlyphClass: 1
Flags: W
LayerCount: 2
Fore
SplineSet
327 326 m 2,0,1
 295 326 295 326 295 353 c 0,2,3
 295 357 295 357 297 367 c 2,4,-1
 327 497 l 2,5,6
 335 530 335 530 369 530 c 2,7,-1
 523 530 l 2,8,9
 539 530 539 530 548.5 522.5 c 128,-1,10
 558 515 558 515 558 501 c 0,11,12
 558 497 558 497 556 489 c 2,13,-1
 527 359 l 2,14,15
 520 326 520 326 485 326 c 2,16,-1
 327 326 l 2,0,1
485 352 m 2,17,18
 492 352 492 352 494.5 354.5 c 128,-1,19
 497 357 497 357 499 365 c 2,20,-1
 528 491 l 1,21,-1
 529 497 l 2,22,23
 529 504 529 504 518 504 c 2,24,-1
 369 504 l 2,25,26
 362 504 362 504 359 501.5 c 128,-1,27
 356 499 356 499 354 491 c 2,28,-1
 325 366 l 2,29,30
 324 363 324 363 324 359 c 0,31,32
 324 352 324 352 335 352 c 2,33,-1
 485 352 l 2,17,18
106 -195 m 2,34,35
 30 -195 30 -195 -11 -161.5 c 128,-1,36
 -52 -128 -52 -128 -52 -66 c 0,37,38
 -52 -46 -52 -46 -45 -13 c 2,39,-1
 -24 76 l 2,40,41
 -5 155 -5 155 36 189.5 c 128,-1,42
 77 224 77 224 152 224 c 2,43,-1
 271 224 l 1,44,-1
 280 262 l 2,45,46
 287 294 287 294 321 294 c 2,47,-1
 466 294 l 2,48,49
 484 294 484 294 493 286.5 c 128,-1,50
 502 279 502 279 502 265 c 2,51,-1
 500 253 l 1,52,-1
 470 122 l 2,53,54
 463 89 463 89 426 89 c 2,55,-1
 240 89 l 2,56,57
 223 89 223 89 217 84 c 128,-1,58
 211 79 211 79 207 62 c 2,59,-1
 196 13 l 1,60,-1
 194 0 l 2,61,62
 194 -9 194 -9 199.5 -12 c 128,-1,63
 205 -15 205 -15 218 -15 c 2,64,-1
 423 -15 l 2,65,66
 439 -15 439 -15 444 -10 c 128,-1,67
 449 -5 449 -5 453 15 c 2,68,-1
 457 32 l 2,69,70
 461 48 461 48 472 56.5 c 128,-1,71
 483 65 483 65 499 65 c 2,72,-1
 662 65 l 2,73,74
 679 65 679 65 688.5 57 c 128,-1,75
 698 49 698 49 698 35 c 0,76,77
 698 28 698 28 697 24 c 2,78,-1
 681 -45 l 2,79,80
 662 -126 662 -126 620.5 -160.5 c 128,-1,81
 579 -195 579 -195 504 -195 c 2,82,-1
 106 -195 l 2,34,35
504 -169 m 2,83,84
 570 -169 570 -169 604 -140 c 128,-1,85
 638 -111 638 -111 654 -39 c 2,86,-1
 670 30 l 1,87,-1
 671 35 l 2,88,89
 671 39 671 39 662 39 c 2,90,-1
 499 39 l 2,91,92
 492 39 492 39 489.5 36.5 c 128,-1,93
 487 34 487 34 485 26 c 2,94,-1
 481 9 l 2,95,96
 474 -19 474 -19 461.5 -30 c 128,-1,97
 449 -41 449 -41 423 -41 c 2,98,-1
 218 -41 l 2,99,100
 164 -41 164 -41 164 -4 c 1,101,-1
 166 12 l 1,102,-1
 179 68 l 2,103,104
 185 94 185 94 198.5 104.5 c 128,-1,105
 212 115 212 115 240 115 c 2,106,-1
 426 115 l 2,107,108
 433 115 433 115 437 117.5 c 128,-1,109
 441 120 441 120 443 128 c 2,110,-1
 473 259 l 1,111,-1
 474 264 l 2,112,113
 474 268 474 268 465 268 c 2,114,-1
 324 268 l 2,115,116
 316 268 316 268 312.5 265.5 c 128,-1,117
 309 263 309 263 307 255 c 2,118,-1
 294 198 l 1,119,-1
 152 198 l 2,120,121
 87 198 87 198 53 169.5 c 128,-1,122
 19 141 19 141 3 70 c 2,123,-1
 -18 -19 l 2,124,125
 -24 -45 -24 -45 -24 -66 c 0,126,127
 -24 -116 -24 -116 9 -142.5 c 128,-1,128
 42 -169 42 -169 106 -169 c 2,129,-1
 504 -169 l 2,83,84
EndSplineSet
EndChar

StartChar: asterisk
Encoding: 42 42 13
Width: 450
GlyphClass: 1
Flags: W
LayerCount: 2
Fore
SplineSet
441 626.490489661 m 6,0,1
 479.852292771 626.490489661 479.852292771 626.490489661 503.171391216 603.171391216 c 132,-1,2
 526.490489661 579.852292771 526.490489661 579.852292771 526.490489661 542 c 6,3,-1
 526.490489661 474 l 6,4,5
 526.490489661 436.147707229 526.490489661 436.147707229 503.29636776 412.953585327 c 4,6,7
 495.610427887 405.267645455 495.610427887 405.267645455 486.04879273 400.059040364 c 5,8,9
 497.490489661 380.272202291 497.490489661 380.272202291 497.490489661 359 c 4,10,11
 497.490489661 325.401131886 497.490489661 325.401131886 473.169678888 301.080321112 c 4,12,13
 466.554163051 294.464805276 466.554163051 294.464805276 458.340516095 288.929718175 c 4,14,15
 401.56544388 249.38993574 401.56544388 249.38993574 400.40281428 248.67447137 c 4,16,17
 375.759752604 233.509510339 375.759752604 233.509510339 352 233.509510339 c 4,18,19
 309.402980448 233.509510339 309.402980448 233.509510339 281.943990022 273.641880961 c 4,20,21
 281.653543443 274.066379807 281.653543443 274.066379807 272.590855714 287.937840617 c 5,22,-1
 263.381139262 274.123265939 l 6,23,24
 235.611577921 233.509510339 235.611577921 233.509510339 193 233.509510339 c 4,25,26
 169.240247396 233.509510339 169.240247396 233.509510339 144.59718572 248.67447137 c 4,27,28
 143.604515291 249.285345481 143.604515291 249.285345481 85.8516141386 288.800488374 c 4,29,30
 77.1163525329 294.657926056 77.1163525329 294.657926056 70.2259822695 301.548296319 c 4,31,32
 46.5095103388 325.26476825 46.5095103388 325.26476825 46.5095103388 357 c 4,33,34
 46.5095103388 378.3610352 46.5095103388 378.3610352 59.0444877256 400.008310198 c 5,35,36
 49.4271589535 405.230058614 49.4271589535 405.230058614 41.7036322402 412.953585327 c 4,37,38
 18.5095103388 436.147707229 18.5095103388 436.147707229 18.5095103388 474 c 6,39,-1
 18.5095103388 542 l 6,40,41
 18.5095103388 579.852292771 18.5095103388 579.852292771 41.8286087837 603.171391216 c 132,-1,42
 65.1477072286 626.490489661 65.1477072286 626.490489661 104 626.490489661 c 6,43,-1
 151.509510339 626.490489661 l 5,44,-1
 151.509510339 664 l 6,45,46
 151.509510339 701.852292771 151.509510339 701.852292771 174.828608784 725.171391216 c 132,-1,47
 198.147707229 748.490489661 198.147707229 748.490489661 237 748.490489661 c 6,48,-1
 308 748.490489661 l 6,49,50
 346.852292771 748.490489661 346.852292771 748.490489661 370.171391216 725.171391216 c 132,-1,51
 393.490489661 701.852292771 393.490489661 701.852292771 393.490489661 664 c 6,52,-1
 393.490489661 626.490489661 l 5,53,-1
 441 626.490489661 l 6,0,1
450 542 m 2,54,55
 450 549 450 549 448.5 550.5 c 128,-1,56
 447 552 447 552 441 552 c 2,57,-1
 317 552 l 1,58,-1
 317 664 l 2,59,60
 317 671 317 671 315.5 672.5 c 128,-1,61
 314 674 314 674 308 674 c 2,62,-1
 237 674 l 2,63,64
 231 674 231 674 229.5 672.5 c 128,-1,65
 228 671 228 671 228 664 c 2,66,-1
 228 552 l 1,67,-1
 104 552 l 2,68,69
 98 552 98 552 96.5 550.5 c 128,-1,70
 95 549 95 549 95 542 c 2,71,-1
 95 474 l 2,72,73
 95 467 95 467 96 465.5 c 128,-1,74
 97 464 97 464 104 464 c 2,75,-1
 177 464 l 1,76,-1
 177 438 l 1,77,-1
 127 365 l 2,78,79
 124 361 124 361 124 358 c 0,80,81
 124 354 124 354 129 351 c 2,82,-1
 186 312 l 2,83,84
 191 309 191 309 193 309 c 256,85,86
 195 309 195 309 199 315 c 2,87,-1
 260 407 l 1,88,-1
 285 407 l 1,89,-1
 346 315 l 2,90,91
 350 309 350 309 352 308.5 c 128,-1,92
 354 308 354 308 359 312 c 2,93,-1
 415 351 l 2,94,95
 420 355 420 355 420.5 357.5 c 128,-1,96
 421 360 421 360 418 365 c 2,97,-1
 367 437 l 1,98,-1
 367 464 l 1,99,-1
 441 464 l 2,100,101
 448 464 448 464 449 465.5 c 128,-1,102
 450 467 450 467 450 474 c 2,103,-1
 450 542 l 2,54,55
EndSplineSet
EndChar

StartChar: quotesingle
Encoding: 39 39 14
Width: 243
GlyphClass: 1
Flags: W
LayerCount: 2
Fore
SplineSet
97 420 m 2,0,1
 81 420 81 420 72.5 427.5 c 128,-1,2
 64 435 64 435 64 448 c 0,3,4
 64 452 64 452 66 460 c 2,5,-1
 115 668 l 2,6,7
 119 685 119 685 128.5 692.5 c 128,-1,8
 138 700 138 700 155 700 c 2,9,-1
 276 700 l 2,10,11
 291 700 291 700 299 693 c 128,-1,12
 307 686 307 686 307 673 c 0,13,14
 307 670 307 670 305 660 c 2,15,-1
 256 452 l 2,16,17
 252 435 252 435 242.5 427.5 c 128,-1,18
 233 420 233 420 216 420 c 2,19,-1
 97 420 l 2,0,1
216 446 m 2,20,21
 223 446 223 446 225 448 c 128,-1,22
 227 450 227 450 229 458 c 2,23,-1
 278 666 l 1,24,-1
 279 671 l 2,25,26
 279 674 279 674 271 674 c 2,27,-1
 155 674 l 2,28,29
 148 674 148 674 146 672 c 128,-1,30
 144 670 144 670 142 662 c 2,31,-1
 93 454 l 1,32,-1
 92 449 l 2,33,34
 92 446 92 446 100 446 c 2,35,-1
 216 446 l 2,20,21
EndSplineSet
EndChar

StartChar: quoteleft
Encoding: 261 8216 18
Width: 238
GlyphClass: 1
Flags: W
LayerCount: 2
Fore
SplineSet
82 370 m 2,0,1
 65 370 65 370 56 377.5 c 128,-1,2
 47 385 47 385 47 399 c 0,3,4
 47 406 47 406 48 410 c 2,5,-1
 108 668 l 2,6,7
 112 685 112 685 119.5 692.5 c 128,-1,8
 127 700 127 700 143 700 c 2,9,-1
 201 700 l 2,10,11
 235 700 235 700 235 672 c 0,12,13
 235 664 235 664 234 660 c 2,14,-1
 215 578 l 1,15,-1
 266 578 l 2,16,17
 282 578 282 578 290.5 571 c 128,-1,18
 299 564 299 564 299 551 c 0,19,20
 299 547 299 547 297 539 c 2,21,-1
 265 402 l 2,22,23
 258 370 258 370 224 370 c 2,24,-1
 82 370 l 2,0,1
224 396 m 2,25,26
 231 396 231 396 233 398 c 128,-1,27
 235 400 235 400 237 408 c 2,28,-1
 269 542 l 1,29,-1
 270 546 l 2,30,31
 270 552 270 552 259 552 c 2,32,-1
 181 552 l 1,33,-1
 207 666 l 1,34,-1
 208 669 l 2,35,36
 208 672 208 672 205 673 c 128,-1,37
 202 674 202 674 197 674 c 2,38,-1
 148 674 l 2,39,40
 142 674 142 674 140 672 c 128,-1,41
 138 670 138 670 136 662 c 2,42,-1
 76 404 l 1,43,-1
 75 400 l 2,44,45
 75 396 75 396 83 396 c 2,46,-1
 224 396 l 2,25,26
EndSplineSet
EndChar

StartChar: quoteright
Encoding: 262 8217 19
Width: 238
GlyphClass: 1
Flags: W
LayerCount: 2
Fore
SplineSet
161 370 m 2,0,1
 127 370 127 370 127 398 c 0,2,3
 127 406 127 406 128 410 c 2,4,-1
 147 492 l 1,5,-1
 96 492 l 2,6,7
 80 492 80 492 71.5 499 c 128,-1,8
 63 506 63 506 63 519 c 0,9,10
 63 523 63 523 65 531 c 2,11,-1
 97 668 l 2,12,13
 104 700 104 700 138 700 c 2,14,-1
 280 700 l 2,15,16
 297 700 297 700 306 692.5 c 128,-1,17
 315 685 315 685 315 671 c 0,18,19
 315 664 315 664 314 660 c 2,20,-1
 254 402 l 2,21,22
 250 385 250 385 243 377.5 c 128,-1,23
 236 370 236 370 219 370 c 2,24,-1
 161 370 l 2,0,1
213 396 m 2,25,26
 220 396 220 396 222 398 c 128,-1,27
 224 400 224 400 226 408 c 2,28,-1
 286 666 l 1,29,-1
 287 670 l 2,30,31
 287 674 287 674 279 674 c 2,32,-1
 138 674 l 2,33,34
 131 674 131 674 129 672 c 128,-1,35
 127 670 127 670 125 662 c 2,36,-1
 93 528 l 1,37,-1
 92 524 l 2,38,39
 92 518 92 518 103 518 c 2,40,-1
 181 518 l 1,41,-1
 155 404 l 1,42,-1
 154 401 l 2,43,44
 154 398 154 398 157 397 c 128,-1,45
 160 396 160 396 165 396 c 2,46,-1
 213 396 l 2,25,26
EndSplineSet
EndChar

StartChar: guilsinglleft
Encoding: 265 8249 22
Width: 328
GlyphClass: 1
Flags: W
LayerCount: 2
Fore
SplineSet
133 35 m 2,0,1
 96 35 96 35 84 62 c 2,2,-1
 9 232 l 2,3,4
 6 240 6 240 6 248 c 0,5,6
 6 267 6 267 21 283 c 2,7,-1
 175 453 l 2,8,9
 194 475 194 475 219 475 c 2,10,-1
 318 475 l 2,11,12
 335 475 335 475 345 467 c 128,-1,13
 355 459 355 459 355 447 c 0,14,15
 355 433 355 433 342 420 c 2,16,-1
 179 240 l 1,17,-1
 248 83 l 2,18,19
 252 74 252 74 252 63 c 0,20,21
 252 50 252 50 243.5 42.5 c 128,-1,22
 235 35 235 35 219 35 c 2,23,-1
 133 35 l 2,0,1
219 61 m 2,24,25
 225 61 225 61 225 64 c 2,26,-1
 222 73 l 1,27,-1
 147 244 l 1,28,-1
 322 438 l 2,29,30
 327 445 327 445 327 446 c 0,31,32
 327 449 327 449 318 449 c 2,33,-1
 219 449 l 2,34,35
 208 449 208 449 195 435 c 2,36,-1
 41 265 l 2,37,38
 30 254 30 254 35 242 c 2,39,-1
 110 72 l 2,40,41
 113 66 113 66 118 63.5 c 128,-1,42
 123 61 123 61 133 61 c 2,43,-1
 219 61 l 2,24,25
EndSplineSet
EndChar

StartChar: guilsinglright
Encoding: 266 8250 23
Width: 328
GlyphClass: 1
Flags: W
LayerCount: 2
Fore
SplineSet
6 35 m 2,0,1
 -11 35 -11 35 -21 43 c 128,-1,2
 -31 51 -31 51 -31 63 c 0,3,4
 -31 77 -31 77 -18 90 c 2,5,-1
 145 270 l 1,6,-1
 76 427 l 2,7,8
 72 436 72 436 72 447 c 0,9,10
 72 460 72 460 80.5 467.5 c 128,-1,11
 89 475 89 475 105 475 c 2,12,-1
 191 475 l 2,13,14
 228 475 228 475 240 448 c 2,15,-1
 315 278 l 2,16,17
 318 271 318 271 318 262 c 0,18,19
 318 244 318 244 303 227 c 2,20,-1
 149 57 l 2,21,22
 130 35 130 35 105 35 c 2,23,-1
 6 35 l 2,0,1
105 61 m 2,24,25
 116 61 116 61 129 75 c 2,26,-1
 283 245 l 2,27,28
 294 256 294 256 289 268 c 2,29,-1
 214 438 l 2,30,31
 211 444 211 444 206 446.5 c 128,-1,32
 201 449 201 449 191 449 c 2,33,-1
 105 449 l 2,34,35
 99 449 99 449 99 446 c 2,36,-1
 102 437 l 1,37,-1
 177 266 l 1,38,-1
 2 72 l 2,39,40
 -3 65 -3 65 -3 64 c 0,41,42
 -3 61 -3 61 6 61 c 2,43,-1
 105 61 l 2,24,25
EndSplineSet
EndChar

StartChar: guillemotleft
Encoding: 171 171 24
Width: 549
GlyphClass: 1
Flags: W
LayerCount: 2
Fore
SplineSet
131 35 m 2,0,1
 94 35 94 35 82 62 c 2,2,-1
 7 232 l 2,3,4
 3 240 3 240 3 250 c 0,5,6
 3 269 3 269 17 283 c 2,7,-1
 173 453 l 2,8,9
 194 475 194 475 216 475 c 2,10,-1
 320 475 l 2,11,12
 336 475 336 475 344.5 468.5 c 128,-1,13
 353 462 353 462 353 452 c 0,14,15
 353 439 353 439 341 425 c 2,16,-1
 174 240 l 1,17,-1
 243 83 l 2,18,19
 249 70 249 70 249 60 c 0,20,21
 249 48 249 48 241.5 41.5 c 128,-1,22
 234 35 234 35 219 35 c 2,23,-1
 131 35 l 2,0,1
354 35 m 2,24,25
 317 35 317 35 305 62 c 2,26,-1
 231 228 l 2,27,28
 228 236 228 236 228 243 c 0,29,30
 228 263 228 263 243 278 c 2,31,-1
 400 453 l 2,32,33
 419 475 419 475 445 475 c 2,34,-1
 551 475 l 2,35,36
 566 475 566 475 573.5 469 c 128,-1,37
 581 463 581 463 581 453 c 0,38,39
 581 440 581 440 570 429 c 2,40,-1
 396 236 l 1,41,-1
 463 83 l 2,42,43
 469 70 469 70 469 59 c 0,44,45
 469 35 469 35 440 35 c 2,46,-1
 354 35 l 2,24,25
213 61 m 2,47,48
 222 61 222 61 217 73 c 2,49,-1
 142 244 l 1,50,-1
 316 438 l 2,51,52
 320 443 320 443 320 446 c 256,53,54
 320 449 320 449 313 449 c 2,55,-1
 216 449 l 2,56,57
 210 449 210 449 205 446 c 128,-1,58
 200 443 200 443 193 435 c 2,59,-1
 39 265 l 2,60,61
 34 260 34 260 32.5 253.5 c 128,-1,62
 31 247 31 247 33 242 c 2,63,-1
 108 72 l 2,64,65
 111 66 111 66 116 63.5 c 128,-1,66
 121 61 121 61 131 61 c 2,67,-1
 213 61 l 2,47,48
434 61 m 2,68,69
 442 61 442 61 437 73 c 2,70,-1
 364 240 l 1,71,-1
 542 438 l 2,72,73
 546 442 546 442 546 445 c 0,74,75
 546 449 546 449 539 449 c 2,76,-1
 445 449 l 2,77,78
 438 449 438 449 434 446.5 c 128,-1,79
 430 444 430 444 422 435 c 2,80,-1
 263 260 l 2,81,82
 255 252 255 252 255 244 c 0,83,84
 255 242 255 242 257 236 c 2,85,-1
 331 72 l 2,86,87
 334 66 334 66 339 63.5 c 128,-1,88
 344 61 344 61 354 61 c 2,89,-1
 434 61 l 2,68,69
EndSplineSet
EndChar

StartChar: guillemotright
Encoding: 187 187 25
Width: 550
GlyphClass: 1
Flags: W
LayerCount: 2
Fore
SplineSet
-7 35 m 2,0,1
 -22 35 -22 35 -29.5 41 c 128,-1,2
 -37 47 -37 47 -37 57 c 0,3,4
 -37 70 -37 70 -26 81 c 2,5,-1
 148 274 l 1,6,-1
 81 427 l 2,7,8
 75 441 75 441 75 451 c 0,9,10
 75 475 75 475 104 475 c 2,11,-1
 190 475 l 2,12,13
 227 475 227 475 239 448 c 2,14,-1
 313 282 l 2,15,16
 316 275 316 275 316 267 c 0,17,18
 316 247 316 247 301 232 c 2,19,-1
 144 57 l 2,20,21
 125 35 125 35 99 35 c 2,22,-1
 -7 35 l 2,0,1
226 35 m 2,23,24
 210 35 210 35 201.5 41.5 c 128,-1,25
 193 48 193 48 193 58 c 0,26,27
 193 72 193 72 205 85 c 2,28,-1
 372 270 l 1,29,-1
 303 427 l 2,30,31
 297 441 297 441 297 450 c 0,32,33
 297 462 297 462 304.5 468.5 c 128,-1,34
 312 475 312 475 327 475 c 2,35,-1
 415 475 l 2,36,37
 452 475 452 475 464 448 c 2,38,-1
 539 278 l 2,39,40
 543 270 543 270 543 260 c 0,41,42
 543 241 543 241 529 227 c 2,43,-1
 373 57 l 2,44,45
 352 35 352 35 330 35 c 2,46,-1
 226 35 l 2,23,24
99 61 m 2,47,48
 106 61 106 61 110 63.5 c 128,-1,49
 114 66 114 66 122 75 c 2,50,-1
 281 250 l 2,51,52
 289 258 289 258 289 266 c 0,53,54
 289 268 289 268 287 274 c 2,55,-1
 213 438 l 2,56,57
 210 444 210 444 205 446.5 c 128,-1,58
 200 449 200 449 190 449 c 2,59,-1
 110 449 l 2,60,61
 102 449 102 449 107 437 c 2,62,-1
 180 270 l 1,63,-1
 2 72 l 2,64,65
 -2 68 -2 68 -2 65 c 0,66,67
 -2 61 -2 61 5 61 c 2,68,-1
 99 61 l 2,47,48
330 61 m 2,69,70
 336 61 336 61 341 64 c 128,-1,71
 346 67 346 67 353 75 c 2,72,-1
 507 245 l 2,73,74
 512 250 512 250 513.5 256.5 c 128,-1,75
 515 263 515 263 513 268 c 2,76,-1
 438 438 l 2,77,78
 435 444 435 444 430 446.5 c 128,-1,79
 425 449 425 449 415 449 c 2,80,-1
 333 449 l 2,81,82
 324 449 324 449 329 437 c 2,83,-1
 404 266 l 1,84,-1
 230 72 l 2,85,86
 226 67 226 67 226 64 c 256,87,88
 226 61 226 61 233 61 c 2,89,-1
 330 61 l 2,69,70
EndSplineSet
EndChar

StartChar: bullet
Encoding: 267 8226 26
Width: 436
GlyphClass: 1
Flags: W
LayerCount: 2
Fore
SplineSet
107 165 m 2,0,1
 91 165 91 165 82.5 172.5 c 128,-1,2
 74 180 74 180 74 193 c 0,3,4
 74 196 74 196 76 204 c 2,5,-1
 115 374 l 2,6,7
 122 405 122 405 155 405 c 2,8,-1
 338 405 l 2,9,10
 370 405 370 405 370 379 c 0,11,12
 370 376 370 376 368 366 c 2,13,-1
 330 196 l 2,14,15
 323 165 323 165 290 165 c 2,16,-1
 107 165 l 2,0,1
290 191 m 2,17,18
 296 191 296 191 298.5 193 c 128,-1,19
 301 195 301 195 302 202 c 2,20,-1
 340 369 l 1,21,-1
 341 374 l 2,22,23
 341 379 341 379 333 379 c 2,24,-1
 155 379 l 2,25,26
 149 379 149 379 146.5 377 c 128,-1,27
 144 375 144 375 143 368 c 2,28,-1
 105 202 l 1,29,-1
 104 197 l 2,30,31
 104 191 104 191 113 191 c 2,32,-1
 290 191 l 2,17,18
EndSplineSet
EndChar

StartChar: hyphen
Encoding: 45 45 27
Width: 510
GlyphClass: 1
Flags: W
LayerCount: 2
Fore
SplineSet
55 169.509510339 m 6,0,1
 18.8297033147 169.509510339 18.8297033147 169.509510339 -2.83039317326 191.169606827 c 132,-1,2
 -24.4904896612 212.829703315 -24.4904896612 212.829703315 -24.4904896612 245 c 4,3,4
 -24.4904896612 257.703319695 -24.4904896612 257.703319695 -22.1896157795 267.201367299 c 4,5,6
 -0.0825567402233 364.673400336 -0.0825567402233 364.673400336 0.152546093637 365.55520621 c 4,7,8
 6.94414381621 391.02369767 6.94414381621 391.02369767 23.5150096938 407.594563547 c 4,9,10
 47.4109358077 431.490489661 47.4109358077 431.490489661 84 431.490489661 c 6,11,-1
 473 431.490489661 l 6,12,13
 508.765534781 431.490489661 508.765534781 431.490489661 530.128012221 410.128012221 c 132,-1,14
 551.490489661 388.765534781 551.490489661 388.765534781 551.490489661 358 c 4,15,16
 551.490489661 348.060521723 551.490489661 348.060521723 548.234800404 334.000115071 c 6,17,-1
 526.195911859 238.833522975 l 6,18,19
 518.670407239 206.850128341 518.670407239 206.850128341 497.510723705 188.17981934 c 132,-1,20
 476.35104017 169.509510339 476.35104017 169.509510339 442 169.509510339 c 6,21,-1
 55 169.509510339 l 6,0,1
440 244 m 2,22,23
 445 244 445 244 447 245.5 c 128,-1,24
 449 247 449 247 450 254 c 2,25,-1
 472 348 l 2,26,27
 475 357 475 357 467 357 c 2,28,-1
 86 357 l 2,29,30
 80 357 80 357 78.5 355.5 c 128,-1,31
 77 354 77 354 75 347 c 2,32,-1
 53 251 l 1,33,-1
 52 248 l 2,34,35
 52 244 52 244 60 244 c 2,36,-1
 440 244 l 2,22,23
EndSplineSet
EndChar

StartChar: endash
Encoding: 268 8211 29
Width: 825
GlyphClass: 1
Flags: W
LayerCount: 2
Fore
SplineSet
54 220 m 2,0,1
 40 220 40 220 32 226.5 c 128,-1,2
 24 233 24 233 24 245 c 0,3,4
 24 248 24 248 26 258 c 2,5,-1
 47 350 l 2,6,7
 54 380 54 380 86 380 c 2,8,-1
 788 380 l 2,9,10
 817 380 817 380 817 353 c 0,11,12
 817 346 817 346 816 342 c 2,13,-1
 795 250 l 2,14,15
 788 220 788 220 757 220 c 2,16,-1
 54 220 l 2,0,1
757 246 m 2,17,18
 762 246 762 246 764 247.5 c 128,-1,19
 766 249 766 249 767 256 c 2,20,-1
 788 348 l 2,21,22
 789 352 789 352 787.5 353 c 128,-1,23
 786 354 786 354 782 354 c 2,24,-1
 86 354 l 2,25,26
 80 354 80 354 78.5 352.5 c 128,-1,27
 77 351 77 351 75 344 c 2,28,-1
 55 255 l 2,29,30
 54 253 54 253 54 250 c 0,31,32
 54 246 54 246 61 246 c 2,33,-1
 757 246 l 2,17,18
EndSplineSet
EndChar

StartChar: emdash
Encoding: 269 8212 30
Width: 1010
GlyphClass: 1
Flags: W
LayerCount: 2
Fore
SplineSet
54 220 m 2,0,1
 40 220 40 220 32 226.5 c 128,-1,2
 24 233 24 233 24 245 c 0,3,4
 24 248 24 248 26 258 c 2,5,-1
 47 350 l 2,6,7
 54 380 54 380 86 380 c 2,8,-1
 973 380 l 2,9,10
 1002 380 1002 380 1002 353 c 0,11,12
 1002 346 1002 346 1001 342 c 2,13,-1
 980 250 l 2,14,15
 973 220 973 220 942 220 c 2,16,-1
 54 220 l 2,0,1
942 246 m 2,17,18
 947 246 947 246 949 247.5 c 128,-1,19
 951 249 951 249 952 256 c 2,20,-1
 973 348 l 2,21,22
 974 352 974 352 972.5 353 c 128,-1,23
 971 354 971 354 967 354 c 2,24,-1
 86 354 l 2,25,26
 80 354 80 354 78.5 352.5 c 128,-1,27
 77 351 77 351 75 344 c 2,28,-1
 55 255 l 2,29,30
 54 253 54 253 54 250 c 0,31,32
 54 246 54 246 61 246 c 2,33,-1
 942 246 l 2,17,18
EndSplineSet
EndChar

StartChar: underscore
Encoding: 95 95 31
Width: 446
GlyphClass: 1
Flags: W
LayerCount: 2
Fore
SplineSet
-74 -281.980979322 m 6,0,1
 -130.561372591 -281.980979322 -130.561372591 -281.980979322 -165.771175957 -246.771175957 c 132,-1,2
 -200.980979322 -211.561372591 -200.980979322 -211.561372591 -200.980979322 -160 c 4,3,4
 -200.980979322 -144.119382399 -200.980979322 -144.119382399 -196.377878947 -124.60786379 c 6,5,-1
 -175.433001471 -35.8427838109 l 6,6,7
 -166.239664168 3.55723320037 -166.239664168 3.55723320037 -139.362911494 30.4339858743 c 4,8,9
 -100.815918046 68.9809793224 -100.815918046 68.9809793224 -42 68.9809793224 c 6,10,-1
 387 68.9809793224 l 6,11,12
 446.302999386 68.9809793224 446.302999386 68.9809793224 482.738942263 32.5450364455 c 4,13,14
 502.741999416 12.5419792919 502.741999416 12.5419792919 511.293756602 -14.4737990893 c 4,15,16
 519.59107499 -40.6857821792 519.59107499 -40.6857821792 515.729665809 -69.6463510384 c 4,17,18
 514.338069158 -80.0833259185 514.338069158 -80.0833259185 512.377878947 -88.39213621 c 6,19,-1
 491.433001471 -177.157216189 l 6,20,21
 482.129201046 -217.030646579 482.129201046 -217.030646579 455.182451403 -243.977396223 c 4,22,23
 432.929727016 -266.230120609 432.929727016 -266.230120609 402.614701095 -275.678959857 c 4,24,25
 382.395721978 -281.980979322 382.395721978 -281.980979322 360 -281.980979322 c 6,26,-1
 -74 -281.980979322 l 6,0,1
358 -159 m 2,27,28
 364 -159 364 -159 366.5 -157.5 c 128,-1,29
 369 -156 369 -156 370 -149 c 2,30,-1
 391 -60 l 2,31,32
 392 -56 392 -56 390 -55 c 128,-1,33
 388 -54 388 -54 385 -54 c 2,34,-1
 -42 -54 l 2,35,36
 -48 -54 -48 -54 -50.5 -55.5 c 128,-1,37
 -53 -57 -53 -57 -54 -64 c 2,38,-1
 -74 -150 l 1,39,-1
 -74 -153 l 2,40,41
 -74 -159 -74 -159 -68 -159 c 2,42,-1
 358 -159 l 2,27,28
EndSplineSet
EndChar

StartChar: parenleft
Encoding: 40 40 32
Width: 410
GlyphClass: 1
Flags: W
LayerCount: 2
Fore
SplineSet
288 -139 m 2,0,1
 295 -139 295 -139 297.5 -137 c 128,-1,2
 300 -135 300 -135 302 -126 c 2,3,-1
 325 -28 l 1,4,-1
 326 -23 l 2,5,6
 326 -20 326 -20 323.5 -19 c 128,-1,7
 321 -18 321 -18 316 -18 c 2,8,-1
 245 -18 l 2,9,10
 190 -18 190 -18 190 29 c 0,11,12
 190 41 190 41 193 54 c 2,13,-1
 303 531 l 2,14,15
 310 562 310 562 323.5 575 c 128,-1,16
 337 588 337 588 366 588 c 2,17,-1
 454 588 l 2,18,19
 461 588 461 588 464 590.5 c 128,-1,20
 467 593 467 593 469 602 c 2,21,-1
 492 700 l 1,22,-1
 493 704 l 2,23,24
 493 707 493 707 490.5 708 c 128,-1,25
 488 709 488 709 484 709 c 2,26,-1
 347 709 l 2,27,28
 273 709 273 709 234 674.5 c 128,-1,29
 195 640 195 640 176 558 c 2,30,-1
 55 35 l 2,31,32
 48 2 48 2 48 -19 c 0,33,34
 48 -78 48 -78 86.5 -108.5 c 128,-1,35
 125 -139 125 -139 200 -139 c 2,36,-1
 288 -139 l 2,0,1
200 -213.490489661 m 2,37,38
 84.4923268547 -213.490489661 84.4923268547 -213.490489661 23.7934900931 -152.7916529 c 0,39,40
 -27 -102 -27 -102 -27.4904896612 -18 c 0,41,42
 -27.4904896612 17.8066560881 -27.4904896612 17.8066560881 -19.1311060855 52.4383880445 c 2,43,-1
 101.783499265 575.078608095 l 2,44,45
 126.36403605 680.423765745 126.36403605 680.423765745 186.168184495 731.957127703 c 128,-1,46
 245.97233294 783.490489661 245.97233294 783.490489661 347 783.490489661 c 2,47,-1
 490 783.490489661 l 2,48,49
 527.454800317 783.490489661 527.454800317 783.490489661 548.972644989 761.972644989 c 128,-1,50
 570.490489661 740.454800317 570.490489661 740.454800317 570.490489661 708 c 0,51,52
 570.490489661 696.873356016 570.490489661 696.873356016 567.202229821 682.860408607 c 2,53,-1
 544.334757784 585.425092974 l 2,54,55
 538.329487954 557.168701608 538.329487954 557.168701608 519.968148275 538.807361929 c 0,56,57
 494.670296685 513.509510339 494.670296685 513.509510339 454 513.509510339 c 2,58,-1
 377.121684215 513.509510339 l 1,59,-1
 271.729457225 56.4904896612 l 1,60,-1
 320 56.4904896612 l 2,61,62
 357.744029404 56.4904896612 357.744029404 56.4904896612 380.117259533 34.1172595327 c 128,-1,63
 402.490489661 11.7440294042 402.490489661 11.7440294042 402.490489661 -21 c 0,64,65
 402.490489661 -31.1266439841 402.490489661 -31.1266439841 399.202229821 -45.1395913926 c 2,66,-1
 376.305904589 -142.697846726 l 2,67,68
 370.237872562 -170.61815188 370.237872562 -170.61815188 352.158012221 -188.698012221 c 0,69,70
 327.365534781 -213.490489661 327.365534781 -213.490489661 288 -213.490489661 c 2,71,-1
 200 -213.490489661 l 2,37,38
EndSplineSet
EndChar

StartChar: parenright
Encoding: 41 41 33
Width: 410
GlyphClass: 1
Flags: W
LayerCount: 2
Fore
SplineSet
72 -139 m 2,0,1
 146 -139 146 -139 185 -104.5 c 128,-1,2
 224 -70 224 -70 243 12 c 2,3,-1
 364 535 l 2,4,5
 371 568 371 568 371 589 c 0,6,7
 371 648 371 648 332.5 678.5 c 128,-1,8
 294 709 294 709 219 709 c 2,9,-1
 131 709 l 2,10,11
 124 709 124 709 121.5 707 c 128,-1,12
 119 705 119 705 117 696 c 2,13,-1
 94 598 l 1,14,-1
 93 593 l 2,15,16
 93 590 93 590 95.5 589 c 128,-1,17
 98 588 98 588 103 588 c 2,18,-1
 174 588 l 2,19,20
 229 588 229 588 229 541 c 0,21,22
 229 530 229 530 226 516 c 2,23,-1
 116 39 l 2,24,25
 109 8 109 8 95.5 -5 c 128,-1,26
 82 -18 82 -18 53 -18 c 2,27,-1
 -35 -18 l 2,28,29
 -42 -18 -42 -18 -45 -20.5 c 128,-1,30
 -48 -23 -48 -23 -50 -32 c 2,31,-1
 -73 -130 l 1,32,-1
 -74 -134 l 2,33,34
 -74 -137 -74 -137 -71.5 -138 c 128,-1,35
 -69 -139 -69 -139 -65 -139 c 2,36,-1
 72 -139 l 2,0,1
-71 -213.490489661 m 2,37,38
 -108.454800317 -213.490489661 -108.454800317 -213.490489661 -129.972644989 -191.972644989 c 128,-1,39
 -151.490489661 -170.454800317 -151.490489661 -170.454800317 -151.490489661 -138 c 0,40,41
 -151.490489661 -126.873356016 -151.490489661 -126.873356016 -148.202229821 -112.860408607 c 2,42,-1
 -125.334757784 -15.4250929738 l 2,43,44
 -119.329487954 12.8312983923 -119.329487954 12.8312983923 -100.968148275 31.1926380712 c 0,45,46
 -75.6702966853 56.4904896612 -75.6702966853 56.4904896612 -35 56.4904896612 c 2,47,-1
 41.8783157846 56.4904896612 l 1,48,-1
 147.270542775 513.509510339 l 1,49,-1
 99 513.509510339 l 2,50,51
 61.2559705958 513.509510339 61.2559705958 513.509510339 38.8827404673 535.882740467 c 128,-1,52
 16.5095103388 558.255970596 16.5095103388 558.255970596 16.5095103388 591 c 0,53,54
 16.5095103388 601.126643984 16.5095103388 601.126643984 19.7977701794 615.139591393 c 2,55,-1
 42.6940954108 712.697846726 l 2,56,57
 48.7621274383 740.61815188 48.7621274383 740.61815188 66.8419877791 758.698012221 c 0,58,59
 91.6344652195 783.490489661 91.6344652195 783.490489661 131 783.490489661 c 2,60,-1
 219 783.490489661 l 2,61,62
 334.507673145 783.490489661 334.507673145 783.490489661 395.206509907 722.7916529 c 0,63,64
 446.490489661 671.507673145 446.490489661 671.507673145 446.490489661 588 c 0,65,66
 446.490489661 552.193343912 446.490489661 552.193343912 438.131106086 517.561611956 c 2,67,-1
 317.216500735 -5.07860809454 l 2,68,69
 292.63596395 -110.423765745 292.63596395 -110.423765745 232.831815505 -161.957127703 c 128,-1,70
 173.02766706 -213.490489661 173.02766706 -213.490489661 72 -213.490489661 c 2,71,-1
 -71 -213.490489661 l 2,37,38
EndSplineSet
EndChar

StartChar: bracketleft
Encoding: 91 91 34
Width: 390
GlyphClass: 1
Flags: W
LayerCount: 2
Fore
SplineSet
23 -261.980979322 m 6,0,1
 -36.6421806722 -261.980979322 -36.6421806722 -261.980979322 -72.8115799973 -225.811579997 c 132,-1,2
 -108.980979322 -189.642180672 -108.980979322 -189.642180672 -108.980979322 -137 c 4,3,4
 -108.980979322 -121.512518136 -108.980979322 -121.512518136 -104.476751783 -102.031132307 c 6,5,-1
 86.3696823131 723.304757932 l 6,6,7
 95.4483185753 764.709000357 95.4483185753 764.709000357 123.464659962 792.725342725 c 4,8,9
 162.720296559 831.980979322 162.720296559 831.980979322 223 831.980979322 c 6,10,-1
 464 831.980979322 l 6,11,12
 525.749975034 831.980979322 525.749975034 831.980979322 562.365477178 795.365477178 c 132,-1,13
 598.980979322 758.749975034 598.980979322 758.749975034 598.980979322 706 c 4,14,15
 598.980979322 697.916956428 598.980979322 697.916956428 597.055825908 686.366035943 c 132,-1,16
 595.130672494 674.815115457 595.130672494 674.815115457 594.404459641 671.720817215 c 6,17,-1
 571.640516903 574.726626417 l 6,18,19
 562.566907461 532.816763339 562.566907461 532.816763339 534.262827163 504.512683041 c 4,20,21
 494.769164799 465.019020678 494.769164799 465.019020678 434 465.019020678 c 6,22,-1
 416.145435159 465.019020678 l 5,23,-1
 332.277294213 102.027223149 l 5,24,25
 370.37793174 94.679571689 370.37793174 94.679571689 395.028751714 70.0287517145 c 4,26,27
 429.980979322 35.0765241066 429.980979322 35.0765241066 429.980979322 -17 c 4,28,29
 429.980979322 -39.0555517308 429.980979322 -39.0555517308 425.022944319 -57.904768993 c 6,30,-1
 402.391823718 -154.332954049 l 6,31,32
 391.385710717 -201.108934305 391.385710717 -201.108934305 357.145185394 -231.544956814 c 132,-1,33
 322.904660072 -261.980979322 322.904660072 -261.980979322 269 -261.980979322 c 6,34,-1
 23 -261.980979322 l 6,0,1
264 -139 m 2,35,36
 272 -139 272 -139 275 -137 c 128,-1,37
 278 -135 278 -135 280 -126 c 2,38,-1
 303 -28 l 1,39,-1
 304 -23 l 2,40,41
 304 -18 304 -18 295 -18 c 2,42,-1
 177 -18 l 1,43,-1
 317 588 l 1,44,-1
 434 588 l 2,45,46
 441 588 441 588 444 590.5 c 128,-1,47
 447 593 447 593 449 602 c 2,48,-1
 472 700 l 2,49,50
 473 702 473 702 473 706 c 0,51,52
 473 708 473 708 470.5 708.5 c 128,-1,53
 468 709 468 709 464 709 c 2,54,-1
 223 709 l 2,55,56
 216 709 216 709 213.5 707 c 128,-1,57
 211 705 211 705 209 696 c 2,58,-1
 18 -130 l 2,59,60
 17 -132 17 -132 17 -136 c 0,61,62
 17 -138 17 -138 19.5 -138.5 c 128,-1,63
 22 -139 22 -139 26 -139 c 2,64,-1
 264 -139 l 2,35,36
EndSplineSet
EndChar

StartChar: bracketright
Encoding: 93 93 35
Width: 390
GlyphClass: 1
Flags: W
LayerCount: 2
Fore
SplineSet
-65 -261.980979322 m 2,0,1
 -126.749975034 -261.980979322 -126.749975034 -261.980979322 -164.470177557 -224.260776799 c 0,2,3
 -185.323953938 -203.407000418 -185.323953938 -203.407000418 -194.160157237 -175.096270112 c 0,4,5
 -203.080704358 -146.515306639 -203.080704358 -146.515306639 -198.653694562 -119.953247864 c 0,6,7
 -196.130672494 -104.815115457 -196.130672494 -104.815115457 -195.404459641 -101.720817215 c 2,8,-1
 -172.638570142 -4.71833152212 l 2,9,10
 -163.555848786 37.1942953355 -163.555848786 37.1942953355 -135.262827163 65.4873169588 c 0,11,12
 -95.7691647992 104.980979322 -95.7691647992 104.980979322 -35 104.980979322 c 2,13,-1
 -17.1454351587 104.980979322 l 1,14,-1
 66.7160863395 467.944127057 l 1,15,16
 28.420868841 475.52162773 28.420868841 475.52162773 3.17005452977 500.772442041 c 0,17,18
 -30.9809793224 534.923475893 -30.9809793224 534.923475893 -30.9809793224 587 c 0,19,20
 -30.9809793224 609.174928016 -30.9809793224 609.174928016 -26.0109044427 627.956068976 c 2,21,-1
 -3.39182371793 724.332954049 l 2,22,23
 7.61428928332 771.108934305 7.61428928332 771.108934305 39.6132238275 799.552431677 c 0,24,25
 76.0953399283 831.980979322 76.0953399283 831.980979322 130 831.980979322 c 2,26,-1
 376 831.980979322 l 2,27,28
 435.642180672 831.980979322 435.642180672 831.980979322 472.675777528 794.947382466 c 0,29,30
 493.561401492 774.061758502 493.561401492 774.061758502 502.316363887 745.608130721 c 0,31,32
 510.805494586 718.018455947 510.805494586 718.018455947 506.569655631 688.897063125 c 0,33,34
 505.201462975 679.490738617 505.201462975 679.490738617 503.476751783 672.031132307 c 2,35,-1
 312.629026944 -153.310337416 l 2,36,37
 303.544193927 -194.716488837 303.544193927 -194.716488837 275.535340038 -222.725342725 c 0,38,39
 236.279703441 -261.980979322 236.279703441 -261.980979322 176 -261.980979322 c 2,40,-1
 -65 -261.980979322 l 2,0,1
176 -139 m 2,41,42
 183 -139 183 -139 185.5 -137 c 128,-1,43
 188 -135 188 -135 190 -126 c 2,44,-1
 381 700 l 2,45,46
 382 702 382 702 382 706 c 0,47,48
 382 708 382 708 379.5 708.5 c 128,-1,49
 377 709 377 709 373 709 c 2,50,-1
 135 709 l 2,51,52
 127 709 127 709 124 707 c 128,-1,53
 121 705 121 705 119 696 c 2,54,-1
 96 598 l 1,55,-1
 95 593 l 2,56,57
 95 588 95 588 104 588 c 2,58,-1
 222 588 l 1,59,-1
 82 -18 l 1,60,-1
 -35 -18 l 2,61,62
 -42 -18 -42 -18 -45 -20.5 c 128,-1,63
 -48 -23 -48 -23 -50 -32 c 2,64,-1
 -73 -130 l 2,65,66
 -74 -132 -74 -132 -74 -136 c 0,67,68
 -74 -138 -74 -138 -71.5 -138.5 c 128,-1,69
 -69 -139 -69 -139 -65 -139 c 2,70,-1
 176 -139 l 2,41,42
EndSplineSet
EndChar

StartChar: braceleft
Encoding: 123 123 36
Width: 401
GlyphClass: 1
Flags: W
LayerCount: 2
Fore
SplineSet
193 -261.980979322 m 6,0,1
 70.2728520075 -261.980979322 70.2728520075 -261.980979322 2.24757994117 -193.955707256 c 4,2,3
 -81.5618165991 -110.146310716 -81.5618165991 -110.146310716 -50.9595757506 37.7645200521 c 4,4,5
 -50.7650402898 38.704774779 -50.7650402898 38.704774779 -32.5380756548 118.792952721 c 5,6,7
 -47.2706870382 127.020542917 -47.2706870382 127.020542917 -59.2602761424 139.010132021 c 4,8,9
 -79.7453683554 159.495224234 -79.7453683554 159.495224234 -88.7231251118 186.956597842 c 4,10,11
 -100.322763292 222.437844039 -100.322763292 222.437844039 -90.2507485764 262.934125583 c 4,12,13
 -67.0914933375 361.612691383 -67.0914933375 361.612691383 -66.7405114472 362.938767581 c 4,14,15
 -56.3307142992 402.264667918 -56.3307142992 402.264667918 -31.2869132564 427.30846896 c 4,16,17
 1.91051944387 460.505901661 1.91051944387 460.505901661 47.52786146 467.282290397 c 5,18,-1
 79.453337857 606.664301553 l 6,19,20
 104.631119576 717.166787986 104.631119576 717.166787986 172.549373606 774.573883654 c 132,-1,21
 240.467627636 831.980979322 240.467627636 831.980979322 352 831.980979322 c 6,22,-1
 482 831.980979322 l 6,23,24
 538.269164799 831.980979322 538.269164799 831.980979322 573.625072061 796.625072061 c 4,25,26
 620.137235825 750.112908297 620.137235825 750.112908297 605.087956803 674.866513188 c 4,27,28
 604.7721753 673.287605674 604.7721753 673.287605674 581.512409365 574.180776909 c 4,29,30
 569.749831762 522.136493747 569.749831762 522.136493747 532.26649006 493.577757212 c 132,-1,31
 494.783148358 465.019020678 494.783148358 465.019020678 445 465.019020678 c 6,32,-1
 436.228204376 465.019020678 l 5,33,-1
 405.663695303 331.84508829 l 6,34,35
 395.582799035 285.249253914 395.582799035 285.249253914 371.25391214 250.756225885 c 5,36,37
 373.980979307 234.975130029 373.980979307 234.975130029 373.980979315 217.584799263 c 132,-1,38
 373.980979322 200.194468496 373.980979322 200.194468496 368.407967092 169.542901227 c 4,39,40
 367.991088159 167.250067095 367.991088159 167.250067095 352.192377399 99.0899149622 c 5,41,42
 384.244466887 89.7763539268 384.244466887 89.7763539268 406.356670794 67.6641500189 c 4,43,44
 440.980979322 33.0398414909 440.980979322 33.0398414909 440.980979322 -19 c 4,45,46
 440.980979322 -36.7792293604 440.980979322 -36.7792293604 436.404459641 -56.2791827851 c 6,47,-1
 413.517482685 -153.797606338 l 6,48,49
 402.651660188 -202.025467692 402.651660188 -202.025467692 370.618662945 -230.289877024 c 4,50,51
 334.70208034 -261.980979322 334.70208034 -261.980979322 281 -261.980979322 c 6,52,-1
 193 -261.980979322 l 6,0,1
277 -139 m 2,53,54
 285 -139 285 -139 287.5 -137 c 128,-1,55
 290 -135 290 -135 292 -126 c 2,56,-1
 315 -28 l 1,57,-1
 316 -23 l 2,58,59
 316 -18 316 -18 306 -18 c 2,60,-1
 259 -18 l 2,61,62
 208 -18 208 -18 208 22 c 0,63,64
 208 32 208 32 211 42 c 2,65,-1
 246 193 l 2,66,67
 249 207 249 207 249 218 c 0,68,69
 249 258 249 258 207 265 c 1,70,-1
 213 292 l 1,71,72
 243 294 243 294 259.5 310 c 128,-1,73
 276 326 276 326 284 359 c 2,74,-1
 326 542 l 2,75,76
 332 567 332 567 346 577.5 c 128,-1,77
 360 588 360 588 387 588 c 2,78,-1
 445 588 l 2,79,80
 451 588 451 588 454.5 591 c 128,-1,81
 458 594 458 594 460 602 c 2,82,-1
 482 698 l 1,83,-1
 483 702 l 2,84,85
 483 709 483 709 473 709 c 2,86,-1
 352 709 l 2,87,88
 287 709 287 709 252 679 c 128,-1,89
 217 649 217 649 201 579 c 2,90,-1
 160 400 l 2,91,92
 153 369 153 369 140.5 357.5 c 128,-1,93
 128 346 128 346 101 346 c 2,94,-1
 71 346 l 2,95,96
 63 346 63 346 59.5 343.5 c 128,-1,97
 56 341 56 341 54 332 c 2,98,-1
 31 234 l 1,99,-1
 30 230 l 2,100,101
 30 225 30 225 40 225 c 2,102,-1
 57 225 l 2,103,104
 108 225 108 225 108 182 c 0,105,106
 108 170 108 170 106 163 c 2,107,-1
 71 12 l 2,108,109
 65 -15 65 -15 65 -37 c 0,110,111
 65 -139 65 -139 193 -139 c 2,112,-1
 277 -139 l 2,53,54
EndSplineSet
EndChar

StartChar: braceright
Encoding: 125 125 37
Width: 401
GlyphClass: 1
Flags: W
LayerCount: 2
Fore
SplineSet
-72 -261.980979322 m 6,0,1
 -128.269164799 -261.980979322 -128.269164799 -261.980979322 -163.625072061 -226.625072061 c 4,2,3
 -210.137235825 -180.112908297 -210.137235825 -180.112908297 -195.087956803 -104.866513188 c 4,4,5
 -194.7721753 -103.287605674 -194.7721753 -103.287605674 -171.512409365 -4.18077690907 c 4,6,7
 -159.749831762 47.8635062531 -159.749831762 47.8635062531 -122.26649006 76.4222427877 c 132,-1,8
 -84.7831483582 104.980979322 -84.7831483582 104.980979322 -35 104.980979322 c 6,9,-1
 -26.2282043761 104.980979322 l 5,10,-1
 4.33630469653 238.15491171 l 6,11,12
 14.4172009652 284.750746086 14.4172009652 284.750746086 38.7460878603 319.243774115 c 5,13,14
 36.0190206933 335.024869971 36.0190206933 335.024869971 36.0190206854 352.415200737 c 132,-1,15
 36.0190206776 369.805531504 36.0190206776 369.805531504 41.5920329082 400.457098773 c 4,16,17
 42.0089118413 402.749932905 42.0089118413 402.749932905 57.8076226006 470.910085038 c 5,18,19
 25.7555331135 480.223646073 25.7555331135 480.223646073 3.64332920551 502.335849981 c 4,20,21
 -30.9809793224 536.960158509 -30.9809793224 536.960158509 -30.9809793224 589 c 4,22,23
 -30.9809793224 606.779291968 -30.9809793224 606.779291968 -26.4044596411 626.279182785 c 6,24,-1
 -3.51748268494 723.797606338 l 6,25,26
 7.34833981202 772.025467692 7.34833981202 772.025467692 39.3813370551 800.289877024 c 4,27,28
 75.2979196595 831.980979322 75.2979196595 831.980979322 129 831.980979322 c 6,29,-1
 217 831.980979322 l 6,30,31
 339.727147992 831.980979322 339.727147992 831.980979322 407.752420059 763.955707256 c 4,32,33
 491.561816599 680.146310716 491.561816599 680.146310716 460.959575751 532.235479948 c 4,34,35
 460.76504029 531.295225221 460.76504029 531.295225221 442.538075655 451.207047279 c 5,36,37
 457.270687038 442.979457083 457.270687038 442.979457083 469.260276142 430.989867979 c 4,38,39
 489.745368355 410.504775766 489.745368355 410.504775766 498.723125112 383.043402158 c 4,40,41
 510.322763661 347.562154833 510.322763661 347.562154833 500.250746664 307.06586673 c 6,42,-1
 477.391823718 209.667045951 l 6,43,44
 467.74346569 168.661524334 467.74346569 168.661524334 439.955642895 140.873701538 c 4,45,46
 409.042966167 109.961024811 409.042966167 109.961024811 362.495886119 102.821387841 c 5,47,48
 330.546662143 -36.6639562135 330.546662143 -36.6639562135 330.546662143 -36.6643015533 c 4,49,50
 305.368880424 -147.166787986 305.368880424 -147.166787986 237.450626394 -204.573883654 c 132,-1,51
 169.532372364 -261.980979322 169.532372364 -261.980979322 58 -261.980979322 c 6,52,-1
 -72 -261.980979322 l 6,0,1
58 -139 m 2,53,54
 123 -139 123 -139 158 -109 c 128,-1,55
 193 -79 193 -79 209 -9 c 2,56,-1
 250 170 l 2,57,58
 257 201 257 201 269.5 212.5 c 128,-1,59
 282 224 282 224 309 224 c 2,60,-1
 339 224 l 2,61,62
 347 224 347 224 350.5 226.5 c 128,-1,63
 354 229 354 229 356 238 c 2,64,-1
 379 336 l 1,65,-1
 380 340 l 2,66,67
 380 345 380 345 370 345 c 2,68,-1
 353 345 l 2,69,70
 302 345 302 345 302 388 c 0,71,72
 302 400 302 400 304 407 c 2,73,-1
 339 558 l 2,74,75
 345 585 345 585 345 607 c 0,76,77
 345 709 345 709 217 709 c 2,78,-1
 133 709 l 2,79,80
 125 709 125 709 122.5 707 c 128,-1,81
 120 705 120 705 118 696 c 2,82,-1
 95 598 l 1,83,-1
 94 593 l 2,84,85
 94 588 94 588 104 588 c 2,86,-1
 151 588 l 2,87,88
 202 588 202 588 202 548 c 0,89,90
 202 539 202 539 199 528 c 2,91,-1
 164 377 l 2,92,93
 161 364 161 364 161 352 c 0,94,95
 161 313 161 313 203 305 c 1,96,-1
 197 278 l 1,97,98
 167 276 167 276 150.5 260 c 128,-1,99
 134 244 134 244 126 211 c 2,100,-1
 84 28 l 2,101,102
 78 3 78 3 64 -7.5 c 128,-1,103
 50 -18 50 -18 23 -18 c 2,104,-1
 -35 -18 l 2,105,106
 -41 -18 -41 -18 -44.5 -21 c 128,-1,107
 -48 -24 -48 -24 -50 -32 c 2,108,-1
 -72 -128 l 1,109,-1
 -73 -132 l 2,110,111
 -73 -139 -73 -139 -63 -139 c 2,112,-1
 58 -139 l 2,53,54
EndSplineSet
EndChar

StartChar: bar
Encoding: 124 124 38
Width: 381
GlyphClass: 1
Flags: W
LayerCount: 2
Fore
SplineSet
138 -196.980979322 m 6,0,1
 78.5489304389 -196.980979322 78.5489304389 -196.980979322 40.7839755582 -159.216024442 c 132,-1,2
 3.01902067757 -121.451069561 3.01902067757 -121.451069561 3.01902067757 -63 c 6,3,-1
 3.01902067757 763 l 6,4,5
 3.01902067757 821.451069561 3.01902067757 821.451069561 40.7839755582 859.216024442 c 132,-1,6
 78.5489304389 896.980979322 78.5489304389 896.980979322 138 896.980979322 c 6,7,-1
 282 896.980979322 l 6,8,9
 341.451069561 896.980979322 341.451069561 896.980979322 379.216024442 859.216024442 c 132,-1,10
 416.980979322 821.451069561 416.980979322 821.451069561 416.980979322 763 c 6,11,-1
 416.980979322 -63 l 6,12,13
 416.980979322 -121.451069561 416.980979322 -121.451069561 379.216024442 -159.216024442 c 132,-1,14
 341.451069561 -196.980979322 341.451069561 -196.980979322 282 -196.980979322 c 6,15,-1
 138 -196.980979322 l 6,0,1
282 -74 m 2,16,17
 289 -74 289 -74 290.5 -72 c 128,-1,18
 292 -70 292 -70 292 -63 c 2,19,-1
 292 763 l 2,20,21
 292 770 292 770 290.5 772 c 128,-1,22
 289 774 289 774 282 774 c 2,23,-1
 138 774 l 2,24,25
 131 774 131 774 129.5 772 c 128,-1,26
 128 770 128 770 128 763 c 2,27,-1
 128 -63 l 2,28,29
 128 -70 128 -70 129.5 -72 c 128,-1,30
 131 -74 131 -74 138 -74 c 2,31,-1
 282 -74 l 2,16,17
EndSplineSet
EndChar

StartChar: Scaron
Encoding: 166 352 39
Width: 381
GlyphClass: 1
Flags: W
LayerCount: 2
Fore
SplineSet
138 386 m 2,0,1
 100 386 100 386 100 423 c 2,2,-1
 100 763 l 2,3,4
 100 800 100 800 138 800 c 2,5,-1
 282 800 l 2,6,7
 320 800 320 800 320 763 c 2,8,-1
 320 423 l 2,9,10
 320 386 320 386 282 386 c 2,11,-1
 138 386 l 2,0,1
282 412 m 2,12,13
 289 412 289 412 290.5 413.5 c 128,-1,14
 292 415 292 415 292 423 c 2,15,-1
 292 763 l 2,16,17
 292 770 292 770 290.5 772 c 128,-1,18
 289 774 289 774 282 774 c 2,19,-1
 138 774 l 2,20,21
 131 774 131 774 129.5 772 c 128,-1,22
 128 770 128 770 128 763 c 2,23,-1
 128 423 l 2,24,25
 128 415 128 415 129.5 413.5 c 128,-1,26
 131 412 131 412 138 412 c 2,27,-1
 282 412 l 2,12,13
138 -100 m 2,28,29
 100 -100 100 -100 100 -63 c 2,30,-1
 100 277 l 2,31,32
 100 314 100 314 138 314 c 2,33,-1
 282 314 l 2,34,35
 320 314 320 314 320 277 c 2,36,-1
 320 -63 l 2,37,38
 320 -100 320 -100 282 -100 c 2,39,-1
 138 -100 l 2,28,29
282 -74 m 2,40,41
 289 -74 289 -74 290.5 -72 c 128,-1,42
 292 -70 292 -70 292 -63 c 2,43,-1
 292 277 l 2,44,45
 292 285 292 285 290.5 286.5 c 128,-1,46
 289 288 289 288 282 288 c 2,47,-1
 138 288 l 2,48,49
 131 288 131 288 129.5 286.5 c 128,-1,50
 128 285 128 285 128 277 c 2,51,-1
 128 -63 l 2,52,53
 128 -70 128 -70 129.5 -72 c 128,-1,54
 131 -74 131 -74 138 -74 c 2,55,-1
 282 -74 l 2,40,41
EndSplineSet
EndChar

StartChar: dagger
Encoding: 270 8224 40
Width: 681
GlyphClass: 1
Flags: W
LayerCount: 2
Fore
SplineSet
190 -100 m 2,0,1
 173 -100 173 -100 163.5 -92 c 128,-1,2
 154 -84 154 -84 154 -70 c 0,3,4
 154 -63 154 -63 155 -59 c 2,5,-1
 246 331 l 1,6,-1
 78 331 l 2,7,8
 61 331 61 331 51.5 339 c 128,-1,9
 42 347 42 347 42 361 c 0,10,11
 42 368 42 368 43 372 c 2,12,-1
 73 502 l 2,13,14
 80 536 80 536 115 536 c 2,15,-1
 293 536 l 1,16,-1
 322 667 l 2,17,18
 329 700 329 700 365 700 c 2,19,-1
 508 700 l 2,20,21
 525 700 525 700 534.5 692 c 128,-1,22
 544 684 544 684 544 670 c 0,23,24
 544 663 544 663 543 659 c 2,25,-1
 514 536 l 1,26,-1
 683 536 l 2,27,28
 718 536 718 536 718 507 c 0,29,30
 718 501 718 501 717 497 c 2,31,-1
 686 364 l 2,32,33
 679 331 679 331 644 331 c 2,34,-1
 466 331 l 1,35,-1
 376 -67 l 2,36,37
 369 -100 369 -100 334 -100 c 2,38,-1
 190 -100 l 2,0,1
334 -74 m 2,39,40
 341 -74 341 -74 343.5 -71.5 c 128,-1,41
 346 -69 346 -69 348 -61 c 2,42,-1
 444 357 l 1,43,-1
 644 357 l 2,44,45
 651 357 651 357 653.5 359 c 128,-1,46
 656 361 656 361 658 370 c 2,47,-1
 687 497 l 2,48,49
 688 500 688 500 688 504 c 0,50,51
 688 510 688 510 678 510 c 2,52,-1
 480 510 l 1,53,-1
 515 665 l 2,54,55
 516 667 516 667 516 670 c 0,56,57
 516 674 516 674 508 674 c 2,58,-1
 365 674 l 2,59,60
 358 674 358 674 355 671.5 c 128,-1,61
 352 669 352 669 350 661 c 2,62,-1
 315 510 l 1,63,-1
 115 510 l 2,64,65
 108 510 108 510 105.5 507.5 c 128,-1,66
 103 505 103 505 101 496 c 2,67,-1
 72 370 l 2,68,69
 71 367 71 367 71 363 c 0,70,71
 71 357 71 357 80 357 c 2,72,-1
 280 357 l 1,73,-1
 183 -65 l 2,74,75
 182 -67 182 -67 182 -70 c 0,76,77
 182 -74 182 -74 190 -74 c 2,78,-1
 334 -74 l 2,39,40
EndSplineSet
EndChar

StartChar: daggerdbl
Encoding: 271 8225 41
Width: 691
GlyphClass: 1
Flags: W
LayerCount: 2
Fore
SplineSet
193 -100 m 2,0,1
 177 -100 177 -100 167.5 -92.5 c 128,-1,2
 158 -85 158 -85 158 -71 c 0,3,4
 158 -67 158 -67 160 -59 c 2,5,-1
 189 64 l 1,6,-1
 26 64 l 2,7,8
 -6 64 -6 64 -6 92 c 0,9,10
 -6 96 -6 96 -4 106 c 2,11,-1
 25 229 l 2,12,13
 29 247 29 247 39.5 255 c 128,-1,14
 50 263 50 263 67 263 c 2,15,-1
 235 263 l 1,16,-1
 253 338 l 1,17,-1
 89 338 l 2,18,19
 57 338 57 338 57 365 c 0,20,21
 57 369 57 369 59 379 c 2,22,-1
 88 502 l 2,23,24
 95 536 95 536 130 536 c 2,25,-1
 297 536 l 1,26,-1
 327 667 l 2,27,28
 335 700 335 700 369 700 c 2,29,-1
 516 700 l 2,30,31
 532 700 532 700 540.5 692.5 c 128,-1,32
 549 685 549 685 549 672 c 0,33,34
 549 669 549 669 547 659 c 2,35,-1
 519 536 l 1,36,-1
 680 536 l 2,37,38
 712 536 712 536 712 508 c 0,39,40
 712 504 712 504 710 494 c 2,41,-1
 682 371 l 2,42,43
 678 354 678 354 669 346 c 128,-1,44
 660 338 660 338 643 338 c 2,45,-1
 474 338 l 1,46,-1
 457 263 l 1,47,-1
 616 263 l 2,48,49
 632 263 632 263 640.5 255.5 c 128,-1,50
 649 248 649 248 649 235 c 0,51,52
 649 232 649 232 647 222 c 2,53,-1
 619 98 l 2,54,55
 615 80 615 80 606 72 c 128,-1,56
 597 64 597 64 579 64 c 2,57,-1
 411 64 l 1,58,-1
 381 -67 l 2,59,60
 374 -100 374 -100 339 -100 c 2,61,-1
 193 -100 l 2,0,1
339 -74 m 2,62,63
 346 -74 346 -74 348.5 -71.5 c 128,-1,64
 351 -69 351 -69 353 -61 c 2,65,-1
 388 90 l 1,66,-1
 577 90 l 2,67,68
 584 90 584 90 586.5 92.5 c 128,-1,69
 589 95 589 95 591 104 c 2,70,-1
 619 226 l 1,71,-1
 620 231 l 2,72,73
 620 235 620 235 618 236 c 128,-1,74
 616 237 616 237 610 237 c 2,75,-1
 423 237 l 1,76,-1
 452 364 l 1,77,-1
 637 364 l 2,78,79
 646 364 646 364 649 366 c 128,-1,80
 652 368 652 368 654 377 c 2,81,-1
 682 498 l 2,82,83
 683 500 683 500 683 504 c 0,84,85
 683 510 683 510 673 510 c 2,86,-1
 484 510 l 1,87,-1
 520 665 l 2,88,89
 521 667 521 667 521 670 c 0,90,91
 521 674 521 674 513 674 c 2,92,-1
 369 674 l 2,93,94
 362 674 362 674 359.5 671.5 c 128,-1,95
 357 669 357 669 355 661 c 2,96,-1
 320 510 l 1,97,-1
 130 510 l 2,98,99
 123 510 123 510 120.5 507.5 c 128,-1,100
 118 505 118 505 116 496 c 2,101,-1
 88 375 l 1,102,-1
 87 369 l 2,103,104
 87 364 87 364 94 364 c 2,105,-1
 287 364 l 1,106,-1
 258 237 l 1,107,-1
 67 237 l 2,108,109
 60 237 60 237 57.5 235 c 128,-1,110
 55 233 55 233 53 223 c 2,111,-1
 24 100 l 2,112,113
 23 98 23 98 23 95 c 0,114,115
 23 90 23 90 31 90 c 2,116,-1
 224 90 l 1,117,-1
 188 -64 l 1,118,-1
 187 -70 l 2,119,120
 187 -74 187 -74 195 -74 c 2,121,-1
 339 -74 l 2,62,63
EndSplineSet
EndChar

StartChar: slash
Encoding: 47 47 42
Width: 403
GlyphClass: 1
Flags: W
LayerCount: 2
Fore
SplineSet
-70 -148.490489661 m 2,0,1
 -110.977655993 -148.490489661 -110.977655993 -148.490489661 -135.735450237 -123.732695416 c 0,2,3
 -157.490489661 -101.977655993 -157.490489661 -101.977655993 -157.490489661 -70 c 0,4,5
 -157.490489661 -49.510788453 -157.490489661 -49.510788453 -145.38287564 -25.2955604112 c 0,6,7
 -144.829854317 -24.1895177648 -144.829854317 -24.1895177648 87.1247142575 385.61358611 c 128,-1,8
 319.079282832 795.416689985 319.079282832 795.416689985 319.393685046 795.940741148 c 0,9,10
 333.398145389 819.281508387 333.398145389 819.281508387 350.764872603 832.078044229 c 0,11,12
 373.038905689 848.490489661 373.038905689 848.490489661 403 848.490489661 c 2,13,-1
 511 848.490489661 l 2,14,15
 551.348868114 848.490489661 551.348868114 848.490489661 576.255616388 823.583741388 c 0,16,17
 598.490489661 801.348868114 598.490489661 801.348868114 598.490489661 769 c 0,18,19
 598.490489661 744.798858518 598.490489661 744.798858518 586.220760543 723.113408247 c 2,20,-1
 123.283772626 -94.7749188943 l 2,21,22
 109.053628955 -120.072952088 109.053628955 -120.072952088 91.3625297668 -132.849857057 c 0,23,24
 69.7062692377 -148.490489661 69.7062692377 -148.490489661 39 -148.490489661 c 2,25,-1
 -70 -148.490489661 l 2,0,1
39 -74 m 2,26,27
 45 -74 45 -74 48 -71.5 c 128,-1,28
 51 -69 51 -69 57 -59 c 2,29,-1
 520 759 l 2,30,31
 523 765 523 765 523 768 c 0,32,33
 523 774 523 774 511 774 c 2,34,-1
 403 774 l 2,35,36
 397 774 397 774 393.5 771.5 c 128,-1,37
 390 769 390 769 385 759 c 2,38,-1
 -78 -59 l 2,39,40
 -81 -65 -81 -65 -81 -68 c 0,41,42
 -81 -74 -81 -74 -70 -74 c 2,43,-1
 39 -74 l 2,26,27
EndSplineSet
EndChar

StartChar: backslash
Encoding: 92 92 43
Width: 401
GlyphClass: 1
Flags: W
LayerCount: 2
Fore
SplineSet
214 -196.980979322 m 6,0,1
 163.998536641 -196.980979322 163.998536641 -196.980979322 126.914457202 -169.571007564 c 4,2,3
 96.3098501398 -146.950211039 96.3098501398 -146.950211039 83.2233958504 -111.557300575 c 4,4,5
 76.8844769827 -94.4134063642 76.8844769827 -94.4134063642 75.3798634 -75.4970355344 c 4,6,7
 -7.5347323734 743.659211865 -7.5347323734 743.659211865 -7.57986666186 744.155696099 c 4,8,9
 -13.8806849498 813.464697267 -13.8806849498 813.464697267 30.740503336 858.085885553 c 4,10,11
 69.6355971056 896.980979322 69.6355971056 896.980979322 130 896.980979322 c 6,12,-1
 223 896.980979322 l 6,13,14
 284.076524107 896.980979322 284.076524107 896.980979322 324.333159428 856.724344001 c 4,15,16
 357.605617249 823.45188618 357.605617249 823.45188618 361.598035877 775.715380027 c 4,17,18
 444.534732373 -43.6592118653 444.534732373 -43.6592118653 444.579866662 -44.1556960995 c 4,19,20
 450.88068495 -113.464697267 450.88068495 -113.464697267 406.259496664 -158.085885553 c 4,21,22
 367.364402894 -196.980979322 367.364402894 -196.980979322 307 -196.980979322 c 6,23,-1
 214 -196.980979322 l 6,0,1
307 -74 m 2,24,25
 316 -74 316 -74 318.5 -70 c 128,-1,26
 321 -66 321 -66 320 -55 c 2,27,-1
 237 763 l 2,28,29
 236 769 236 769 233 771.5 c 128,-1,30
 230 774 230 774 223 774 c 2,31,-1
 130 774 l 2,32,33
 121 774 121 774 118.5 770 c 128,-1,34
 116 766 116 766 117 755 c 2,35,-1
 200 -63 l 2,36,37
 201 -70 201 -70 203.5 -72 c 128,-1,38
 206 -74 206 -74 214 -74 c 2,39,-1
 307 -74 l 2,24,25
EndSplineSet
EndChar

StartChar: numbersign
Encoding: 35 35 44
Width: 847
GlyphClass: 1
Flags: W
LayerCount: 2
Fore
SplineSet
219 26 m 2,0,1
 225 26 225 26 227 28.5 c 128,-1,2
 229 31 229 31 233 41 c 2,3,-1
 279 166 l 1,4,-1
 470 166 l 1,5,-1
 420 35 l 2,6,7
 418 29 418 29 419 27.5 c 128,-1,8
 420 26 420 26 426 26 c 2,9,-1
 524 26 l 2,10,11
 529 26 529 26 532 29 c 128,-1,12
 535 32 535 32 539 41 c 2,13,-1
 585 166 l 1,14,-1
 733 166 l 2,15,16
 740 166 740 166 742.5 168 c 128,-1,17
 745 170 745 170 747 179 c 2,18,-1
 766 261 l 1,19,-1
 767 264 l 2,20,21
 767 270 767 270 755 270 c 2,22,-1
 623 270 l 1,23,-1
 683 430 l 1,24,-1
 811 430 l 2,25,26
 818 430 818 430 820 432 c 128,-1,27
 822 434 822 434 824 444 c 2,28,-1
 843 525 l 1,29,-1
 844 530 l 2,30,31
 844 533 844 533 841.5 533.5 c 128,-1,32
 839 534 839 534 834 534 c 2,33,-1
 722 534 l 1,34,-1
 772 667 l 2,35,36
 774 672 774 672 773 673 c 128,-1,37
 772 674 772 674 767 674 c 2,38,-1
 668 674 l 2,39,40
 662 674 662 674 659.5 671.5 c 128,-1,41
 657 669 657 669 653 660 c 2,42,-1
 607 534 l 1,43,-1
 416 534 l 1,44,-1
 466 666 l 2,45,46
 468 672 468 672 467.5 673 c 128,-1,47
 467 674 467 674 461 674 c 2,48,-1
 363 674 l 2,49,50
 357 674 357 674 354.5 671.5 c 128,-1,51
 352 669 352 669 348 660 c 2,52,-1
 302 534 l 1,53,-1
 154 534 l 2,54,55
 147 534 147 534 144.5 532 c 128,-1,56
 142 530 142 530 140 521 c 2,57,-1
 121 439 l 1,58,-1
 120 435 l 2,59,60
 120 430 120 430 130 430 c 2,61,-1
 263 430 l 1,62,-1
 203 270 l 1,63,-1
 76 270 l 2,64,65
 69 270 69 270 66.5 267.5 c 128,-1,66
 64 265 64 265 62 256 c 2,67,-1
 44 175 l 1,68,-1
 43 170 l 2,69,70
 43 167 43 167 45.5 166.5 c 128,-1,71
 48 166 48 166 53 166 c 2,72,-1
 165 166 l 1,73,-1
 115 34 l 2,74,75
 113 29 113 29 114 27.5 c 128,-1,76
 115 26 115 26 120 26 c 2,77,-1
 219 26 l 2,0,1
508 270 m 1,78,-1
 317 270 l 1,79,-1
 377 430 l 1,80,-1
 568 430 l 1,81,-1
 508 270 l 1,78,-1
120 -48.4904896612 m 2,82,83
 79.1384200217 -48.4904896612 79.1384200217 -48.4904896612 56.496760354 -25.8488299936 c 0,84,85
 36.5095103388 -5.86157997829 36.5095103388 -5.86157997829 36.5095103388 24 c 0,86,87
 36.5095103388 42.1705907232 36.5095103388 42.1705907232 43.5988465161 61.0757460571 c 2,88,89
 43.5988465161 61.0757460571 43.5988465161 61.0757460571 50.0944008422 78.39722426 c 2,90,91
 50.8462521683 80.4021611296 50.8462521683 80.4021611296 50.8462521683 83.1746897481 c 128,-1,92
 50.8462521683 85.9472183666 50.8462521683 85.9472183666 48.0266349194 88.7668356154 c 128,-1,93
 45.2070176705 91.5864528643 45.2070176705 91.5864528643 41.5470468155 91.8831164896 c 0,94,95
 9.26576369669 94.4997172379 9.26576369669 94.4997172379 -12.1123629823 115.877843917 c 128,-1,96
 -33.4904896612 137.255970596 -33.4904896612 137.255970596 -33.4904896612 170 c 0,97,98
 -33.4904896612 182.424508233 -33.4904896612 182.424508233 -31.2231988687 192.06095569 c 2,99,100
 -31.2231988687 192.06095569 -31.2231988687 192.06095569 -13.3905804474 272.310856885 c 2,101,102
 -7.36860605069 300.978816241 -7.36860605069 300.978816241 11.1121889584 319.45961125 c 0,103,104
 36.14306737 344.490489661 36.14306737 344.490489661 76 344.490489661 c 2,105,106
 76 344.490489661 76 344.490489661 83.8568508027 344.490489661 c 2,107,108
 84.3768604051 344.428927955 84.3768604051 344.428927955 84.8777265547 344.428927955 c 0,109,110
 88.3674851477 344.428927955 88.3674851477 344.428927955 91.4154688341 347.690961408 c 128,-1,111
 94.4634525205 350.952994861 94.4634525205 350.952994861 94.4634525205 354.488528767 c 128,-1,112
 94.4634525205 358.024062673 94.4634525205 358.024062673 92.0627018638 360.424813329 c 128,-1,113
 89.6619512071 362.825563986 89.6619512071 362.825563986 88.0498449538 363.569004307 c 0,114,115
 75.3310798582 369.434401076 75.3310798582 369.434401076 65.4555812581 379.309899676 c 0,116,117
 43.5095103388 401.255970596 43.5095103388 401.255970596 43.5095103388 434 c 0,118,119
 43.5095103388 446.624665719 43.5095103388 446.624665719 45.8395490966 456.320763319 c 0,120,121
 64.6619315777 537.554203501 64.6619315777 537.554203501 64.6920299534 537.688278193 c 0,122,123
 70.7094993389 565.380824327 70.7094993389 565.380824327 88.7593388496 583.430663838 c 0,124,125
 113.819164673 608.490489661 113.819164673 608.490489661 154 608.490489661 c 2,126,127
 154 608.490489661 154 608.490489661 241.013677008 608.490489661 c 2,128,129
 245.157773527 608.490489661 245.157773527 608.490489661 247.406583342 610.739299477 c 128,-1,130
 249.655393158 612.988109293 249.655393158 612.988109293 250.40921056 615.061095686 c 2,131,132
 250.40921056 615.061095686 250.40921056 615.061095686 276.475907355 686.744219467 c 2,133,134
 284.400766229 708.357470943 284.400766229 708.357470943 299.092659721 723.049364435 c 0,135,136
 324.533784947 748.490489661 324.533784947 748.490489661 363 748.490489661 c 2,137,138
 363 748.490489661 363 748.490489661 461 748.490489661 c 2,139,140
 503.040044584 748.490489661 503.040044584 748.490489661 525.031703109 726.498831137 c 0,141,142
 544.490489661 707.040044584 544.490489661 707.040044584 544.490489661 677 c 0,143,144
 544.490489661 660.413623632 544.490489661 660.413623632 537.514139912 641.228661822 c 0,145,146
 537.502958969 641.198070463 537.502958969 641.198070463 530.430815687 621.946596694 c 0,147,148
 529.706649174 619.975286979 529.706649174 619.975286979 529.706649174 617.215091659 c 128,-1,149
 529.706649174 614.454896339 529.706649174 614.454896339 532.744084558 611.417460955 c 128,-1,150
 535.671055852 608.490489661 535.671055852 608.490489661 539.81515237 608.490489661 c 2,151,152
 539.81515237 608.490489661 539.81515237 608.490489661 546.013677008 608.490489661 c 2,153,154
 550.157773527 608.490489661 550.157773527 608.490489661 552.406583342 610.739299477 c 128,-1,155
 554.655393158 612.988109293 554.655393158 612.988109293 555.40921056 615.061095686 c 2,156,157
 555.40921056 615.061095686 555.40921056 615.061095686 581.475907355 686.744219467 c 2,158,159
 589.400766229 708.357470943 589.400766229 708.357470943 604.092659721 723.049364435 c 0,160,161
 629.533784947 748.490489661 629.533784947 748.490489661 668 748.490489661 c 2,162,163
 668 748.490489661 668 748.490489661 767 748.490489661 c 2,164,165
 807.861579978 748.490489661 807.861579978 748.490489661 830.503239646 725.848829994 c 0,166,167
 850.490489661 705.861579978 850.490489661 705.861579978 850.490489661 676 c 0,168,169
 850.490489661 659.41224421 850.490489661 659.41224421 843.59081828 640.438147911 c 0,170,171
 843.568411051 640.377149976 843.568411051 640.377149976 836.701487056 621.871576195 c 0,172,173
 835.963942234 619.883911733 835.963942234 619.883911733 835.963942234 617.117725614 c 128,-1,174
 835.963942234 614.351539496 835.963942234 614.351539496 838.860895994 611.454585736 c 128,-1,175
 841.757849754 608.557631976 841.757849754 608.557631976 845.651307146 608.393898514 c 0,176,177
 878.649828846 607.006195596 878.649828846 607.006195596 900.156473817 585.499550625 c 128,-1,178
 921.490489661 564.165534781 921.490489661 564.165534781 921.490489661 531 c 0,179,180
 921.490489661 526.958478214 921.490489661 526.958478214 920.028149727 518.184438612 c 128,-1,181
 918.565809794 509.410399009 918.565809794 509.410399009 918.204839828 507.871527049 c 2,182,183
 918.204839828 507.871527049 918.204839828 507.871527049 898.715758849 424.961001292 c 2,184,185
 890.887710411 396.780026914 890.887710411 396.780026914 873.101356897 378.9936734 c 0,186,187
 849.617193835 355.509510339 849.617193835 355.509510339 811 355.509510339 c 2,188,189
 811 355.509510339 811 355.509510339 806.428784709 355.509510339 c 2,190,191
 805.872924791 355.571072045 805.872924791 355.571072045 805.345207522 355.571072045 c 0,192,193
 801.668365169 355.571072045 801.668365169 355.571072045 799.357716898 352.582539045 c 0,194,195
 795.822182992 349.047005139 795.822182992 349.047005139 795.822182992 345.511471233 c 128,-1,196
 795.822182992 341.975937327 795.822182992 341.975937327 798.197004663 339.601115656 c 128,-1,197
 800.571826335 337.226293984 800.571826335 337.226293984 802.107269112 336.491383559 c 0,198,199
 813.725472557 330.930551885 813.725472557 330.930551885 822.890234443 321.765789999 c 0,200,201
 844.490489661 300.165534781 844.490489661 300.165534781 844.490489661 267 c 0,202,203
 844.490489661 257.179359225 844.490489661 257.179359225 841.130818735 243.55135048 c 2,204,205
 841.130818735 243.55135048 841.130818735 243.55135048 822.307970047 162.311721807 c 2,206,207
 816.290500661 134.619175673 816.290500661 134.619175673 798.24066115 116.569336162 c 0,208,209
 773.180835327 91.5095103388 773.180835327 91.5095103388 733 91.5095103388 c 2,210,211
 733 91.5095103388 733 91.5095103388 645.858434959 91.5095103388 c 2,212,213
 645.374160043 91.571072045 645.374160043 91.571072045 643.485470104 91.571072045 c 128,-1,214
 641.596780166 91.571072045 641.596780166 91.571072045 639.412172377 89.2969042656 c 128,-1,215
 637.227564588 87.0227364862 637.227564588 87.0227364862 636.472948011 84.966406313 c 2,216,217
 636.472948011 84.966406313 636.472948011 84.966406313 610.482344431 14.1420115588 c 2,218,219
 602.650831621 -7.93777186824 602.650831621 -7.93777186824 587.454678888 -23.1346788875 c 0,220,221
 562.098868114 -48.4904896612 562.098868114 -48.4904896612 524 -48.4904896612 c 2,222,223
 524 -48.4904896612 524 -48.4904896612 426 -48.4904896612 c 2,224,225
 383.935030191 -48.4904896612 383.935030191 -48.4904896612 361.176162825 -25.7316222946 c 0,226,227
 341.509510339 -6.0649698088 341.509510339 -6.0649698088 341.509510339 23 c 0,228,229
 341.509510339 40.5877557206 341.509510339 40.5877557206 348.409182989 59.5618555098 c 0,230,231
 348.431588952 59.6228500309 348.431588952 59.6228500309 355.259364468 78.0229404136 c 0,232,233
 355.996907781 80.010603041 355.996907781 80.010603041 355.996907781 82.7767884869 c 128,-1,234
 355.996907781 85.5429739328 355.996907781 85.5429739328 352.957342668 88.5825390452 c 128,-1,235
 350.030371375 91.5095103388 350.030371375 91.5095103388 345.886274857 91.5095103388 c 2,236,237
 345.886274857 91.5095103388 345.886274857 91.5095103388 339.858434959 91.5095103388 c 2,238,239
 339.374160043 91.571072045 339.374160043 91.571072045 337.485470104 91.571072045 c 128,-1,240
 335.596780166 91.571072045 335.596780166 91.571072045 333.412172377 89.2969042656 c 128,-1,241
 331.227564588 87.0227364862 331.227564588 87.0227364862 330.472948011 84.966406313 c 2,242,243
 330.472948011 84.966406313 330.472948011 84.966406313 304.40251405 13.9237546528 c 2,244,245
 295.851385411 -8.87925504906 295.851385411 -8.87925504906 280.388854871 -24.3417855893 c 0,246,247
 256.240150799 -48.4904896612 256.240150799 -48.4904896612 219 -48.4904896612 c 2,248,249
 219 -48.4904896612 219 -48.4904896612 120 -48.4904896612 c 2,82,83
EndSplineSet
EndChar

StartChar: uni2116
Encoding: 272 8470 45
Width: 1393
GlyphClass: 1
Flags: W
LayerCount: 2
Fore
SplineSet
938 700 m 2,0,1
 954 700 954 700 963.5 692.5 c 128,-1,2
 973 685 973 685 973 671 c 0,3,4
 973 667 973 667 971 659 c 2,5,-1
 827 33 l 2,6,7
 820 0 820 0 785 0 c 2,8,-1
 581 0 l 2,9,10
 542 0 542 0 530 26 c 2,11,-1
 354 425 l 1,12,-1
 263 33 l 2,13,14
 259 16 259 16 250 8 c 128,-1,15
 241 0 241 0 224 0 c 2,16,-1
 62 0 l 2,17,18
 46 0 46 0 36.5 7.5 c 128,-1,19
 27 15 27 15 27 29 c 0,20,21
 27 33 27 33 29 41 c 2,22,-1
 173 667 l 2,23,24
 181 700 181 700 215 700 c 2,25,-1
 422 700 l 2,26,27
 462 700 462 700 472 675 c 2,28,-1
 647 281 l 1,29,-1
 737 667 l 2,30,31
 741 684 741 684 750 692 c 128,-1,32
 759 700 759 700 776 700 c 2,33,-1
 938 700 l 2,0,1
944 665 m 2,34,35
 945 667 945 667 945 671 c 0,36,37
 945 673 945 673 942.5 673.5 c 128,-1,38
 940 674 940 674 936 674 c 2,39,-1
 778 674 l 2,40,41
 771 674 771 674 768.5 671.5 c 128,-1,42
 766 669 766 669 764 661 c 2,43,-1
 666 237 l 1,44,-1
 636 237 l 1,45,-1
 447 663 l 2,46,47
 443 674 443 674 422 674 c 2,48,-1
 215 674 l 2,49,50
 208 674 208 674 205 671.5 c 128,-1,51
 202 669 202 669 200 661 c 2,52,-1
 56 35 l 1,53,-1
 55 31 l 2,54,55
 55 26 55 26 65 26 c 2,56,-1
 222 26 l 2,57,58
 229 26 229 26 231.5 28.5 c 128,-1,59
 234 31 234 31 236 39 c 2,60,-1
 335 466 l 1,61,-1
 366 466 l 1,62,-1
 555 38 l 2,63,64
 560 26 560 26 581 26 c 2,65,-1
 785 26 l 2,66,67
 792 26 792 26 795 28.5 c 128,-1,68
 798 31 798 31 800 39 c 2,69,-1
 944 665 l 2,34,35
1271 546 m 2,70,71
 1329 546 1329 546 1360.5 519.5 c 128,-1,72
 1392 493 1392 493 1392 446 c 0,73,74
 1392 427 1392 427 1388 410 c 2,75,-1
 1360 286 l 2,76,77
 1336 180 1336 180 1227 180 c 2,78,-1
 1066 180 l 2,79,80
 1008 180 1008 180 976.5 206 c 128,-1,81
 945 232 945 232 945 280 c 0,82,83
 945 300 945 300 949 317 c 2,84,-1
 977 440 l 2,85,86
 1001 546 1001 546 1110 546 c 2,87,-1
 1271 546 l 2,70,71
1360 416 m 2,88,89
 1364 438 1364 438 1364 447 c 0,90,91
 1364 483 1364 483 1340.5 501.5 c 128,-1,92
 1317 520 1317 520 1271 520 c 2,93,-1
 1110 520 l 2,94,95
 1066 520 1066 520 1040.5 499 c 128,-1,96
 1015 478 1015 478 1005 434 c 2,97,-1
 977 311 l 2,98,99
 973 296 973 296 973 280 c 0,100,101
 973 244 973 244 996.5 225 c 128,-1,102
 1020 206 1020 206 1066 206 c 2,103,-1
 1227 206 l 2,104,105
 1272 206 1272 206 1297 227 c 128,-1,106
 1322 248 1322 248 1332 292 c 2,107,-1
 1360 416 l 2,88,89
1214 430 m 2,108,109
 1258 430 1258 430 1258 396 c 0,110,111
 1258 385 1258 385 1256 379 c 2,112,-1
 1245 332 l 2,113,114
 1240 312 1240 312 1230.5 304 c 128,-1,115
 1221 296 1221 296 1202 296 c 2,116,-1
 1125 296 l 2,117,118
 1103 296 1103 296 1091 305.5 c 128,-1,119
 1079 315 1079 315 1079 332 c 0,120,121
 1079 336 1079 336 1081 348 c 2,122,-1
 1091 391 l 2,123,124
 1100 430 1100 430 1138 430 c 2,125,-1
 1214 430 l 2,108,109
1228 385 m 2,126,127
 1230 393 1230 393 1230 395 c 0,128,129
 1230 400 1230 400 1226 402 c 128,-1,130
 1222 404 1222 404 1211 404 c 2,131,-1
 1138 404 l 2,132,133
 1130 404 1130 404 1126 400 c 128,-1,134
 1122 396 1122 396 1119 385 c 2,135,-1
 1109 343 l 2,136,137
 1107 333 1107 333 1107 332 c 0,138,139
 1107 326 1107 326 1111 324 c 128,-1,140
 1115 322 1115 322 1125 322 c 2,141,-1
 1199 322 l 2,142,143
 1208 322 1208 322 1211 325 c 128,-1,144
 1214 328 1214 328 1217 339 c 2,145,-1
 1228 385 l 2,126,127
1277 147 m 2,146,147
 1294 147 1294 147 1303 139.5 c 128,-1,148
 1312 132 1312 132 1312 118 c 0,149,150
 1312 114 1312 114 1310 106 c 2,151,-1
 1293 33 l 2,152,153
 1286 0 1286 0 1251 0 c 2,154,-1
 930 0 l 2,155,156
 913 0 913 0 903.5 8 c 128,-1,157
 894 16 894 16 894 30 c 0,158,159
 894 37 894 37 895 41 c 2,160,-1
 913 117 l 2,161,162
 917 132 917 132 926 139.5 c 128,-1,163
 935 147 935 147 953 147 c 2,164,-1
 1277 147 l 2,146,147
1282 112 m 1,165,-1
 1283 117 l 2,166,167
 1283 121 1283 121 1274 121 c 2,168,-1
 954 121 l 2,169,170
 947 121 947 121 944.5 119 c 128,-1,171
 942 117 942 117 940 108 c 2,172,-1
 923 35 l 1,173,-1
 922 30 l 2,174,175
 922 26 922 26 931 26 c 2,176,-1
 1251 26 l 2,177,178
 1258 26 1258 26 1260.5 28.5 c 128,-1,179
 1263 31 1263 31 1265 39 c 2,180,-1
 1282 112 l 1,165,-1
EndSplineSet
EndChar

StartChar: ampersand
Encoding: 38 38 46
Width: 899
GlyphClass: 1
Flags: W
LayerCount: 2
Fore
SplineSet
879 59 m 2,0,1
 890 48 890 48 890 33 c 0,2,3
 890 19 890 19 880 9.5 c 128,-1,4
 870 0 870 0 854 0 c 2,5,-1
 758 0 l 2,6,7
 722 0 722 0 706 19 c 2,8,-1
 670 58 l 1,9,10
 650 23 650 23 624 10 c 128,-1,11
 598 -3 598 -3 550 -3 c 2,12,-1
 178 -3 l 2,13,14
 104 -3 104 -3 65 30.5 c 128,-1,15
 26 64 26 64 26 125 c 0,16,17
 26 150 26 150 32 178 c 2,18,-1
 65 321 l 2,19,20
 96 459 96 459 223 459 c 2,21,-1
 282 459 l 1,22,-1
 185 557 l 2,23,24
 170 572 170 572 170 592 c 0,25,26
 170 596 170 596 172 606 c 2,27,-1
 186 667 l 2,28,29
 194 700 194 700 228 700 c 2,30,-1
 821 700 l 2,31,32
 838 700 838 700 847.5 692 c 128,-1,33
 857 684 857 684 857 670 c 0,34,35
 857 663 857 663 856 659 c 2,36,-1
 835 567 l 2,37,38
 828 534 828 534 793 534 c 2,39,-1
 429 534 l 1,40,-1
 594 368 l 1,41,-1
 612 448 l 2,42,43
 616 466 616 466 626 474 c 128,-1,44
 636 482 636 482 654 482 c 2,45,-1
 764 482 l 2,46,47
 781 482 781 482 790.5 474 c 128,-1,48
 800 466 800 466 800 452 c 0,49,50
 800 445 800 445 799 441 c 2,51,-1
 744 207 l 1,52,-1
 879 59 l 2,0,1
854 26 m 2,53,54
 860 26 860 26 862 31.5 c 128,-1,55
 864 37 864 37 859 41 c 2,56,-1
 714 199 l 1,57,-1
 771 447 l 1,58,-1
 772 453 l 2,59,60
 772 455 772 455 770 455.5 c 128,-1,61
 768 456 768 456 764 456 c 2,62,-1
 654 456 l 2,63,64
 646 456 646 456 643.5 454 c 128,-1,65
 641 452 641 452 639 444 c 2,66,-1
 614 335 l 1,67,-1
 588 335 l 1,68,-1
 387 538 l 1,69,-1
 395 560 l 1,70,-1
 793 560 l 2,71,72
 800 560 800 560 803.5 562.5 c 128,-1,73
 807 565 807 565 808 573 c 2,74,-1
 829 665 l 1,75,-1
 830 670 l 2,76,77
 830 674 830 674 821 674 c 2,78,-1
 228 674 l 2,79,80
 221 674 221 674 218 671.5 c 128,-1,81
 215 669 215 669 213 661 c 2,82,-1
 199 600 l 2,83,84
 198 596 198 596 198 591 c 0,85,86
 198 582 198 582 205 575 c 2,87,-1
 320 459 l 1,88,-1
 312 433 l 1,89,-1
 223 433 l 2,90,91
 169 433 169 433 137.5 405 c 128,-1,92
 106 377 106 377 92 315 c 2,93,-1
 59 172 l 2,94,95
 53 147 53 147 53 125 c 0,96,97
 53 23 53 23 178 23 c 2,98,-1
 550 23 l 2,99,100
 595 23 595 23 615 35.5 c 128,-1,101
 635 48 635 48 655 87 c 1,102,-1
 680 87 l 1,103,-1
 726 37 l 2,104,105
 737 26 737 26 758 26 c 2,106,-1
 854 26 l 2,53,54
438 339 m 1,107,-1
 570 206 l 1,108,-1
 563 174 l 2,109,110
 559 153 559 153 548 145.5 c 128,-1,111
 537 138 537 138 513 138 c 2,112,-1
 255 138 l 2,113,114
 203 138 203 138 203 178 c 0,115,116
 203 190 203 190 205 197 c 2,117,-1
 227 293 l 2,118,119
 233 318 233 318 245.5 328.5 c 128,-1,120
 258 339 258 339 283 339 c 2,121,-1
 438 339 l 1,107,-1
540 198 m 1,122,-1
 426 313 l 1,123,-1
 283 313 l 2,124,125
 268 313 268 313 263 308.5 c 128,-1,126
 258 304 258 304 254 287 c 2,127,-1
 232 191 l 2,128,129
 230 179 230 179 230 177 c 0,130,131
 230 169 230 169 235.5 166.5 c 128,-1,132
 241 164 241 164 255 164 c 2,133,-1
 511 164 l 2,134,135
 526 164 526 164 529.5 166 c 128,-1,136
 533 168 533 168 536 180 c 2,137,-1
 540 198 l 1,122,-1
EndSplineSet
EndChar

StartChar: section
Encoding: 167 167 47
Width: 820
GlyphClass: 1
Flags: W
LayerCount: 2
Fore
SplineSet
173 -125 m 2,0,1
 108 -125 108 -125 72.5 -98.5 c 128,-1,2
 37 -72 37 -72 37 -23 c 0,3,4
 37 -6 37 -6 42 17 c 2,5,-1
 49 46 l 2,6,7
 58 80 58 80 93 80 c 2,8,-1
 237 80 l 2,9,10
 269 80 269 80 269 59 c 0,11,12
 269 54 269 54 268 51 c 2,13,-1
 265 39 l 1,14,-1
 264 36 l 2,15,16
 264 30 264 30 277 30 c 2,17,-1
 459 30 l 2,18,19
 467 30 467 30 470.5 33 c 128,-1,20
 474 36 474 36 476 45 c 2,21,-1
 487 91 l 2,22,23
 488 94 488 94 488 98 c 0,24,25
 488 105 488 105 473 105 c 2,26,-1
 162 105 l 2,27,28
 98 105 98 105 64.5 130.5 c 128,-1,29
 31 156 31 156 31 206 c 0,30,31
 31 223 31 223 36 248 c 2,32,-1
 60 352 l 2,33,34
 72 405 72 405 96.5 431 c 128,-1,35
 121 457 121 457 165 462 c 1,36,37
 150 477 150 477 150 504 c 0,38,39
 150 517 150 517 155 540 c 2,40,-1
 166 589 l 2,41,42
 179 647 179 647 212 675 c 128,-1,43
 245 703 245 703 302 703 c 2,44,-1
 661 703 l 2,45,46
 726 703 726 703 761.5 676 c 128,-1,47
 797 649 797 649 797 600 c 0,48,49
 797 583 797 583 792 560 c 2,50,-1
 785 531 l 2,51,52
 780 513 780 513 772 505.5 c 128,-1,53
 764 498 764 498 747 498 c 2,54,-1
 595 498 l 2,55,56
 559 498 559 498 566 531 c 2,57,-1
 568 540 l 1,58,-1
 568 543 l 2,59,60
 568 548 568 548 561 548 c 2,61,-1
 374 548 l 2,62,63
 368 548 368 548 364.5 545 c 128,-1,64
 361 542 361 542 359 533 c 2,65,-1
 349 487 l 1,66,-1
 348 481 l 2,67,68
 348 477 348 477 351.5 475 c 128,-1,69
 355 473 355 473 363 473 c 2,70,-1
 671 473 l 2,71,72
 735 473 735 473 769 446.5 c 128,-1,73
 803 420 803 420 803 370 c 0,74,75
 803 347 803 347 798 328 c 2,76,-1
 774 226 l 2,77,78
 761 173 761 173 737.5 147 c 128,-1,79
 714 121 714 121 672 116 c 1,80,81
 684 101 684 101 684 77 c 0,82,83
 684 63 684 63 679 38 c 2,84,-1
 668 -12 l 2,85,86
 655 -69 655 -69 622 -97 c 128,-1,87
 589 -125 589 -125 532 -125 c 2,88,-1
 173 -125 l 2,0,1
532 -99 m 2,89,90
 578 -99 578 -99 603.5 -77 c 128,-1,91
 629 -55 629 -55 640 -6 c 2,92,-1
 651 44 l 2,93,94
 655 61 655 61 655 75 c 256,95,96
 655 89 655 89 649.5 97.5 c 128,-1,97
 644 106 644 106 632 114 c 1,98,-1
 638 140 l 1,99,100
 689 141 689 141 711.5 160.5 c 128,-1,101
 734 180 734 180 746 232 c 2,102,-1
 770 334 l 2,103,104
 775 357 775 357 775 371 c 0,105,106
 775 447 775 447 671 447 c 2,107,-1
 360 447 l 2,108,109
 340 447 340 447 330 456 c 128,-1,110
 320 465 320 465 320 481 c 0,111,112
 320 489 320 489 321 493 c 2,113,-1
 331 539 l 2,114,115
 335 556 335 556 346 565 c 128,-1,116
 357 574 357 574 374 574 c 2,117,-1
 567 574 l 2,118,119
 597 574 597 574 597 548 c 0,120,121
 597 541 597 541 596 538 c 2,122,-1
 595 533 l 1,123,-1
 595 530 l 2,124,125
 595 524 595 524 602 524 c 2,126,-1
 739 524 l 2,127,128
 748 524 748 524 751.5 526 c 128,-1,129
 755 528 755 528 757 537 c 2,130,-1
 764 566 l 2,131,132
 769 588 769 588 769 601 c 0,133,134
 769 677 769 677 661 677 c 2,135,-1
 302 677 l 2,136,137
 256 677 256 677 230.5 655 c 128,-1,138
 205 633 205 633 194 583 c 2,139,-1
 183 534 l 2,140,141
 179 518 179 518 179 504 c 0,142,143
 179 491 179 491 185 482 c 128,-1,144
 191 473 191 473 204 465 c 1,145,-1
 198 437 l 1,146,147
 146 437 146 437 123 417.5 c 128,-1,148
 100 398 100 398 88 346 c 2,149,-1
 64 242 l 2,150,151
 59 219 59 219 59 205 c 0,152,153
 59 131 59 131 162 131 c 2,154,-1
 479 131 l 2,155,156
 496 131 496 131 506 123 c 128,-1,157
 516 115 516 115 516 100 c 0,158,159
 516 97 516 97 514 85 c 2,160,-1
 503 39 l 2,161,162
 495 4 495 4 459 4 c 2,163,-1
 266 4 l 2,164,165
 251 4 251 4 243 10 c 128,-1,166
 235 16 235 16 235 27 c 0,167,168
 235 32 235 32 236 35 c 2,169,-1
 239 47 l 1,170,-1
 240 50 l 2,171,172
 240 54 240 54 230 54 c 2,173,-1
 93 54 l 2,174,175
 85 54 85 54 81.5 51.5 c 128,-1,176
 78 49 78 49 77 42 c 2,177,-1
 70 13 l 2,178,179
 66 -3 66 -3 66 -21 c 0,180,181
 66 -99 66 -99 173 -99 c 2,182,-1
 532 -99 l 2,89,90
255 212 m 2,183,184
 236 212 236 212 226 220 c 128,-1,185
 216 228 216 228 216 242 c 0,186,187
 216 249 216 249 217 253 c 2,188,-1
 235 330 l 2,189,190
 244 366 244 366 278 366 c 2,191,-1
 578 366 l 2,192,193
 618 366 618 366 618 333 c 0,194,195
 618 328 618 328 616 318 c 2,196,-1
 599 248 l 2,197,198
 590 212 590 212 556 212 c 2,199,-1
 255 212 l 2,183,184
556 238 m 2,200,201
 563 238 563 238 566 241 c 128,-1,202
 569 244 569 244 571 254 c 2,203,-1
 588 324 l 2,204,205
 589 327 589 327 589 331 c 0,206,207
 589 336 589 336 585.5 338 c 128,-1,208
 582 340 582 340 574 340 c 2,209,-1
 278 340 l 2,210,211
 271 340 271 340 268 337 c 128,-1,212
 265 334 265 334 263 324 c 2,213,-1
 247 254 l 2,214,215
 246 251 246 251 246 246 c 0,216,217
 246 238 246 238 260 238 c 2,218,-1
 556 238 l 2,200,201
EndSplineSet
EndChar

StartChar: paragraph
Encoding: 182 182 48
Width: 720
GlyphClass: 1
Flags: W
LayerCount: 2
Fore
SplineSet
173 -130 m 2,0,1
 134 -130 134 -130 134 -93 c 2,2,-1
 134 -4 l 2,3,4
 134 35 134 35 173 35 c 2,5,-1
 262 35 l 1,6,-1
 262 296 l 1,7,-1
 228 296 l 2,8,9
 153 296 153 296 112 336.5 c 128,-1,10
 71 377 71 377 71 452 c 2,11,-1
 71 546 l 2,12,13
 71 620 71 620 111.5 660 c 128,-1,14
 152 700 152 700 228 700 c 2,15,-1
 641 700 l 2,16,17
 680 700 680 700 680 663 c 2,18,-1
 680 38 l 2,19,20
 680 -47 680 -47 638.5 -88.5 c 128,-1,21
 597 -130 597 -130 511 -130 c 2,22,-1
 173 -130 l 2,0,1
511 -104 m 2,23,24
 585 -104 585 -104 618.5 -70 c 128,-1,25
 652 -36 652 -36 652 38 c 2,26,-1
 652 663 l 2,27,28
 652 671 652 671 650.5 672.5 c 128,-1,29
 649 674 649 674 641 674 c 2,30,-1
 228 674 l 2,31,32
 99 674 99 674 99 546 c 2,33,-1
 99 452 l 2,34,35
 99 388 99 388 131.5 355 c 128,-1,36
 164 322 164 322 228 322 c 2,37,-1
 290 322 l 1,38,-1
 290 9 l 1,39,-1
 173 9 l 2,40,41
 165 9 165 9 163.5 7 c 128,-1,42
 162 5 162 5 162 -4 c 2,43,-1
 162 -93 l 2,44,45
 162 -101 162 -101 164 -102.5 c 128,-1,46
 166 -104 166 -104 173 -104 c 2,47,-1
 511 -104 l 2,23,24
405 9 m 1,48,-1
 405 562 l 1,49,-1
 536 562 l 1,50,-1
 536 62 l 2,51,52
 536 34 536 34 523 21.5 c 128,-1,53
 510 9 510 9 481 9 c 2,54,-1
 405 9 l 1,48,-1
481 35 m 2,55,56
 498 35 498 35 503 39.5 c 128,-1,57
 508 44 508 44 508 62 c 2,58,-1
 508 536 l 1,59,-1
 433 536 l 1,60,-1
 433 35 l 1,61,-1
 481 35 l 2,55,56
EndSplineSet
EndChar

StartChar: copyright
Encoding: 169 169 49
Width: 985
GlyphClass: 1
Flags: W
LayerCount: 2
Fore
SplineSet
259 0 m 2,0,1
 174 0 174 0 136 37.5 c 128,-1,2
 98 75 98 75 98 160 c 2,3,-1
 98 541 l 2,4,5
 98 626 98 626 135.5 663 c 128,-1,6
 173 700 173 700 259 700 c 2,7,-1
 769 700 l 2,8,9
 855 700 855 700 893 663 c 128,-1,10
 931 626 931 626 931 541 c 2,11,-1
 931 160 l 2,12,13
 931 75 931 75 893 37.5 c 128,-1,14
 855 0 855 0 769 0 c 2,15,-1
 259 0 l 2,0,1
769 26 m 2,16,17
 843 26 843 26 873 56.5 c 128,-1,18
 903 87 903 87 903 160 c 2,19,-1
 903 541 l 2,20,21
 903 615 903 615 873 644.5 c 128,-1,22
 843 674 843 674 769 674 c 2,23,-1
 259 674 l 2,24,25
 186 674 186 674 156 644.5 c 128,-1,26
 126 615 126 615 126 541 c 2,27,-1
 126 160 l 2,28,29
 126 86 126 86 155.5 56 c 128,-1,30
 185 26 185 26 259 26 c 2,31,-1
 769 26 l 2,16,17
291 99 m 2,32,33
 253 99 253 99 231 120.5 c 128,-1,34
 209 142 209 142 209 180 c 2,35,-1
 209 521 l 2,36,37
 209 558 209 558 231 579.5 c 128,-1,38
 253 601 253 601 291 601 c 2,39,-1
 738 601 l 2,40,41
 776 601 776 601 798 579.5 c 128,-1,42
 820 558 820 558 820 521 c 2,43,-1
 820 180 l 2,44,45
 820 142 820 142 798 120.5 c 128,-1,46
 776 99 776 99 738 99 c 2,47,-1
 291 99 l 2,32,33
738 125 m 2,48,49
 764 125 764 125 778 139 c 128,-1,50
 792 153 792 153 792 180 c 2,51,-1
 792 521 l 2,52,53
 792 547 792 547 778 561 c 128,-1,54
 764 575 764 575 738 575 c 2,55,-1
 291 575 l 2,56,57
 265 575 265 575 251 561 c 128,-1,58
 237 547 237 547 237 521 c 2,59,-1
 237 180 l 2,60,61
 237 153 237 153 251 139 c 128,-1,62
 265 125 265 125 291 125 c 2,63,-1
 738 125 l 2,48,49
434 159 m 2,64,65
 370 159 370 159 342 186.5 c 128,-1,66
 314 214 314 214 314 278 c 2,67,-1
 314 433 l 2,68,69
 314 489 314 489 341 515.5 c 128,-1,70
 368 542 368 542 424 542 c 2,71,-1
 606 542 l 2,72,73
 670 542 670 542 697.5 513.5 c 128,-1,74
 725 485 725 485 725 420 c 2,75,-1
 725 401 l 2,76,77
 725 383 725 383 715 373.5 c 128,-1,78
 705 364 705 364 687 364 c 2,79,-1
 622 364 l 2,80,81
 605 364 605 364 596 374 c 128,-1,82
 587 384 587 384 587 401 c 2,83,-1
 587 410 l 2,84,85
 587 416 587 416 582 419 c 128,-1,86
 577 422 577 422 563 422 c 2,87,-1
 474 422 l 2,88,89
 459 422 459 422 454.5 417.5 c 128,-1,90
 450 413 450 413 450 398 c 2,91,-1
 450 303 l 2,92,93
 450 287 450 287 454.5 282.5 c 128,-1,94
 459 278 459 278 474 278 c 2,95,-1
 563 278 l 2,96,97
 577 278 577 278 582 281 c 128,-1,98
 587 284 587 284 587 290 c 2,99,-1
 587 297 l 2,100,101
 587 314 587 314 596 324 c 128,-1,102
 605 334 605 334 622 334 c 2,103,-1
 687 334 l 2,104,105
 705 334 705 334 715 324.5 c 128,-1,106
 725 315 725 315 725 297 c 2,107,-1
 725 278 l 2,108,109
 725 214 725 214 697.5 186.5 c 128,-1,110
 670 159 670 159 606 159 c 2,111,-1
 434 159 l 2,64,65
606 185 m 2,112,113
 658 185 658 185 677.5 205 c 128,-1,114
 697 225 697 225 697 278 c 2,115,-1
 697 297 l 2,116,117
 697 304 697 304 695 306 c 128,-1,118
 693 308 693 308 687 308 c 2,119,-1
 622 308 l 2,120,121
 617 308 617 308 616 306 c 128,-1,122
 615 304 615 304 615 297 c 2,123,-1
 615 290 l 2,124,125
 615 271 615 271 601.5 261.5 c 128,-1,126
 588 252 588 252 563 252 c 2,127,-1
 474 252 l 2,128,129
 447 252 447 252 434.5 264.5 c 128,-1,130
 422 277 422 277 422 303 c 2,131,-1
 422 398 l 2,132,133
 422 424 422 424 434.5 436 c 128,-1,134
 447 448 447 448 474 448 c 2,135,-1
 563 448 l 2,136,137
 588 448 588 448 601.5 438.5 c 128,-1,138
 615 429 615 429 615 410 c 2,139,-1
 615 401 l 2,140,141
 615 394 615 394 616 392 c 128,-1,142
 617 390 617 390 622 390 c 2,143,-1
 687 390 l 2,144,145
 693 390 693 390 695 392 c 128,-1,146
 697 394 697 394 697 401 c 2,147,-1
 697 420 l 2,148,149
 697 475 697 475 677.5 495.5 c 128,-1,150
 658 516 658 516 606 516 c 2,151,-1
 424 516 l 2,152,153
 379 516 379 516 360.5 497 c 128,-1,154
 342 478 342 478 342 433 c 2,155,-1
 342 278 l 2,156,157
 342 225 342 225 361.5 205 c 128,-1,158
 381 185 381 185 434 185 c 2,159,-1
 606 185 l 2,112,113
EndSplineSet
EndChar

StartChar: registered
Encoding: 174 174 50
Width: 574
GlyphClass: 1
Flags: W
LayerCount: 2
Fore
SplineSet
198 300 m 2,0,1
 139 300 139 300 113 323.5 c 128,-1,2
 87 347 87 347 87 400 c 2,3,-1
 87 600 l 2,4,5
 87 653 87 653 113 676.5 c 128,-1,6
 139 700 139 700 198 700 c 2,7,-1
 476 700 l 2,8,9
 535 700 535 700 561 676.5 c 128,-1,10
 587 653 587 653 587 600 c 2,11,-1
 587 400 l 2,12,13
 587 347 587 347 561 323.5 c 128,-1,14
 535 300 535 300 476 300 c 2,15,-1
 198 300 l 2,0,1
476 320 m 2,16,17
 525 320 525 320 545 338 c 128,-1,18
 565 356 565 356 565 400 c 2,19,-1
 565 600 l 2,20,21
 565 644 565 644 545 662 c 128,-1,22
 525 680 525 680 476 680 c 2,23,-1
 198 680 l 2,24,25
 149 680 149 680 129 662 c 128,-1,26
 109 644 109 644 109 600 c 2,27,-1
 109 400 l 2,28,29
 109 356 109 356 129 338 c 128,-1,30
 149 320 149 320 198 320 c 2,31,-1
 476 320 l 2,16,17
233 405 m 2,32,33
 224 405 224 405 218.5 410 c 128,-1,34
 213 415 213 415 213 424 c 2,35,-1
 213 581 l 2,36,37
 213 590 213 590 218.5 595 c 128,-1,38
 224 600 224 600 233 600 c 2,39,-1
 410 600 l 2,40,41
 440 600 440 600 452 588.5 c 128,-1,42
 464 577 464 577 464 548 c 2,43,-1
 464 508 l 2,44,45
 464 486 464 486 451 476 c 128,-1,46
 438 466 438 466 422 466 c 1,47,-1
 458 437 l 2,48,49
 468 430 468 430 468 420 c 0,50,51
 468 414 468 414 462 409.5 c 128,-1,52
 456 405 456 405 447 405 c 2,53,-1
 393 405 l 2,54,55
 383 405 383 405 376.5 406.5 c 128,-1,56
 370 408 370 408 363 414 c 2,57,-1
 306 464 l 1,58,-1
 299 464 l 1,59,-1
 299 424 l 2,60,61
 299 405 299 405 278 405 c 2,62,-1
 233 405 l 2,32,33
233 423 m 1,63,-1
 279 423 l 1,64,-1
 279 482 l 1,65,-1
 313 482 l 1,66,-1
 374 430 l 2,67,68
 378 427 378 427 381.5 425 c 128,-1,69
 385 423 385 423 391 423 c 2,70,-1
 446 423 l 1,71,-1
 394 465 l 1,72,-1
 394 482 l 1,73,-1
 410 482 l 2,74,75
 429 482 429 482 436.5 489 c 128,-1,76
 444 496 444 496 444 514 c 2,77,-1
 444 548 l 2,78,79
 444 569 444 569 437.5 575.5 c 128,-1,80
 431 582 431 582 410 582 c 2,81,-1
 233 582 l 1,82,-1
 233 423 l 1,63,-1
277 502 m 1,83,-1
 277 553 l 1,84,-1
 380 553 l 2,85,86
 389 553 389 553 394.5 548 c 128,-1,87
 400 543 400 543 400 533 c 2,88,-1
 400 522 l 2,89,90
 400 512 400 512 394.5 507 c 128,-1,91
 389 502 389 502 380 502 c 2,92,-1
 277 502 l 1,83,-1
297 535 m 1,93,-1
 297 520 l 1,94,-1
 380 520 l 1,95,-1
 380 535 l 1,96,-1
 297 535 l 1,93,-1
EndSplineSet
EndChar

StartChar: trademark
Encoding: 273 8482 51
Width: 955
GlyphClass: 1
Flags: W
LayerCount: 2
Fore
SplineSet
394 700 m 2,0,1
 410 700 410 700 419 691.5 c 128,-1,2
 428 683 428 683 428 667 c 2,3,-1
 428 605 l 2,4,5
 428 589 428 589 419 580.5 c 128,-1,6
 410 572 410 572 394 572 c 2,7,-1
 306 572 l 1,8,-1
 306 403 l 2,9,10
 306 370 306 370 271 370 c 2,11,-1
 206 370 l 2,12,13
 171 370 171 370 171 403 c 2,14,-1
 171 572 l 1,15,-1
 84 572 l 2,16,17
 49 572 49 572 49 605 c 2,18,-1
 49 667 l 2,19,20
 49 700 49 700 84 700 c 2,21,-1
 394 700 l 2,0,1
943 700 m 2,22,23
 978 700 978 700 978 667 c 2,24,-1
 978 403 l 2,25,26
 978 370 978 370 943 370 c 2,27,-1
 875 370 l 2,28,29
 840 370 840 370 840 403 c 2,30,-1
 840 492 l 1,31,-1
 787 395 l 2,32,33
 773 370 773 370 743 370 c 2,34,-1
 706 370 l 2,35,36
 677 370 677 370 663 395 c 2,37,-1
 609 492 l 1,38,-1
 609 403 l 2,39,40
 609 370 609 370 574 370 c 2,41,-1
 505 370 l 2,42,43
 471 370 471 370 471 403 c 2,44,-1
 471 667 l 2,45,46
 471 700 471 700 505 700 c 2,47,-1
 613 700 l 2,48,49
 644 700 644 700 656 675 c 2,50,-1
 725 539 l 1,51,-1
 794 674 l 2,52,53
 807 700 807 700 836 700 c 2,54,-1
 943 700 l 2,22,23
406 667 m 2,55,56
 406 675 406 675 403.5 677.5 c 128,-1,57
 401 680 401 680 394 680 c 2,58,-1
 84 680 l 2,59,60
 76 680 76 680 73.5 677.5 c 128,-1,61
 71 675 71 675 71 667 c 2,62,-1
 71 605 l 2,63,64
 71 597 71 597 73.5 594.5 c 128,-1,65
 76 592 76 592 84 592 c 2,66,-1
 193 592 l 1,67,-1
 193 403 l 2,68,69
 193 395 193 395 195.5 392.5 c 128,-1,70
 198 390 198 390 206 390 c 2,71,-1
 271 390 l 2,72,73
 279 390 279 390 281.5 392.5 c 128,-1,74
 284 395 284 395 284 403 c 2,75,-1
 284 592 l 1,76,-1
 394 592 l 2,77,78
 401 592 401 592 403.5 594.5 c 128,-1,79
 406 597 406 597 406 605 c 2,80,-1
 406 667 l 2,55,56
956 667 m 2,81,82
 956 675 956 675 953.5 677.5 c 128,-1,83
 951 680 951 680 943 680 c 2,84,-1
 836 680 l 2,85,86
 827 680 827 680 823 677 c 128,-1,87
 819 674 819 674 814 666 c 2,88,-1
 735 510 l 1,89,-1
 716 510 l 1,90,-1
 636 665 l 2,91,92
 632 674 632 674 627 677 c 128,-1,93
 622 680 622 680 613 680 c 2,94,-1
 505 680 l 2,95,96
 497 680 497 680 495 677.5 c 128,-1,97
 493 675 493 675 493 667 c 2,98,-1
 493 403 l 2,99,100
 493 395 493 395 495 392.5 c 128,-1,101
 497 390 497 390 505 390 c 2,102,-1
 574 390 l 2,103,104
 582 390 582 390 584.5 392.5 c 128,-1,105
 587 395 587 395 587 403 c 2,106,-1
 587 537 l 1,107,-1
 609 537 l 1,108,-1
 683 405 l 2,109,110
 688 397 688 397 693 393.5 c 128,-1,111
 698 390 698 390 706 390 c 2,112,-1
 743 390 l 2,113,114
 752 390 752 390 757 393.5 c 128,-1,115
 762 397 762 397 767 405 c 2,116,-1
 840 537 l 1,117,-1
 862 537 l 1,118,-1
 862 403 l 2,119,120
 862 395 862 395 864.5 392.5 c 128,-1,121
 867 390 867 390 875 390 c 2,122,-1
 943 390 l 2,123,124
 951 390 951 390 953.5 392.5 c 128,-1,125
 956 395 956 395 956 403 c 2,126,-1
 956 667 l 2,81,82
EndSplineSet
EndChar

StartChar: at
Encoding: 64 64 52
Width: 1018
GlyphClass: 1
Flags: W
LayerCount: 2
Fore
SplineSet
162 -271.980979322 m 2,0,1
 22.5029440443 -271.980979322 22.5029440443 -271.980979322 -44.1271429572 -205.350892321 c 0,2,3
 -125.672727532 -123.805307746 -125.672727532 -123.805307746 -90.5252701974 29.757974507 c 2,4,-1
 12.3953010042 479.410955839 l 2,5,6
 36.1331043833 586.544600088 36.1331043833 586.544600088 99.5240221908 643.262789705 c 128,-1,7
 162.914939998 699.980979322 162.914939998 699.980979322 267 699.980979322 c 2,8,-1
 844 699.980979322 l 2,9,10
 980.521874159 699.980979322 980.521874159 699.980979322 1047.91863245 632.584221033 c 0,11,12
 1104.98097932 575.521874159 1104.98097932 575.521874159 1104.98097932 484 c 0,13,14
 1104.98097932 447.987165352 1104.98097932 447.987165352 1094.47601135 402.02793048 c 0,15,16
 1023.43300147 94.8440245014 1023.43300147 94.8440245014 1023.43300147 94.8427838109 c 0,17,18
 1002.86658965 6.7010188723 1002.86658965 6.7010188723 951.309290486 -42.3251533837 c 0,19,20
 892.77471493 -97.9809793224 892.77471493 -97.9809793224 805 -97.9809793224 c 2,21,-1
 724 -97.9809793224 l 2,22,23
 690.481844682 -97.9809793224 690.481844682 -97.9809793224 662.609169907 -92.5167946604 c 1,24,25
 661.979383435 -97.0782147599 661.979383435 -97.0782147599 647.859805337 -162.240734293 c 0,26,27
 638.932074493 -204.328608271 638.932074493 -204.328608271 610.535340038 -232.725342725 c 0,28,29
 571.279703441 -271.980979322 571.279703441 -271.980979322 511 -271.980979322 c 2,30,-1
 162 -271.980979322 l 2,0,1
200.368008547 7.53935220333 m 1,31,32
 202.162007777 7.49048966139 202.162007777 7.49048966139 204 7.49048966121 c 2,33,-1
 220.832875572 7.49048966121 l 1,34,35
 212.093984034 18.2386641557 212.093984034 18.2386641557 205.692602711 30.7294468802 c 1,36,-1
 200.368008547 7.53935220333 l 1,31,32
511 -149 m 2,37,38
 518 -149 518 -149 521 -146.5 c 128,-1,39
 524 -144 524 -144 525 -136 c 2,40,-1
 538 -76 l 1,41,-1
 539 -70 l 2,42,43
 539 -68 539 -68 537 -67.5 c 128,-1,44
 535 -67 535 -67 531 -67 c 2,45,-1
 204 -67 l 2,46,47
 121 -67 121 -67 121 -5 c 0,48,49
 121 2 121 2 125 24 c 2,50,-1
 217 424 l 2,51,52
 226 461 226 461 245.5 477.5 c 128,-1,53
 265 494 265 494 300 494 c 2,54,-1
 803 494 l 2,55,56
 881 494 881 494 881 434 c 0,57,58
 881 419 881 419 877 404 c 2,59,-1
 819 152 l 2,60,61
 809 108 809 108 772 108 c 2,62,-1
 734 108 l 2,63,64
 689 108 689 108 689 147 c 0,65,66
 689 151 689 151 691 165 c 2,67,-1
 742 388 l 2,68,69
 743 390 743 390 743 393 c 0,70,71
 743 400 743 400 732 400 c 2,72,-1
 416 400 l 2,73,74
 373 400 373 400 348 378 c 128,-1,75
 323 356 323 356 312 310 c 2,76,-1
 271 133 l 2,77,78
 267 117 267 117 267 100 c 0,79,80
 267 63 267 63 291 44 c 128,-1,81
 315 25 315 25 361 25 c 2,82,-1
 519 25 l 2,83,84
 558 25 558 25 576.5 34.5 c 128,-1,85
 595 44 595 44 612 73 c 1,86,-1
 637 73 l 1,87,88
 646 45 646 45 665 35 c 128,-1,89
 684 25 684 25 724 25 c 2,90,-1
 805 25 l 2,91,92
 843 25 843 25 866 48 c 128,-1,93
 889 71 889 71 901 123 c 2,94,-1
 972 430 l 2,95,96
 979 459 979 459 979 485 c 0,97,98
 979 534 979 534 947 555.5 c 128,-1,99
 915 577 915 577 844 577 c 2,100,-1
 267 577 l 2,101,102
 210 577 210 577 180.5 548.5 c 128,-1,103
 151 520 151 520 135 452 c 2,104,-1
 32 2 l 2,105,106
 24 -35 24 -35 24 -58 c 0,107,108
 24 -107 24 -107 56.5 -128 c 128,-1,109
 89 -149 89 -149 162 -149 c 2,110,-1
 511 -149 l 2,37,38
432 108 m 2,111,112
 369 108 369 108 369 157 c 0,113,114
 369 170 369 170 371 178 c 2,115,-1
 389 259 l 2,116,117
 396 290 396 290 411 304 c 128,-1,118
 426 318 426 318 452 318 c 2,119,-1
 636 318 l 1,120,-1
 601 165 l 2,121,122
 594 134 594 134 579.5 121 c 128,-1,123
 565 108 565 108 539 108 c 2,124,-1
 432 108 l 2,111,112
EndSplineSet
EndChar

StartChar: A
Encoding: 65 65 53
Width: 812
GlyphClass: 1
Flags: W
LayerCount: 2
Fore
SplineSet
880.980979322 32 m 4,0,1
 880.980979322 -22.620271439 880.980979322 -22.620271439 843.800625381 -59.8006253807 c 132,-1,2
 806.620271439 -96.9809793224 806.620271439 -96.9809793224 745 -96.9809793224 c 6,3,-1
 591 -96.9809793224 l 6,4,5
 528.899037966 -96.9809793224 528.899037966 -96.9809793224 490.36693775 -58.448879107 c 4,6,7
 463.151800737 -31.2337420936 463.151800737 -31.2337420936 454.493422343 9.01902067757 c 5,8,-1
 288.761809355 9.01902067757 l 5,9,-1
 264.762278524 -26.7534681217 l 6,10,11
 243.264006133 -59.0008767077 243.264006133 -59.0008767077 213.196424897 -77.990928015 c 132,-1,12
 183.12884366 -96.9809793224 183.12884366 -96.9809793224 142 -96.9809793224 c 6,13,-1
 -34 -96.9809793224 l 6,14,15
 -92.8529086416 -96.9809793224 -92.8529086416 -96.9809793224 -129.916943982 -59.916943982 c 132,-1,16
 -166.980979071 -22.8529088927 -166.980979071 -22.8529088927 -166.980979071 28.9950459948 c 4,17,18
 -166.98525605 71.1797071768 -166.98525605 71.1797071768 -138.992695207 111.896159312 c 4,19,-1
 296.464572671 729.550576402 l 6,20,21
 305.568343956 742.629412448 305.568343956 742.629412448 316.324137035 753.385205526 c 4,22,23
 359.919910831 796.980979322 359.919910831 796.980979322 420 796.980979322 c 6,24,-1
 586 796.980979322 l 6,25,26
 650.488058808 796.980979322 650.488058808 796.980979322 689.499867661 757.96917047 c 4,27,28
 715.491099499 731.979382498 715.491099499 731.979382498 725.075110188 693.643339744 c 4,29,30
 877.362441631 65.7942697229 877.362441631 65.7942697229 877.653694562 64.0467521365 c 4,31,32
 880.980979322 44.0830435718 880.980979322 44.0830435718 880.980979322 32 c 4,0,1
745 26 m 2,33,34
 753 26 753 26 755 29.5 c 128,-1,35
 757 33 757 33 755 42 c 2,36,-1
 604 664 l 2,37,38
 602 670 602 670 598 672 c 128,-1,39
 594 674 594 674 583 674 c 2,40,-1
 420 674 l 2,41,42
 414 674 414 674 410 671 c 128,-1,43
 406 668 406 668 400 660 c 2,44,-1
 -37 41 l 2,45,46
 -41 36 -41 36 -41 31 c 256,47,48
 -41 26 -41 26 -31 26 c 2,49,-1
 140 26 l 2,50,51
 146 26 146 26 150 29 c 128,-1,52
 154 32 154 32 160 41 c 2,53,-1
 221 132 l 1,54,-1
 557 132 l 1,55,-1
 577 37 l 2,56,57
 578 30 578 30 582 28 c 128,-1,58
 586 26 586 26 596 26 c 2,59,-1
 745 26 l 2,33,34
306 268 m 1,60,-1
 458 493 l 1,61,-1
 486 493 l 1,62,-1
 535 268 l 1,63,-1
 306 268 l 1,60,-1
EndSplineSet
EndChar

StartChar: B
Encoding: 66 66 54
Width: 925
GlyphClass: 1
Flags: W
LayerCount: 2
Fore
SplineSet
977.980979322 285 m 0,0,1
 977.980979322 247.833322133 977.980979322 247.833322133 968.014761909 209.116091782 c 2,2,-1
 946.145486633 120.644966995 l 2,3,4
 919.499393074 12.6581667836 919.499393074 12.6581667836 853.224983861 -42.1614062694 c 128,-1,5
 786.950574648 -96.9809793224 786.950574648 -96.9809793224 678 -96.9809793224 c 2,6,-1
 63 -96.9809793224 l 2,7,8
 4.15710248191 -96.9809793224 4.15710248191 -96.9809793224 -32.9119384203 -59.9119384203 c 128,-1,9
 -69.9809793224 -22.8428975181 -69.9809793224 -22.8428975181 -69.9809793224 30 c 0,10,11
 -69.9809793224 48.4526237577 -69.9809793224 48.4526237577 -66.3372244661 63.5712709744 c 2,12,-1
 78.5314483429 689.004299791 l 2,13,14
 88.5970843089 730.551661928 88.5970843089 730.551661928 115.951962082 757.906539701 c 0,15,16
 155.026401703 796.980979322 155.026401703 796.980979322 214 796.980979322 c 2,17,-1
 718 796.980979322 l 2,18,19
 837.963361228 796.980979322 837.963361228 796.980979322 905.050661486 729.893679064 c 0,20,21
 963.980979322 670.963361228 963.980979322 670.963361228 963.980979322 580 c 0,22,23
 963.980979322 550.117079165 963.980979322 550.117079165 956.705305011 517.044176297 c 0,24,25
 951.217724779 492.100790597 951.217724779 492.100790597 945.800093543 467.40582406 c 128,-1,26
 940.382462308 442.710857523 940.382462308 442.710857523 931.823626284 421.22768431 c 1,27,28
 977.980979322 365.507383872 977.980979322 365.507383872 977.980979322 285 c 0,0,1
847 239 m 2,29,30
 853 265 853 265 853 286 c 0,31,32
 853 326 853 326 828 349.5 c 128,-1,33
 803 373 803 373 750 382 c 1,34,-1
 757 411 l 1,35,36
 808 424 808 424 824 494 c 2,37,-1
 835 544 l 2,38,39
 839 561 839 561 839 581 c 0,40,41
 839 626 839 626 808 650 c 128,-1,42
 777 674 777 674 718 674 c 2,43,-1
 214 674 l 2,44,45
 207 674 207 674 204.5 671.5 c 128,-1,46
 202 669 202 669 200 661 c 2,47,-1
 55 35 l 1,48,-1
 54 30 l 2,49,50
 54 26 54 26 63 26 c 2,51,-1
 678 26 l 2,52,53
 742 26 742 26 775 54 c 128,-1,54
 808 82 808 82 825 150 c 2,55,-1
 847 239 l 2,29,30
641 454 m 2,56,57
 636 429 636 429 621.5 418 c 128,-1,58
 607 407 607 407 579 407 c 2,59,-1
 323 407 l 1,60,-1
 356 549 l 1,61,-1
 598 549 l 2,62,63
 650 549 650 549 650 507 c 0,64,65
 650 503 650 503 648 489 c 2,66,-1
 641 454 l 2,56,57
617 305 m 2,67,68
 669 305 669 305 669 265 c 0,69,70
 669 253 669 253 667 246 c 2,71,-1
 656 199 l 2,72,73
 650 173 650 173 636.5 162.5 c 128,-1,74
 623 152 623 152 595 152 c 2,75,-1
 264 152 l 1,76,-1
 300 305 l 1,77,-1
 617 305 l 2,67,68
EndSplineSet
EndChar

StartChar: C
Encoding: 67 67 55
Width: 938
GlyphClass: 1
Flags: W
LayerCount: 2
Fore
SplineSet
333 799.980979322 m 6,0,-1
 754 799.980979322 l 6,1,2
 887.834099864 799.980979322 887.834099864 799.980979322 961.39927513 726.415804056 c 4,3,4
 1026.98097932 660.834099864 1026.98097932 660.834099864 1026.98097932 557 c 4,5,6
 1026.98097932 515.938403706 1026.98097932 515.938403706 1017.37923571 475.593407147 c 6,7,-1
 1003.67714715 414.912729235 l 6,8,9
 992.093129868 361.026684852 992.093129868 361.026684852 950.973194624 331.023086176 c 5,10,11
 973.577602071 288.875485687 973.577602071 288.875485687 961.610479207 235.617721638 c 5,12,-1
 941.610479207 146.617721638 l 6,13,14
 917.094160704 37.5201042992 917.094160704 37.5201042992 855.401517372 -24.1725390333 c 4,15,16
 780.226921774 -99.3471346316 780.226921774 -99.3471346316 651 -99.9809793224 c 6,17,-1
 230 -99.9808487106 l 6,18,19
 96.5764573206 -99.9808487106 96.5764573206 -99.9808487106 22.5303092384 -25.9348312402 c 4,20,21
 -42.9809793224 39.5764573206 -42.9809793224 39.5764573206 -42.9809793224 143 c 4,22,23
 -42.9809793224 185.211905386 -42.9809793224 185.211905386 -33.3450576952 225.540856704 c 6,24,-1
 42.3895207926 554.382278362 l 6,25,26
 66.8804360477 663.366851248 66.8804360477 663.366851248 128.728641085 725.215056285 c 4,27,28
 203.494564122 799.980979322 203.494564122 799.980979322 333 799.980979322 c 6,0,-1
651 23 m 2,29,30
 723 23 723 23 762.5 58 c 128,-1,31
 802 93 802 93 820 174 c 2,32,-1
 840 263 l 2,33,34
 841 265 841 265 841 269 c 0,35,36
 841 271 841 271 838.5 271.5 c 128,-1,37
 836 272 836 272 832 272 c 2,38,-1
 662 272 l 2,39,40
 655 272 655 272 652.5 269.5 c 128,-1,41
 650 267 650 267 648 259 c 2,42,-1
 639 221 l 2,43,44
 632 193 632 193 616.5 180.5 c 128,-1,45
 601 168 601 168 574 168 c 2,46,-1
 337 168 l 2,47,48
 307 168 307 168 291 181 c 128,-1,49
 275 194 275 194 275 218 c 0,50,51
 275 228 275 228 278 240 c 2,52,-1
 332 474 l 2,53,54
 339 505 339 505 354.5 518.5 c 128,-1,55
 370 532 370 532 400 532 c 2,56,-1
 638 532 l 2,57,58
 667 532 667 532 683 519.5 c 128,-1,59
 699 507 699 507 699 484 c 0,60,61
 699 476 699 476 696 465 c 2,62,-1
 689 438 l 2,63,64
 688 436 688 436 688 432 c 256,65,66
 688 428 688 428 697 428 c 2,67,-1
 867 428 l 2,68,69
 874 428 874 428 877 430.5 c 128,-1,70
 880 433 880 433 882 442 c 2,71,-1
 896 504 l 2,72,73
 903 539 903 539 903 558 c 0,74,75
 903 617 903 617 865 647 c 128,-1,76
 827 677 827 677 754 677 c 2,77,-1
 333 677 l 2,78,79
 261 677 261 677 222 642.5 c 128,-1,80
 183 608 183 608 164 527 c 2,81,-1
 88 197 l 2,82,83
 81 162 81 162 81 143 c 0,84,85
 81 84 81 84 119 53.5 c 128,-1,86
 157 23 157 23 230 23 c 2,87,-1
 651 23 l 2,29,30
EndSplineSet
EndChar

StartChar: D
Encoding: 68 68 56
Width: 956
GlyphClass: 1
Flags: W
LayerCount: 2
Fore
SplineSet
215 796.980979322 m 6,0,-1
 764 796.980979322 l 6,1,2
 900.223052683 796.980979322 900.223052683 796.980979322 974.473350725 722.730681281 c 4,3,4
 1038.98097932 658.223052683 1038.98097932 658.223052683 1038.98097932 556 c 4,5,6
 1038.98246113 518.985382008 1038.98246113 518.985382008 1028.53328566 473.27023929 c 6,7,-1
 951.433001471 147.842783811 l 6,8,9
 923.327161236 27.3891828049 923.327161236 27.3891828049 853.367101907 -33.4456513945 c 4,10,11
 780.090792583 -96.401756194 780.090792583 -96.401756194 662 -96.9809793224 c 6,12,-1
 61 -96.9809793224 l 6,13,14
 3.15710248191 -96.9809793224 3.15710248191 -96.9809793224 -33.4119384203 -60.4119384203 c 132,-1,15
 -69.9809793224 -23.8428975181 -69.9809793224 -23.8428975181 -69.9809793224 29 c 4,16,17
 -69.9809793224 48.4734961969 -69.9809793224 48.4734961969 -66.333448297 63.587573608 c 6,18,-1
 78.3744538555 688.326516694 l 6,19,20
 87.4561019049 729.716784668 87.4561019049 729.716784668 115.464659962 757.725342725 c 4,21,22
 154.720296559 796.980979322 154.720296559 796.980979322 215 796.980979322 c 6,0,-1
662 26 m 2,23,24
 734 26 734 26 772.5 60 c 128,-1,25
 811 94 811 94 830 176 c 2,26,-1
 907 501 l 2,27,28
 914 529 914 529 914 556 c 0,29,30
 914 614 914 614 876 644 c 128,-1,31
 838 674 838 674 764 674 c 2,32,-1
 215 674 l 2,33,34
 207 674 207 674 204.5 672 c 128,-1,35
 202 670 202 670 200 661 c 2,36,-1
 55 35 l 1,37,-1
 54 30 l 2,38,39
 54 27 54 27 56.5 26.5 c 128,-1,40
 59 26 59 26 64 26 c 2,41,-1
 662 26 l 2,23,24
269 176 m 1,42,-1
 349 525 l 1,43,-1
 657 525 l 2,44,45
 717 525 717 525 717 476 c 0,46,47
 717 465 717 465 714 453 c 2,48,-1
 663 233 l 2,49,50
 655 202 655 202 639.5 189 c 128,-1,51
 624 176 624 176 595 176 c 2,52,-1
 269 176 l 1,42,-1
EndSplineSet
EndChar

StartChar: E
Encoding: 69 69 57
Width: 813
GlyphClass: 1
Flags: W
LayerCount: 2
Fore
SplineSet
758.571910434 284.766424982 m 0,0,1
 788.239750732 275.188964818 788.239750732 275.188964818 809.331545275 254.097170275 c 0,2,3
 842.465521428 220.963194122 842.465521428 220.963194122 845.764436643 171.501243921 c 0,4,5
 846.989908855 153.127250776 846.989908855 153.127250776 842.870848901 136.520826884 c 2,6,-1
 813.391823718 10.6670459506 l 2,7,8
 803.620550102 -30.8608669159 803.620550102 -30.8608669159 776.469888982 -58.0115280366 c 0,9,10
 737.500437696 -96.9809793224 737.500437696 -96.9809793224 677 -96.9809793224 c 2,11,-1
 64 -96.9809793224 l 2,12,13
 4.74344024282 -96.9809793224 4.74344024282 -96.9809793224 -32.1187695398 -60.1187695398 c 128,-1,14
 -68.9809793224 -23.2565597572 -68.9809793224 -23.2565597572 -68.9809793224 32 c 0,15,16
 -68.9809793224 49.4378349184 -68.9809793224 49.4378349184 -64.4889868318 68.9158883506 c 2,17,-1
 78.4283083356 688.557307295 l 2,18,19
 87.542218865 729.7973909 87.542218865 729.7973909 115.464659962 757.725342725 c 0,20,21
 154.720296559 796.980979322 154.720296559 796.980979322 215 796.980979322 c 2,22,-1
 818 796.980979322 l 2,23,24
 879.749975034 796.980979322 879.749975034 796.980979322 916.365477178 760.365477178 c 128,-1,25
 952.980979322 723.749975034 952.980979322 723.749975034 952.980979322 671 c 0,26,27
 952.980979322 656.334117461 952.980979322 656.334117461 948.433001471 636.842783811 c 2,28,-1
 920.528694778 517.252897986 l 2,29,30
 911.388912799 476.135453695 911.388912799 476.135453695 883.535340038 448.274657275 c 0,31,32
 844.573502 409.312819236 844.573502 409.312819236 784.796246311 409.020963601 c 1,33,34
 783.94395183 397.41946939 783.94395183 397.41946939 780.600207148 382.572062387 c 1,35,-1
 758.571910434 284.766424982 l 1025,36,-1
677 26 m 2,37,38
 684 26 684 26 686.5 28.5 c 128,-1,39
 689 31 689 31 691 39 c 2,40,41
 719 159 719 159 719 159 c 2,42,43
 720 161 720 161 720 165 c 256,44,45
 720 169 720 169 711 169 c 2,46,47
 711 169 711 169 268 169 c 1,48,-1
 295 286 l 1,49,-1
 619 286 l 6,50,51
 626 286 626 286 629 288.5 c 132,-1,52
 632 291 632 291 633 299 c 6,53,54
 633 299 633 299 658 410 c 1,55,-1
 659 416 l 2,56,57
 659 418 659 418 657 418.5 c 128,-1,58
 655 419 655 419 651 419 c 2,59,60
 651 419 651 419 326 419 c 1,61,-1
 352 532 l 1,62,-1
 784 532 l 2,63,64
 791 532 791 532 793.5 534 c 128,-1,65
 796 536 796 536 798 545 c 2,66,67
 826 665 826 665 826 665 c 2,68,69
 827 667 827 667 827 671 c 0,70,71
 827 673 827 673 824.5 673.5 c 128,-1,72
 822 674 822 674 818 674 c 2,73,74
 215 674 215 674 215 674 c 2,75,76
 208 674 208 674 205.5 672 c 128,-1,77
 203 670 203 670 201 661 c 2,78,79
 56 35 56 35 56 35 c 2,80,81
 55 33 55 33 55 30 c 0,82,83
 55 26 55 26 63 26 c 2,84,85
 677 26 677 26 677 26 c 2,37,38
EndSplineSet
EndChar

StartChar: F
Encoding: 70 70 58
Width: 766
GlyphClass: 1
Flags: W
LayerCount: 2
Fore
SplineSet
746.247901817 404.019020678 m 1,0,1
 747.980979322 391.474625181 747.980979322 391.474625181 747.980979322 379.461452974 c 128,-1,2
 747.980979322 367.448280767 747.980979322 367.448280767 743.460837987 347.962425053 c 2,3,-1
 714.391823718 222.667045951 l 2,4,5
 704.546633527 180.824987641 704.546633527 180.824987641 676.613847196 152.892201309 c 0,6,7
 638.740666564 115.019020678 638.740666564 115.019020678 578 115.019020678 c 2,8,-1
 383.716985871 115.019020678 l 1,9,-1
 360.444468417 10.8745050709 l 2,10,11
 350.454473637 -31.2656111213 350.454473637 -31.2656111213 322.539380067 -59.1758676215 c 0,12,13
 284.734268366 -96.9809793224 284.734268366 -96.9809793224 224 -96.9809793224 c 2,14,-1
 63 -96.9809793224 l 2,15,16
 2.05644576293 -96.9809793224 2.05644576293 -96.9809793224 -34.4622118467 -60.4625148392 c 128,-1,17
 -70.9809793224 -23.9437473645 -70.9809793224 -23.9437473645 -70.9809793224 29 c 0,18,19
 -70.9809793224 44.6364415796 -70.9809793224 44.6364415796 -67.9736066915 56.9896999307 c 2,20,-1
 78.6003106051 689.30117514 l 2,21,22
 88.6876199943 730.646063375 88.6876199943 730.646063375 115.951962082 757.906539701 c 0,23,24
 155.026401703 796.980979322 155.026401703 796.980979322 214 796.980979322 c 2,25,-1
 799 796.980979322 l 2,26,27
 857.842897518 796.980979322 857.842897518 796.980979322 894.91193842 759.91193842 c 128,-1,28
 931.980978833 722.842898008 931.980978833 722.842898008 931.980978833 669.993083898 c 0,29,30
 931.980978833 651.678587393 931.980978833 651.678587393 928.386023773 636.639949991 c 2,31,-1
 899.550061389 512.347008681 l 2,32,33
 890.423076723 471.168739471 890.423076723 471.168739471 862.535340038 443.274657275 c 0,34,35
 823.279703441 404.019020678 823.279703441 404.019020678 763 404.019020678 c 2,36,-1
 746.247901817 404.019020678 l 1,0,1
743.460837985 347.962425041 m 1,37,-1
 743.460837985 347.962425041 l 1,37,-1
745.563703741 403.268810901 m 1,38,-1
 745.563703741 403.268810901 l 1,38,-1
224 26 m 2,39,40
 231 26 231 26 233.5 28.5 c 128,-1,41
 236 31 236 31 238 39 c 2,42,-1
 284 238 l 1,43,-1
 578 238 l 2,44,45
 585 238 585 238 587.5 240 c 128,-1,46
 590 242 590 242 592 251 c 2,47,-1
 621 376 l 2,48,49
 622 378 622 378 622 381 c 0,50,51
 622 385 622 385 614 385 c 2,52,-1
 318 385 l 1,53,-1
 351 527 l 1,54,-1
 763 527 l 2,55,56
 770 527 770 527 772.5 529 c 128,-1,57
 775 531 775 531 777 540 c 2,58,-1
 806 665 l 2,59,60
 807 667 807 667 807 670 c 0,61,62
 807 674 807 674 799 674 c 2,63,-1
 214 674 l 2,64,65
 207 674 207 674 205 672 c 128,-1,66
 203 670 203 670 201 661 c 2,67,-1
 56 35 l 2,68,69
 55 33 55 33 55 30 c 0,70,71
 55 26 55 26 63 26 c 2,72,-1
 224 26 l 2,39,40
EndSplineSet
EndChar

StartChar: G
Encoding: 71 71 59
Width: 963
GlyphClass: 1
Flags: W
LayerCount: 2
Fore
SplineSet
230 -99.9809793224 m 6,0,1
 97.5916657975 -99.9809793224 97.5916657975 -99.9809793224 22.7694178408 -26.1723152109 c 4,2,3
 -44.8382577399 41.1408816567 -44.8382577399 41.1408816567 -42.9749568938 143.776686409 c 4,4,5
 -42.3993667161 186.226461687 -42.3993667161 186.226461687 -33.4414708102 225.122228562 c 6,6,-1
 42.4644719709 554.710489433 l 6,7,8
 69.1431186549 669.698440954 69.1431186549 669.698440954 118.139213215 718.694535514 c 4,9,10
 133.280718597 733.836040896 133.280718597 733.836040896 149.58200055 742.572206106 c 4,11,12
 256.70009268 799.980979322 256.70009268 799.980979322 333 799.980979322 c 6,13,-1
 769.206605345 799.980979322 l 6,14,15
 905.181439491 799.406028889 905.181439491 799.406028889 978.41267289 726.186424518 c 4,16,17
 1044.86647574 659.720146912 1044.86647574 659.720146912 1042.97228711 558.078392216 c 4,18,19
 1041.95228829 504.01003688 1041.95228829 504.01003688 1002.53818808 330.298540364 c 4,20,21
 960.568501361 146.431664128 960.568501361 146.431664128 960.568501361 146.431341423 c 4,22,23
 934.120220793 30.5626836945 934.120220793 30.5626836945 884.859140462 -18.6983966361 c 4,24,25
 869.728693522 -33.8288435767 869.728693522 -33.8288435767 853.424118509 -42.5670888916 c 4,26,27
 746.300324322 -99.9809793224 746.300324322 -99.9809793224 670 -99.9809793224 c 6,28,-1
 230 -99.9809793224 l 6,0,1
670 23 m 2,29,30
 742 23 742 23 781 57.5 c 128,-1,31
 820 92 820 92 839 174 c 2,32,-1
 881 358 l 1,33,-1
 882 362 l 2,34,35
 882 367 882 367 873 367 c 2,36,-1
 501 367 l 2,37,38
 494 367 494 367 491 364.5 c 128,-1,39
 488 362 488 362 486 354 c 2,40,-1
 466 268 l 1,41,-1
 465 264 l 2,42,43
 465 259 465 259 474 259 c 2,44,-1
 673 259 l 1,45,-1
 661 206 l 2,46,47
 656 182 656 182 642.5 170.5 c 128,-1,48
 629 159 629 159 606 159 c 2,49,-1
 335 159 l 2,50,51
 305 159 305 159 289 172 c 128,-1,52
 273 185 273 185 273 209 c 0,53,54
 273 219 273 219 276 231 c 2,55,-1
 335 484 l 2,56,57
 343 515 343 515 358 528 c 128,-1,58
 373 541 373 541 403 541 c 2,59,-1
 655 541 l 2,60,61
 685 541 685 541 700.5 530 c 128,-1,62
 716 519 716 519 716 499 c 0,63,64
 716 494 716 494 714 484 c 2,65,-1
 710 468 l 1,66,-1
 709 464 l 2,67,68
 709 459 709 459 718 459 c 2,69,-1
 889 459 l 2,70,71
 896 459 896 459 898.5 461.5 c 128,-1,72
 901 464 901 464 903 473 c 2,73,-1
 910 504 l 2,74,75
 917 532 917 532 917 560 c 0,76,77
 917 677 917 677 769 677 c 2,78,-1
 333 677 l 2,79,80
 261 677 261 677 222 642.5 c 128,-1,81
 183 608 183 608 164 527 c 2,82,-1
 88 197 l 2,83,84
 81 162 81 162 81 143 c 0,85,86
 81 84 81 84 119 53.5 c 128,-1,87
 157 23 157 23 230 23 c 2,88,-1
 670 23 l 2,29,30
EndSplineSet
EndChar

StartChar: H
Encoding: 72 72 60
Width: 958
GlyphClass: 1
Flags: W
LayerCount: 2
Fore
SplineSet
64 -96.9809793224 m 2,0,1
 5.16590013594 -96.9809793224 5.16590013594 -96.9809793224 -31.9075395933 -59.9075395932 c 128,-1,2
 -68.9809793224 -22.8340998641 -68.9809793224 -22.8340998641 -68.9809793224 31 c 0,3,4
 -68.9809793224 50.4479021242 -68.9809793224 50.4479021242 -65.3454784449 65.5377610238 c 2,5,-1
 78.5135851537 688.927036616 l 2,6,7
 88.5383545244 730.310290413 88.5383545244 730.310290413 115.858502035 757.630437925 c 0,8,9
 155.209043433 796.980979322 155.209043433 796.980979322 215 796.980979322 c 2,10,-1
 374 796.980979322 l 2,11,12
 432.842897517 796.980979322 432.842897517 796.980979322 469.911938421 759.911938421 c 128,-1,13
 506.980979322 722.842897517 506.980979322 722.842897517 506.980979322 670 c 0,14,15
 506.980979322 651.469776236 506.980979322 651.469776236 503.301485257 636.280973412 c 2,16,-1
 483.328803714 550.980979322 l 1,17,-1
 606.425829694 550.980979322 l 1,18,19
 637.48754886 688.81735812 637.48754886 688.81735812 637.578814826 689.19420766 c 0,20,21
 647.536189048 730.308124937 647.536189048 730.308124937 674.858502035 757.630437925 c 0,22,23
 714.209043433 796.980979322 714.209043433 796.980979322 774 796.980979322 c 2,24,-1
 933 796.980979322 l 2,25,26
 991.842897517 796.980979322 991.842897517 796.980979322 1028.91193842 759.911938421 c 128,-1,27
 1065.98097932 722.842897517 1065.98097932 722.842897517 1065.98097932 670 c 0,28,29
 1065.98097932 651.596718451 1065.98097932 651.596718451 1062.35985059 636.522654273 c 2,30,-1
 918.644939382 11.7619985879 l 2,31,32
 909.575562869 -29.6851198936 909.575562869 -29.6851198936 881.535340038 -57.7253427253 c 0,33,34
 842.279703441 -96.9809793224 842.279703441 -96.9809793224 782 -96.9809793224 c 2,35,-1
 623 -96.9809793224 l 2,36,37
 562.552263772 -96.9809793224 562.552263772 -96.9809793224 525.785642224 -60.214357775 c 128,-1,38
 489.019020678 -23.4477362274 489.019020678 -23.4477362274 489.019020678 29 c 0,39,40
 489.019020678 44.8751779866 489.019020678 44.8751779866 493.717225341 63.8067003449 c 2,41,-1
 512.983132019 147.019020678 l 1,42,-1
 390.413016162 147.019020678 l 1,43,-1
 359.675744958 11.9030993437 l 2,44,45
 350.626031774 -29.6346509904 350.626031774 -29.6346509904 322.535340038 -57.7253427253 c 0,46,47
 283.279703441 -96.9809793224 283.279703441 -96.9809793224 223 -96.9809793224 c 2,48,-1
 64 -96.9809793224 l 2,0,1
223 26 m 2,49,50
 230 26 230 26 232.5 28.5 c 128,-1,51
 235 31 235 31 237 39 c 2,52,-1
 291 270 l 1,53,-1
 669 270 l 1,54,-1
 616 35 l 1,55,-1
 615 30 l 2,56,57
 615 26 615 26 623 26 c 2,58,-1
 782 26 l 2,59,60
 789 26 789 26 792 28.5 c 128,-1,61
 795 31 795 31 797 39 c 2,62,-1
 941 665 l 1,63,-1
 942 669 l 2,64,65
 942 672 942 672 939.5 673 c 128,-1,66
 937 674 937 674 933 674 c 2,67,-1
 774 674 l 2,68,69
 767 674 767 674 764.5 671.5 c 128,-1,70
 762 669 762 669 760 661 c 2,71,-1
 706 428 l 1,72,-1
 327 428 l 1,73,-1
 381 665 l 2,74,75
 382 667 382 667 382 670 c 0,76,77
 382 674 382 674 374 674 c 2,78,-1
 215 674 l 2,79,80
 208 674 208 674 205 671.5 c 128,-1,81
 202 669 202 669 200 661 c 2,82,-1
 56 35 l 2,83,84
 55 33 55 33 55 30 c 0,85,86
 55 26 55 26 63 26 c 2,87,-1
 223 26 l 2,49,50
EndSplineSet
EndChar

StartChar: I
Encoding: 73 73 61
Width: 689
GlyphClass: 1
Flags: W
LayerCount: 2
Fore
SplineSet
22 -96.9809793224 m 2,0,1
 -37.0438900739 -96.9809793224 -37.0438900739 -96.9809793224 -73.5124346981 -60.5124346981 c 128,-1,2
 -109.980979322 -24.0438900739 -109.980979322 -24.0438900739 -109.980979322 30 c 0,3,4
 -109.980979322 45.9536743364 -109.980979322 45.9536743364 -105.359048072 65.4717930222 c 2,5,-1
 -78.239680866 179.969918486 l 2,6,7
 -68.4012878205 220.553289799 -68.4012878205 220.553289799 -41.0480379178 247.906539702 c 0,8,9
 -1.97359829644 286.980979322 -1.97359829644 286.980979322 57 286.980979322 c 2,10,-1
 130.634951522 286.980979322 l 1,11,-1
 159.387379706 413.019020678 l 1,12,-1
 137 413.019020678 l 2,13,14
 80.7355971051 413.019020678 80.7355971051 413.019020678 44.3773088916 449.377308891 c 128,-1,15
 8.01902067759 485.735597105 8.01902067759 485.735597105 8.01902067759 539 c 0,16,17
 8.01902067759 554.808014436 8.01902067759 554.808014436 12.6325511056 573.466635444 c 0,18,19
 38.4684546275 688.734512696 38.4684546275 688.734512696 38.5661356155 689.137909655 c 0,20,21
 48.5355948518 730.307530741 48.5355948518 730.307530741 75.8585020355 757.630437925 c 0,22,23
 115.209043433 796.980979322 115.209043433 796.980979322 175 796.980979322 c 2,24,-1
 710 796.980979322 l 2,25,26
 767.553668431 796.980979322 767.553668431 796.980979322 803.267323877 761.267323877 c 128,-1,27
 838.980979322 725.553668431 838.980979322 725.553668431 838.980979322 673 c 0,28,29
 838.980979322 656.384787761 838.980979322 656.384787761 834.44501633 636.89433956 c 2,30,-1
 807.613096764 521.616463229 l 2,31,32
 798.477655423 480.03227308 798.477655423 480.03227308 770.452691109 452.007308891 c 0,33,34
 731.464402895 413.019020678 731.464402895 413.019020678 672 413.019020678 c 2,35,-1
 597.130200979 413.019020678 l 1,36,-1
 567.983903915 286.980979322 l 1,37,-1
 590 286.980979322 l 2,38,39
 647.269164799 286.980979322 647.269164799 286.980979322 683.625072061 250.625072061 c 0,40,41
 732.275490343 201.974653778 732.275490343 201.974653778 715.622250252 127.670170612 c 2,42,-1
 689.510665495 11.1723309255 l 2,43,44
 678.06235709 -37.5028833242 678.06235709 -37.5028833242 642.747237591 -67.2419313233 c 128,-1,45
 607.432118092 -96.9809793224 607.432118092 -96.9809793224 553 -96.9809793224 c 2,46,-1
 22 -96.9809793224 l 2,0,1
-105.359048066 65.4717930501 m 1,47,-1
 -105.359048066 65.4717930501 l 1,47,-1
554 26 m 2,48,49
 561 26 561 26 564 28.5 c 128,-1,50
 567 31 567 31 568 39 c 2,51,-1
 594 155 l 2,52,53
 595 157 595 157 595 161 c 0,54,55
 595 163 595 163 592.5 163.5 c 128,-1,56
 590 164 590 164 586 164 c 2,57,-1
 411 164 l 1,58,-1
 497 536 l 1,59,-1
 671 536 l 2,60,61
 678 536 678 536 681 538.5 c 128,-1,62
 684 541 684 541 686 549 c 2,63,-1
 713 665 l 1,64,-1
 714 670 l 2,65,66
 714 674 714 674 705 674 c 2,67,-1
 175 674 l 2,68,69
 168 674 168 674 164.5 671.5 c 128,-1,70
 161 669 161 669 160 661 c 2,71,-1
 134 545 l 2,72,73
 133 543 133 543 133 540 c 0,74,75
 133 536 133 536 142 536 c 2,76,-1
 316 536 l 1,77,-1
 231 164 l 1,78,-1
 58 164 l 2,79,80
 51 164 51 164 48 161.5 c 128,-1,81
 45 159 45 159 43 151 c 2,82,-1
 16 35 l 1,83,-1
 15 31 l 2,84,85
 15 26 15 26 25 26 c 2,86,-1
 554 26 l 2,48,49
EndSplineSet
EndChar

StartChar: J
Encoding: 74 74 62
Width: 858
GlyphClass: 1
Flags: W
LayerCount: 2
Fore
SplineSet
72.8893095146 430.936045354 m 5,0,1
 31.0190206776 468.656987699 31.0190206776 468.656987699 31.0190206776 525 c 4,2,3
 31.0190206776 540.627838343 31.0190206776 540.627838343 34.0225650986 552.971650345 c 6,4,-1
 65.5880868727 689.247724926 l 6,5,6
 75.6364841837 730.41247816 75.6364841837 730.41247816 102.858502035 757.630437925 c 4,7,8
 142.209043433 796.980979322 142.209043433 796.980979322 202 796.980979322 c 6,9,-1
 834 796.980979322 l 6,10,11
 892.842897517 796.980979322 892.842897517 796.980979322 929.911938421 759.911938421 c 132,-1,12
 966.980978593 722.842898247 966.980978593 722.842898247 966.980978593 669.99155726 c 4,13,14
 966.980978593 651.75155782 966.980978593 651.75155782 963.417447291 636.773215164 c 6,15,-1
 850.43300147 145.842783811 l 6,16,17
 824.730661258 35.6898971824 824.730661258 35.6898971824 762.742540792 -26.2982232839 c 4,18,19
 689.684720644 -99.3560434311 689.684720644 -99.3560434311 561 -99.9809793224 c 6,20,-1
 215 -99.9808512841 l 6,21,22
 81.5764573212 -99.9808512841 81.5764573212 -99.9808512841 7.53030923845 -25.9348312402 c 4,23,24
 -57.9809793224 39.5764573206 -57.9809793224 39.5764573206 -57.9809793224 143 c 4,25,26
 -57.9809793224 185.309968406 -57.9809793224 185.309968406 -48.3244351542 225.623166788 c 6,27,-1
 -24.2817220127 328.806477354 l 6,28,29
 -14.385145672 369.392128923 -14.385145672 369.392128923 11.6902904906 395.464896029 c 132,-1,30
 37.7657266531 421.537663135 37.7657266531 421.537663135 72.8893095146 430.936045354 c 5,0,1
561 23 m 2,31,32
 633 23 633 23 671.5 57.5 c 128,-1,33
 710 92 710 92 729 174 c 2,34,-1
 842 665 l 1,35,-1
 843 670 l 2,36,37
 843 674 843 674 834 674 c 2,38,-1
 202 674 l 2,39,40
 195 674 195 674 192 671.5 c 128,-1,41
 189 669 189 669 187 661 c 2,42,-1
 157 531 l 2,43,44
 156 529 156 529 156 525 c 0,45,46
 156 523 156 523 158.5 522.5 c 128,-1,47
 161 522 161 522 165 522 c 2,48,-1
 628 522 l 1,49,-1
 560 228 l 2,50,51
 553 197 553 197 537.5 184 c 128,-1,52
 522 171 522 171 493 171 c 2,53,-1
 332 171 l 2,54,55
 302 171 302 171 286.5 184 c 128,-1,56
 271 197 271 197 271 220 c 0,57,58
 271 231 271 231 274 243 c 2,59,-1
 289 304 l 1,60,-1
 290 309 l 2,61,62
 290 312 290 312 287.5 312.5 c 128,-1,63
 285 313 285 313 280 313 c 2,64,-1
 112 313 l 2,65,66
 105 313 105 313 102 310.5 c 128,-1,67
 99 308 99 308 97 300 c 2,68,-1
 73 197 l 2,69,70
 66 162 66 162 66 143 c 0,71,72
 66 84 66 84 104 53.5 c 128,-1,73
 142 23 142 23 215 23 c 2,74,-1
 561 23 l 2,31,32
EndSplineSet
EndChar

StartChar: K
Encoding: 75 75 63
Width: 873
GlyphClass: 1
Flags: W
LayerCount: 2
Fore
SplineSet
215 796.980979322 m 2,0,-1
 374 796.980979322 l 2,1,2
 432.842897517 796.980979322 432.842897517 796.980979322 469.911938421 759.911938421 c 128,-1,3
 506.980979322 722.842897517 506.980979322 722.842897517 506.980979322 670 c 0,4,5
 506.980979322 668.793343451 506.980979322 668.793343451 506.206937408 653.13175823 c 1,6,7
 595.194602298 750.728264622 595.194602298 750.728264622 596.001129929 751.535062895 c 0,8,9
 642.023862812 796.980979322 642.023862812 796.980979322 701 796.980979322 c 2,10,-1
 891 796.980979322 l 2,11,12
 950.264402895 796.980979322 950.264402895 796.980979322 988.122691109 759.122691109 c 128,-1,13
 1025.98097932 721.264402895 1025.98097932 721.264402895 1025.98097932 668.374355765 c 128,-1,14
 1025.98097932 615.484308634 1025.98097932 615.484308634 988.662420021 574.625552515 c 2,15,-1
 768.062795143 333.135811662 l 1,16,17
 878.555712508 93.31325035 878.555712508 93.31325035 878.944298172 92.3653314944 c 0,18,19
 890.980979322 63.0102275769 890.980979322 63.0102275769 890.980979322 35 c 0,20,21
 890.980979322 -19.7739253335 890.980979322 -19.7739253335 853.926108912 -56.8287957444 c 0,22,23
 813.773928419 -96.9809793224 813.773928419 -96.9809793224 755 -96.9809793224 c 2,24,-1
 596 -96.9809793224 l 2,25,26
 524.854895351 -96.9809793224 524.854895351 -96.9809793224 481.803994025 -53.9300779967 c 0,27,28
 463.800698789 -35.9267827598 463.800698789 -35.9267827598 453.483621504 -12.7133588717 c 0,29,30
 453.426126869 -12.5845056997 453.426126869 -12.5845056997 388.254414362 132.899467595 c 0,31,-1
 360.615193551 11.6363967956 l 2,32,33
 351.527937637 -29.7287410172 351.527937637 -29.7287410172 323.535340038 -57.7253427253 c 0,34,35
 284.279703441 -96.9809793224 284.279703441 -96.9809793224 224 -96.9809793224 c 2,36,-1
 64 -96.9809793224 l 2,37,38
 5.15710248192 -96.9809793224 5.15710248192 -96.9809793224 -31.9119384203 -59.9119384202 c 128,-1,39
 -68.9809785763 -22.8428982642 -68.9809785763 -22.8428982642 -68.9809785763 30.0085388507 c 0,40,41
 -68.9809785763 48.2440558573 -68.9809785763 48.2440558573 -65.4193276969 63.2187855457 c 2,42,-1
 78.704165443 689.755637667 l 2,43,44
 88.6395061107 730.416785212 88.6395061107 730.416785212 115.858502035 757.630437925 c 0,45,46
 155.209043433 796.980979322 155.209043433 796.980979322 215 796.980979322 c 2,0,-1
766.754385656 331.491720385 m 1,47,-1
 766.754385656 331.491720385 l 1,47,-1
988.66242 574.625552492 m 1,48,-1
 988.66242 574.625552492 l 1,48,-1
988.66241998 574.62555247 m 1,49,-1
 988.66241998 574.62555247 l 1,49,-1
224 26 m 2,50,51
 231 26 231 26 233.5 28.5 c 128,-1,52
 236 31 236 31 238 39 c 2,53,-1
 292 274 l 1,54,-1
 462 274 l 1,55,-1
 568 37 l 2,56,57
 571 31 571 31 577 28.5 c 128,-1,58
 583 26 583 26 596 26 c 2,59,-1
 755 26 l 2,60,61
 766 26 766 26 766 35 c 0,62,63
 766 40 766 40 763 46 c 2,64,-1
 621 355 l 1,65,-1
 897 658 l 2,66,67
 902 665 902 665 902 668 c 0,68,69
 902 670 902 670 899 672 c 128,-1,70
 896 674 896 674 891 674 c 2,71,-1
 701 674 l 2,72,73
 697 674 697 674 692 670.5 c 128,-1,74
 687 667 687 667 680 659 c 2,75,-1
 460 419 l 1,76,-1
 325 419 l 1,77,-1
 381 665 l 2,78,79
 382 667 382 667 382 670 c 0,80,81
 382 674 382 674 374 674 c 2,82,-1
 215 674 l 2,83,84
 208 674 208 674 205 671.5 c 128,-1,85
 202 669 202 669 200 661 c 2,86,-1
 56 35 l 1,87,-1
 55 30 l 2,88,89
 55 26 55 26 64 26 c 2,90,-1
 224 26 l 2,50,51
EndSplineSet
EndChar

StartChar: L
Encoding: 76 76 64
Width: 731
GlyphClass: 1
Flags: W
LayerCount: 2
Fore
SplineSet
64 -96.9809793224 m 6,0,1
 4.56696965466 -96.9809793224 4.56696965466 -96.9809793224 -32.7070048339 -59.7070048339 c 132,-1,2
 -69.9809793224 -22.4330303454 -69.9809793224 -22.4330303454 -69.9809793224 31 c 4,3,4
 -69.9809793224 48.4317912499 -69.9809793224 48.4317912499 -66.3412315997 63.5539712116 c 6,5,-1
 78.3744538556 688.326516694 l 6,6,7
 87.4561019047 729.716784668 87.4561019047 729.716784668 115.464659962 757.725342726 c 4,8,9
 154.720296559 796.980979322 154.720296559 796.980979322 215 796.980979322 c 6,10,-1
 375 796.980979322 l 6,11,12
 434.043890073 796.980979322 434.043890073 796.980979322 470.512434699 760.512434699 c 132,-1,13
 506.980979322 724.043890073 506.980979322 724.043890073 506.980979322 670 c 4,14,15
 506.980979322 651.573936311 506.980979322 651.573936311 503.349413265 636.479289862 c 6,16,-1
 425.926726218 300.980979322 l 5,17,-1
 664 300.980979322 l 6,18,19
 721.842897517 300.980979322 721.842897517 300.980979322 758.411938421 264.411938421 c 132,-1,20
 794.980979322 227.842897517 794.980979322 227.842897517 794.980979322 175 c 4,21,22
 794.980979322 155.552097876 794.980979322 155.552097876 791.345478445 140.462238977 c 6,23,-1
 761.635993252 11.7211364743 l 6,24,25
 752.560945618 -29.6997371454 752.560945618 -29.6997371454 724.535340038 -57.7253427253 c 4,26,27
 685.279703441 -96.9809793224 685.279703441 -96.9809793224 625 -96.9809793224 c 6,28,-1
 64 -96.9809793224 l 6,0,1
625 26 m 2,29,30
 632 26 632 26 635 28.5 c 128,-1,31
 638 31 638 31 640 39 c 2,32,-1
 669 167 l 2,33,34
 670 169 670 169 670 173 c 0,35,36
 670 176 670 176 667.5 177 c 128,-1,37
 665 178 665 178 661 178 c 2,38,-1
 269 178 l 1,39,-1
 382 665 l 2,40,41
 383 667 383 667 383 670 c 0,42,43
 383 674 383 674 375 674 c 2,44,-1
 215 674 l 2,45,46
 207 674 207 674 204.5 672 c 128,-1,47
 202 670 202 670 200 661 c 2,48,-1
 55 35 l 1,49,-1
 54 30 l 2,50,51
 54 27 54 27 56.5 26.5 c 128,-1,52
 59 26 59 26 64 26 c 2,53,-1
 625 26 l 2,29,30
EndSplineSet
EndChar

StartChar: M
Encoding: 77 77 65
Width: 1151
GlyphClass: 1
Flags: W
LayerCount: 2
Fore
SplineSet
334.334406884 -41.456580332 m 4,0,1
 294.512048991 -96.9809793224 294.512048991 -96.9809793224 221 -96.9809793224 c 6,2,-1
 63 -96.9809793224 l 6,3,4
 4.15710248192 -96.9809793224 4.15710248192 -96.9809793224 -32.9119384203 -59.9119384202 c 132,-1,5
 -69.9809787907 -22.8428980498 -69.9809787907 -22.8428980498 -69.9809787907 30.0072082344 c 4,6,7
 -69.9782775308 48.3181797385 -69.9782775308 48.3181797385 -66.3923078189 63.3334628443 c 6,8,-1
 78.6003787965 689.301889199 l 6,9,10
 88.6296301521 730.405557453 88.6296301521 730.405557453 115.858502035 757.630437925 c 4,11,12
 155.209043433 796.980979322 155.209043433 796.980979322 215 796.980979322 c 6,13,-1
 433 796.980979322 l 6,14,15
 498.854879085 796.980979322 498.854879085 796.980979322 538.507725122 757.328133286 c 4,16,17
 566.074909596 729.760948811 566.074909596 729.760948811 574.76791938 689.669151482 c 6,18,-1
 612.022414847 517.860184158 l 5,19,-1
 762.348028443 737.549453635 l 6,20,21
 765.894923412 742.73296913 765.894923412 742.73296913 774.814473525 751.652519243 c 4,22,23
 820.142933604 796.980979322 820.142933604 796.980979322 879 796.980979322 c 6,24,-1
 1127 796.980979322 l 6,25,26
 1185.84289751 796.980979322 1185.84289751 796.980979322 1222.91193842 759.911938421 c 132,-1,27
 1259.98097879 722.84289805 1259.98097879 722.84289805 1259.98097879 669.992791788 c 4,28,29
 1259.98097879 651.693131029 1259.98097879 651.693131029 1256.39230781 636.666537141 c 6,30,-1
 1111.55598736 11.3731812361 l 6,31,32
 1102.43257239 -29.8219988868 1102.43257239 -29.8219988868 1074.53534004 -57.7253427253 c 4,33,34
 1035.27970345 -96.9809793224 1035.27970345 -96.9809793224 975 -96.9809793224 c 6,35,-1
 818 -96.9809793224 l 6,36,37
 758.468550076 -96.9809793224 758.468550076 -96.9809793224 721.460419825 -59.9728490717 c 4,38,39
 712.72244638 -51.2348756268 712.72244638 -51.2348756268 705.641263011 -40.6798603041 c 5,40,41
 659.274348421 -96.9809793224 659.274348421 -96.9809793224 592 -96.9809793224 c 6,42,-1
 452 -96.9809793224 l 6,43,44
 387.802263772 -96.9809793224 387.802263772 -96.9809793224 346.973142224 -56.151857775 c 4,45,46
 340.108912698 -49.2876282478 340.108912698 -49.2876282478 334.334406883 -41.4565803321 c 4,47,48
 334.460811627 -41.2803339273 334.460811627 -41.2803339273 334.565048774 -41.1457640301 c 5,49,50
 334.454656404 -41.3001087614 334.454656404 -41.3001087614 334.334406883 -41.456580332 c 1028,51,-1
1134 665 m 2,52,53
 1135 667 1135 667 1135 670 c 0,54,55
 1135 674 1135 674 1127 674 c 2,56,-1
 879 674 l 2,57,58
 873 674 873 674 869 671 c 128,-1,59
 865 668 865 668 858 658 c 2,60,-1
 574 241 l 1,61,-1
 545 241 l 1,62,-1
 452 663 l 2,63,64
 450 670 450 670 446.5 672 c 128,-1,65
 443 674 443 674 433 674 c 2,66,-1
 215 674 l 2,67,68
 208 674 208 674 205.5 672 c 128,-1,69
 203 670 203 670 201 661 c 2,70,-1
 56 35 l 2,71,72
 55 33 55 33 55 30 c 0,73,74
 55 26 55 26 63 26 c 2,75,-1
 221 26 l 2,76,77
 228 26 228 26 230.5 28 c 128,-1,78
 233 30 233 30 235 39 c 2,79,-1
 321 407 l 1,80,-1
 353 407 l 1,81,-1
 434 37 l 2,82,83
 436 31 436 31 439.5 28.5 c 128,-1,84
 443 26 443 26 452 26 c 2,85,-1
 592 26 l 2,86,87
 599 26 599 26 603 28.5 c 128,-1,88
 607 31 607 31 613 41 c 2,89,-1
 861 407 l 1,90,-1
 895 407 l 1,91,-1
 810 35 l 2,92,93
 809 33 809 33 809 29 c 0,94,95
 809 27 809 27 811.5 26.5 c 128,-1,96
 814 26 814 26 818 26 c 2,97,-1
 975 26 l 2,98,99
 982 26 982 26 984.5 28 c 128,-1,100
 987 30 987 30 989 39 c 2,101,-1
 1134 665 l 2,52,53
EndSplineSet
EndChar

StartChar: N
Encoding: 78 78 66
Width: 961
GlyphClass: 1
Flags: W
LayerCount: 2
Fore
SplineSet
938 796.980979322 m 6,0,1
 996.447736227 796.980979322 996.447736227 796.980979322 1033.21435778 760.214357776 c 132,-1,2
 1069.98097932 723.447736227 1069.98097932 723.447736227 1069.98097932 671 c 4,3,4
 1069.98097932 655.398040267 1069.98097932 655.398040267 1066.98869413 643.076668646 c 6,5,-1
 921.580424128 11.4813454177 l 6,6,7
 912.471795796 -29.7837343496 912.471795796 -29.7837343496 884.535340038 -57.7253427253 c 4,8,9
 845.279703441 -96.9809793224 845.279703441 -96.9809793224 785 -96.9809793224 c 6,10,-1
 581 -96.9809793224 l 6,11,12
 512.104150565 -96.9809793224 512.104150565 -96.9809793224 469.63420933 -54.5110380883 c 4,13,14
 451.476102307 -36.3529310639 451.476102307 -36.3529310639 441.596187802 -13.9552768676 c 6,15,-1
 382.681982382 119.597294641 l 5,16,-1
 357.391823718 10.6670459501 l 6,17,18
 346.385710716 -36.1089343046 346.385710716 -36.1089343046 312.145185394 -66.5449568135 c 132,-1,19
 277.904660072 -96.9809793224 277.904660072 -96.9809793224 224 -96.9809793224 c 6,20,-1
 62 -96.9809793224 l 6,21,22
 3.55226377219 -96.9809793224 3.55226377219 -96.9809793224 -33.2143577751 -60.214357775 c 132,-1,23
 -69.9809793224 -23.4477362278 -69.9809793224 -23.4477362278 -69.9809793224 29 c 4,24,25
 -69.9809793224 44.6019580769 -69.9809793224 44.6019580769 -66.98869485 56.923328408 c 6,26,-1
 78.7042815671 689.755611765 l 6,27,28
 88.6396222348 730.41675931 88.6396222348 730.41675931 115.858502035 757.630437925 c 4,29,30
 155.209043433 796.980979322 155.209043433 796.980979322 215 796.980979322 c 6,31,-1
 422 796.980979322 l 6,32,33
 491.288645319 796.980979322 491.288645319 796.980979322 532.903407362 755.36621728 c 4,34,35
 550.901579672 737.368044969 550.901579672 737.368044969 560.938690335 713.786221043 c 6,36,-1
 618.228072249 584.780795664 l 5,37,-1
 642.608176282 689.33295405 l 6,38,39
 653.614289284 736.108934304 653.614289284 736.108934304 687.854814606 766.544956814 c 132,-1,40
 722.095339928 796.980979322 722.095339928 796.980979322 776 796.980979322 c 6,41,-1
 938 796.980979322 l 6,0,1
944 665 m 2,42,43
 945 667 945 667 945 671 c 0,44,45
 945 673 945 673 942.5 673.5 c 128,-1,46
 940 674 940 674 936 674 c 2,47,-1
 778 674 l 2,48,49
 771 674 771 674 768.5 671.5 c 128,-1,50
 766 669 766 669 764 661 c 2,51,-1
 666 237 l 1,52,-1
 636 237 l 1,53,-1
 447 663 l 2,54,55
 443 674 443 674 422 674 c 2,56,-1
 215 674 l 2,57,58
 208 674 208 674 205 671.5 c 128,-1,59
 202 669 202 669 200 661 c 2,60,-1
 56 35 l 1,61,-1
 55 31 l 2,62,63
 55 26 55 26 65 26 c 2,64,-1
 222 26 l 2,65,66
 229 26 229 26 231.5 28.5 c 128,-1,67
 234 31 234 31 236 39 c 2,68,-1
 335 466 l 1,69,-1
 366 466 l 1,70,-1
 555 38 l 2,71,72
 560 26 560 26 581 26 c 2,73,-1
 785 26 l 2,74,75
 792 26 792 26 795 28.5 c 128,-1,76
 798 31 798 31 800 39 c 2,77,-1
 944 665 l 2,42,43
EndSplineSet
EndChar

StartChar: O
Encoding: 79 79 67
Width: 983
GlyphClass: 1
Flags: W
LayerCount: 2
Fore
SplineSet
230 -99.9809793224 m 6,0,1
 96.5764573212 -99.9809793224 96.5764573212 -99.9809793224 22.5303092385 -25.9348312402 c 4,2,3
 -42.9809793224 39.5764573206 -42.9809793224 39.5764573206 -42.9809793224 143 c 4,4,5
 -42.9809793224 185.327063275 -42.9809793224 185.327063275 -33.3912786977 225.340163962 c 6,6,-1
 42.3895207926 554.382278362 l 6,7,8
 69.3335474357 674.283196922 69.3335474357 674.283196922 141.49338548 737.132088122 c 132,-1,9
 213.653223524 799.980979322 213.653223524 799.980979322 333 799.980979322 c 6,10,-1
 792 799.980979322 l 6,11,12
 927.00786281 799.980979322 927.00786281 799.980979322 1000.83795576 726.150886377 c 4,13,14
 1065.98097932 661.007862809 1065.98097932 661.007862809 1065.98097932 557 c 4,15,16
 1065.98097932 515.589408272 1065.98097932 515.589408272 1056.35582637 475.512033361 c 6,17,-1
 979.43300147 145.842783811 l 6,18,19
 951.40187858 25.7093999927 951.40187858 25.7093999927 880.022156994 -37.1357896649 c 132,-1,20
 808.642435408 -99.9809793224 808.642435408 -99.9809793224 690 -99.9809793224 c 6,21,-1
 230 -99.9809793224 l 6,0,1
690 23 m 2,22,23
 762 23 762 23 800.5 57.5 c 128,-1,24
 839 92 839 92 858 174 c 2,25,-1
 935 504 l 2,26,27
 942 537 942 537 942 558 c 0,28,29
 942 616 942 616 904 646.5 c 128,-1,30
 866 677 866 677 792 677 c 2,31,-1
 333 677 l 2,32,33
 261 677 261 677 222 642.5 c 128,-1,34
 183 608 183 608 164 527 c 2,35,-1
 88 197 l 2,36,37
 81 162 81 162 81 143 c 0,38,39
 81 84 81 84 119 53.5 c 128,-1,40
 157 23 157 23 230 23 c 2,41,-1
 690 23 l 2,22,23
339 171 m 2,42,43
 276 171 276 171 276 221 c 0,44,45
 276 231 276 231 279 243 c 2,46,-1
 332 472 l 2,47,48
 339 503 339 503 355 516.5 c 128,-1,49
 371 530 371 530 400 530 c 2,50,-1
 683 530 l 2,51,52
 746 530 746 530 746 480 c 0,53,54
 746 470 746 470 743 458 c 2,55,-1
 690 229 l 2,56,57
 683 198 683 198 667 184.5 c 128,-1,58
 651 171 651 171 621 171 c 2,59,-1
 339 171 l 2,42,43
EndSplineSet
EndChar

StartChar: P
Encoding: 80 80 68
Width: 870
GlyphClass: 1
Flags: W
LayerCount: 2
Fore
SplineSet
980.563479425 496.409640863 m 5,0,-1
 938.546662143 311.335698446 l 6,1,2
 913.439778916 201.144377616 913.439778916 201.144377616 846.148197044 143.581699147 c 132,-1,3
 778.856615172 86.0190206778 778.856615172 86.0190206778 667 86.0190206778 c 6,4,-1
 376.4749447 86.0190206778 l 5,5,-1
 359.685673026 11.9487044644 l 6,6,7
 350.642341876 -29.6183408881 350.642341876 -29.6183408881 322.535340038 -57.7253427253 c 4,8,9
 283.279703441 -96.9809793224 283.279703441 -96.9809793224 223 -96.9809793224 c 6,10,-1
 64 -96.9809793224 l 6,11,12
 3.94512091514 -96.9809793224 3.94512091514 -96.9809793224 -33.0179292036 -60.0179292037 c 132,-1,13
 -69.9809793224 -23.0548790849 -69.9809793224 -23.0548790849 -69.9809793224 30 c 4,14,15
 -69.9809793224 48.4526456639 -69.9809793224 48.4526456639 -66.3372147132 63.57131141 c 6,16,-1
 78.608176282 689.33295405 l 6,17,18
 90.2556125061 738.834558002 90.2556125061 738.834558002 126.597125832 767.907768662 c 132,-1,19
 162.938639158 796.980979322 162.938639158 796.980979322 215 796.980979322 c 6,20,-1
 736 796.980979322 l 6,21,22
 859.305649897 796.980979322 859.305649897 796.980979322 927.721493793 728.565135427 c 4,23,24
 988.980979322 667.305649897 988.980979322 667.305649897 988.980979322 570 c 4,25,26
 988.980979322 533.488594097 988.980979322 533.488594097 980.563479425 496.409640862 c 1028,27,-1
223 26 m 2,28,29
 230 26 230 26 232.5 28 c 128,-1,30
 235 30 235 30 237 39 c 2,31,-1
 276 209 l 1,32,-1
 667 209 l 2,33,34
 732 209 732 209 765.5 238.5 c 128,-1,35
 799 268 799 268 816 339 c 2,36,-1
 858 524 l 2,37,38
 864 551 864 551 864 572 c 0,39,40
 864 674 864 674 736 674 c 2,41,-1
 215 674 l 2,42,43
 207 674 207 674 204.5 672 c 128,-1,44
 202 670 202 670 200 661 c 2,45,-1
 55 35 l 1,46,-1
 54 30 l 2,47,48
 54 27 54 27 56.5 26.5 c 128,-1,49
 59 26 59 26 64 26 c 2,50,-1
 223 26 l 2,28,29
308 345 m 1,51,-1
 353 539 l 1,52,-1
 618 539 l 2,53,54
 670 539 670 539 670 498 c 0,55,56
 670 486 670 486 668 479 c 2,57,-1
 649 391 l 2,58,59
 644 366 644 366 629.5 355.5 c 128,-1,60
 615 345 615 345 586 345 c 2,61,-1
 308 345 l 1,51,-1
EndSplineSet
EndChar

StartChar: Q
Encoding: 81 81 69
Width: 983
GlyphClass: 1
Flags: W
LayerCount: 2
Fore
SplineSet
322 -286.980979322 m 6,0,1
 264.725340695 -286.980979322 264.725340695 -286.980979322 228.872180686 -251.127819314 c 4,2,3
 180.571805869 -202.827444496 180.571805869 -202.827444496 197.492071942 -129.166397763 c 6,4,-1
 204.364997994 -99.2489549729 l 5,5,6
 89.1283507986 -92.5328727999 89.1283507986 -92.5328727999 23.0736857381 -26.4782077396 c 132,-1,7
 -42.9809793224 39.5764573206 -42.9809793224 39.5764573206 -42.9809793224 143 c 4,8,9
 -42.9809793224 185.327063275 -42.9809793224 185.327063275 -33.3912786977 225.340163962 c 6,10,-1
 42.3895207926 554.382278362 l 6,11,12
 69.3335474357 674.283196922 69.3335474357 674.283196922 141.49338548 737.132088122 c 132,-1,13
 213.653223524 799.980979322 213.653223524 799.980979322 333 799.980979322 c 6,14,-1
 792 799.980979322 l 6,15,16
 927.00786281 799.980979322 927.00786281 799.980979322 1000.83795576 726.150886377 c 4,17,18
 1065.98097932 661.007862809 1065.98097932 661.007862809 1065.98097932 557 c 4,19,20
 1065.98097932 515.589408272 1065.98097932 515.589408272 1056.35582637 475.512033361 c 6,21,-1
 979.43300147 145.842783811 l 6,22,23
 951.40187858 25.7093999927 951.40187858 25.7093999927 880.022156994 -37.1357896649 c 132,-1,24
 808.642435408 -99.9809793224 808.642435408 -99.9809793224 690 -99.9809793224 c 6,25,-1
 615.163685899 -99.9809793224 l 5,26,27
 596.180621629 -182.216344955 596.180621629 -182.216344955 596.073948173 -182.643057891 c 4,28,29
 584.787785026 -227.787710482 584.787785026 -227.787710482 551.244932683 -257.384344902 c 132,-1,30
 517.70208034 -286.980979322 517.70208034 -286.980979322 465 -286.980979322 c 6,31,-1
 322 -286.980979322 l 6,0,1
197.492071944 -129.166397752 m 5,32,-1
 197.492071944 -129.166397752 l 5,32,-1
461 -164 m 2,33,34
 467 -164 467 -164 470 -162 c 128,-1,35
 473 -160 473 -160 474 -153 c 2,36,-1
 515 23 l 1,37,-1
 690 23 l 2,38,39
 762 23 762 23 800.5 57.5 c 128,-1,40
 839 92 839 92 858 174 c 2,41,-1
 935 504 l 2,42,43
 942 537 942 537 942 558 c 0,44,45
 942 616 942 616 904 646.5 c 128,-1,46
 866 677 866 677 792 677 c 2,47,-1
 333 677 l 2,48,49
 261 677 261 677 222 642.5 c 128,-1,50
 183 608 183 608 164 527 c 2,51,-1
 88 197 l 2,52,53
 81 162 81 162 81 143 c 0,54,55
 81 84 81 84 119 53.5 c 128,-1,56
 157 23 157 23 230 23 c 2,57,-1
 361 23 l 1,58,-1
 320 -155 l 1,59,-1
 319 -159 l 2,60,61
 319 -164 319 -164 328 -164 c 2,62,-1
 461 -164 l 2,33,34
339 171 m 2,63,64
 276 171 276 171 276 221 c 0,65,66
 276 231 276 231 279 243 c 2,67,-1
 332 472 l 2,68,69
 339 503 339 503 355 516.5 c 128,-1,70
 371 530 371 530 400 530 c 2,71,-1
 683 530 l 2,72,73
 746 530 746 530 746 480 c 0,74,75
 746 470 746 470 743 458 c 2,76,-1
 690 229 l 2,77,78
 683 198 683 198 667 184.5 c 128,-1,79
 651 171 651 171 621 171 c 2,80,-1
 339 171 l 2,63,64
EndSplineSet
EndChar

StartChar: R
Encoding: 82 82 70
Width: 877
GlyphClass: 1
Flags: W
LayerCount: 2
Fore
SplineSet
974.631421925 496.711131844 m 5,0,-1
 940.546662143 344.335698446 l 6,1,2
 908.790101019 204.959680181 908.790101019 204.959680181 811.458843965 152.279156481 c 4,3,-1
 839.715383373 111.291718134 l 6,4,5
 863.980979322 76.4389983261 863.980979322 76.4389983261 863.980979322 34 c 4,6,7
 863.980979322 -20.7792810265 863.980979322 -20.7792810265 827.447536342 -57.3127240075 c 4,8,9
 787.779284887 -96.9809793224 787.779284887 -96.9809793224 731 -96.9809793224 c 6,10,-1
 563 -96.9809793224 l 6,11,12
 493.347718318 -96.9809793224 493.347718318 -96.9809793224 449.559402555 -53.1926635602 c 4,13,14
 438.941398479 -42.5746594843 438.941398479 -42.5746594843 433.373989759 -34.037885272 c 6,15,-1
 371.24438606 61.4974456667 l 5,16,-1
 359.531466593 11.2650840427 l 6,17,18
 350.393338295 -29.8602377533 350.393338295 -29.8602377533 322.535340038 -57.7253427253 c 4,19,20
 283.279703441 -96.9809793224 283.279703441 -96.9809793224 223 -96.9809793224 c 6,21,-1
 64 -96.9809793224 l 6,22,23
 4.15710248192 -96.9809793224 4.15710248192 -96.9809793224 -32.9119384203 -59.9119384202 c 132,-1,24
 -69.9809787907 -22.8428980498 -69.9809787907 -22.8428980498 -69.9809787907 30.0072082344 c 4,25,26
 -69.9809787907 48.3068689397 -69.9809787907 48.3068689397 -66.3923078189 63.3334628443 c 6,27,-1
 78.4440126422 688.626818766 l 6,28,29
 87.5674276148 729.821998887 87.5674276148 729.821998887 115.464659962 757.725342726 c 4,30,31
 154.720296559 796.980979322 154.720296559 796.980979322 215 796.980979322 c 6,32,-1
 730 796.980979322 l 6,33,34
 853.897736228 796.980979322 853.897736228 796.980979322 922.189357776 728.689357776 c 4,35,36
 982.980979322 667.897736228 982.980979322 667.897736228 982.980979322 571 c 4,37,38
 982.980979322 534.039875886 982.980979322 534.039875886 974.631421924 496.711131843 c 1028,39,-1
223 26 m 2,40,41
 231 26 231 26 233.5 28 c 128,-1,42
 236 30 236 30 238 39 c 2,43,-1
 287 252 l 1,44,-1
 396 252 l 1,45,-1
 536 37 l 2,46,47
 540 31 540 31 546 28.5 c 128,-1,48
 552 26 552 26 563 26 c 2,49,-1
 731 26 l 2,50,51
 739 26 739 26 739 34 c 0,52,53
 739 38 739 38 736 42 c 2,54,-1
 599 243 l 1,55,-1
 669 243 l 2,56,57
 735 243 735 243 769 272.5 c 128,-1,58
 803 302 803 302 819 372 c 2,59,-1
 853 524 l 2,60,61
 859 550 859 550 859 571 c 0,62,63
 859 674 859 674 730 674 c 2,64,-1
 215 674 l 2,65,66
 208 674 208 674 205.5 672 c 128,-1,67
 203 670 203 670 201 661 c 2,68,-1
 56 35 l 2,69,70
 55 33 55 33 55 30 c 0,71,72
 55 26 55 26 64 26 c 2,73,-1
 223 26 l 2,40,41
312 359 m 1,74,-1
 353 539 l 1,75,-1
 612 539 l 2,76,77
 664 539 664 539 664 498 c 0,78,79
 664 486 664 486 662 479 c 2,80,-1
 646 406 l 2,81,82
 641 381 641 381 626.5 370 c 128,-1,83
 612 359 612 359 584 359 c 2,84,-1
 312 359 l 1,74,-1
EndSplineSet
EndChar

StartChar: S
Encoding: 83 83 71
Width: 868
GlyphClass: 1
Flags: W
LayerCount: 2
Fore
SplineSet
312 799.980979322 m 6,0,-1
 699 799.980979322 l 6,1,2
 824.737304573 799.980979322 824.737304573 799.980979322 894.004864219 730.713419677 c 4,3,4
 953.980979322 670.737304573 953.980979322 670.737304573 953.980979322 577 c 4,5,6
 953.980979322 537.245754355 953.980979322 537.245754355 944.131766666 497.584935467 c 6,7,-1
 936.303255732 465.292327834 l 6,8,9
 928.383644073 431.945256654 928.383644073 431.945256654 909.435393667 408.592864144 c 4,10,11
 903.77984696 401.622798638 903.77984696 401.622798638 896.075080738 397.151757225 c 4,12,13
 893.566747854 395.696182859 893.566747854 395.696182859 894.657787025 393.25042405 c 4,14,15
 926.82775617 321.316317597 926.82775617 321.316317597 905.705083956 226.036296365 c 4,16,-1
 882.546662143 125.335698446 l 6,17,18
 831.47245712 -98.8233124903 831.47245712 -98.8233124903 612 -99.9808283091 c 5,19,-1
 188 -99.9806772958 l 6,20,21
 62.9008553215 -99.9806772958 62.9008553215 -99.9806772958 -6.30826275425 -30.7718612466 c 4,22,23
 -66.9809793224 29.9008553215 -66.9809793224 29.9008553215 -66.9809793224 126 c 4,24,25
 -66.9809793224 160.234674135 -66.9809793224 160.234674135 -58.1216254252 198.204752 c 4,26,27
 -58.1216254252 198.204753847 -58.1216254252 198.204753847 -50.5314703862 230.75102233 c 4,28,29
 -41.5185578441 271.222658901 -41.5185578441 271.222658901 -13.7856468375 298.955568713 c 4,30,31
 2.05479413026 314.796009681 2.05479413026 314.796009681 19.7840318708 323.263434509 c 4,32,33
 21.5540288248 324.108779152 21.5540288248 324.108779152 22.5373579039 324.710410298 c 4,34,35
 10.1693898764 361.148147512 10.1693898764 361.148147512 10.1693896337 400.578938859 c 132,-1,36
 10.169389391 440.009730206 10.169389391 440.009730206 18.5458982776 476.066590365 c 5,37,-1
 41.6548436564 575.530365269 l 6,38,39
 65.2229654876 674.76456245 65.2229654876 674.76456245 121.206027953 730.747624918 c 4,40,41
 190.439382358 799.980979322 190.439382358 799.980979322 312 799.980979322 c 6,0,-1
23.6599445845 325.751627063 m 5,42,-1
 23.6599445845 325.751627063 l 5,42,-1
612 23 m 2,43,44
 677 23 677 23 711 52.5 c 128,-1,45
 745 82 745 82 761 153 c 2,46,-1
 784 253 l 2,47,48
 790 277 790 277 790 298 c 0,49,50
 790 348 790 348 757 374 c 128,-1,51
 724 400 724 400 660 400 c 2,52,-1
 376 400 l 2,53,54
 325 400 325 400 325 441 c 0,55,56
 325 450 325 450 328 462 c 2,57,-1
 338 506 l 2,58,59
 344 532 344 532 358 543 c 128,-1,60
 372 554 372 554 400 554 c 2,61,-1
 584 554 l 2,62,63
 629 554 629 554 629 523 c 0,64,65
 629 520 629 520 627 510 c 2,66,-1
 624 498 l 1,67,-1
 624 494 l 2,68,69
 624 484 624 484 635 484 c 2,70,-1
 801 484 l 2,71,72
 809 484 809 484 811.5 486 c 128,-1,73
 814 488 814 488 816 498 c 2,74,-1
 823 529 l 2,75,76
 829 556 829 556 829 577 c 0,77,78
 829 677 829 677 699 677 c 2,79,-1
 312 677 l 2,80,81
 247 677 247 677 213.5 647.5 c 128,-1,82
 180 618 180 618 163 547 c 2,83,-1
 140 448 l 2,84,85
 134 423 134 423 134 402 c 0,86,87
 134 300 134 300 263 300 c 2,88,-1
 547 300 l 2,89,90
 598 300 598 300 598 259 c 0,91,92
 598 250 598 250 595 238 c 2,93,-1
 585 194 l 2,94,95
 579 169 579 169 565 158 c 128,-1,96
 551 147 551 147 524 147 c 2,97,-1
 305 147 l 2,98,99
 284 147 284 147 272 156 c 128,-1,100
 260 165 260 165 260 181 c 0,101,102
 260 186 260 186 262 194 c 2,103,-1
 265 207 l 1,104,-1
 266 211 l 2,105,106
 266 216 266 216 256 216 c 2,107,-1
 89 216 l 2,108,109
 80 216 80 216 77 214 c 128,-1,110
 74 212 74 212 72 203 c 2,111,-1
 65 173 l 2,112,113
 59 148 59 148 59 125 c 0,114,115
 59 74 59 74 92 48.5 c 128,-1,116
 125 23 125 23 188 23 c 2,117,-1
 612 23 l 2,43,44
EndSplineSet
EndChar

StartChar: T
Encoding: 84 84 72
Width: 768
GlyphClass: 1
Flags: W
LayerCount: 2
Fore
SplineSet
243 -96.9809793224 m 6,0,1
 187.012790088 -96.9809793224 187.012790088 -96.9809793224 151.515905382 -61.4840946172 c 132,-1,2
 116.019020678 -25.9872099116 116.019020678 -25.9872099116 116.019020678 27 c 4,3,4
 116.019020678 43.3758332074 116.019020678 43.3758332074 120.495811689 62.8498747277 c 6,5,-1
 196.175325158 392.019020678 l 5,6,-1
 94 392.019020678 l 6,7,8
 35.1571024822 392.019020678 35.1571024822 392.019020678 -1.91193842025 429.088061579 c 132,-1,9
 -38.9809793224 466.157102482 -38.9809793224 466.157102482 -38.9809793224 519 c 4,10,11
 -38.9809793224 537.512674826 -38.9809793224 537.512674826 -35.3095841575 552.685607926 c 6,12,-1
 -3.60185632733 688.434317699 l 6,13,14
 5.49467066574 729.755353428 5.49467066574 729.755353428 33.4646599621 757.725342726 c 4,15,16
 72.7202965593 796.980979322 72.7202965593 796.980979322 133 796.980979322 c 6,17,-1
 827 796.980979322 l 6,18,19
 889.278381389 796.980979322 889.278381389 796.980979322 926.573488889 759.685871823 c 4,20,21
 974.039361101 712.21999961 974.039361101 712.21999961 956.427907436 636.820963614 c 6,22,-1
 924.601856328 500.565682301 l 6,23,24
 915.505329334 459.244646571 915.505329334 459.244646571 887.535340038 431.274657274 c 4,25,26
 848.279703441 392.019020678 848.279703441 392.019020678 788 392.019020678 c 6,27,-1
 632.204124258 392.019020678 l 5,28,-1
 544.391823718 10.6670459506 l 6,29,30
 532.744387494 -38.8345580017 532.744387494 -38.8345580017 496.402874168 -67.9077686621 c 132,-1,31
 460.061360842 -96.9809793224 460.061360842 -96.9809793224 408 -96.9809793224 c 6,32,-1
 243 -96.9809793224 l 6,0,1
120.49581169 62.8498747303 m 5,33,-1
 120.49581169 62.8498747303 l 5,33,-1
408 26 m 2,34,35
 415 26 415 26 418 28.5 c 128,-1,36
 421 31 421 31 423 39 c 2,37,-1
 532 515 l 1,38,-1
 788 515 l 2,39,40
 796 515 796 515 798.5 517 c 128,-1,41
 801 519 801 519 803 528 c 2,42,-1
 835 665 l 1,43,-1
 836 669 l 2,44,45
 836 674 836 674 827 674 c 2,46,-1
 133 674 l 2,47,48
 125 674 125 674 122.5 672 c 128,-1,49
 120 670 120 670 118 661 c 2,50,-1
 86 524 l 1,51,-1
 85 520 l 2,52,53
 85 515 85 515 93 515 c 2,54,-1
 353 515 l 1,55,-1
 243 39 l 2,56,57
 241 30 241 30 241.5 28 c 128,-1,58
 242 26 242 26 248 26 c 2,59,-1
 408 26 l 2,34,35
EndSplineSet
EndChar

StartChar: U
Encoding: 85 85 73
Width: 943
GlyphClass: 1
Flags: W
LayerCount: 2
Fore
SplineSet
235 -99.9809793224 m 6,0,1
 101.576457321 -99.9809793224 101.576457321 -99.9809793224 27.5303092385 -25.9348312402 c 4,2,3
 -37.9809793224 39.5764573206 -37.9809793224 39.5764573206 -37.9809793224 143 c 4,4,5
 -37.9809793224 185.33476676 -37.9809793224 185.33476676 -28.3878163149 225.354609435 c 6,6,-1
 78.5101487097 688.912140008 l 6,7,8
 88.5383001083 730.310235997 88.5383001083 730.310235997 115.858502035 757.630437925 c 4,9,10
 155.209043433 796.980979322 155.209043433 796.980979322 215 796.980979322 c 6,11,-1
 373 796.980979322 l 6,12,13
 431.842897517 796.980979322 431.842897517 796.980979322 468.911938421 759.911938421 c 132,-1,14
 505.980979322 722.842897517 505.980979322 722.842897517 505.980979322 670 c 4,15,16
 505.980979322 651.620331485 505.980979322 651.620331485 502.370651319 636.567595757 c 6,17,-1
 426.577622185 305.980979322 l 5,18,-1
 535.281352176 305.980979322 l 5,19,-1
 623.506013032 688.894198088 l 6,20,21
 633.538233577 730.310169466 633.538233577 730.310169466 660.858502035 757.630437925 c 4,22,23
 700.209043433 796.980979322 700.209043433 796.980979322 760 796.980979322 c 6,24,-1
 919 796.980979322 l 6,25,26
 977.842897517 796.980979322 977.842897517 796.980979322 1014.91193842 759.911938421 c 132,-1,27
 1051.98097932 722.842897517 1051.98097932 722.842897517 1051.98097932 670 c 4,28,29
 1051.98097932 651.530405147 1051.98097932 651.530405147 1048.3294246 636.396419371 c 6,30,-1
 934.486414846 146.072963384 l 6,31,32
 906.424888682 24.4730166725 906.424888682 24.4730166725 834.863840985 -37.7539813249 c 132,-1,33
 763.302793288 -99.9809793224 763.302793288 -99.9809793224 645 -99.9809793224 c 6,34,-1
 235 -99.9809793224 l 6,0,1
645 23 m 2,35,36
 717 23 717 23 755.5 57.5 c 128,-1,37
 794 92 794 92 813 174 c 2,38,-1
 927 665 l 1,39,-1
 928 670 l 2,40,41
 928 674 928 674 919 674 c 2,42,-1
 760 674 l 2,43,44
 753 674 753 674 750 671.5 c 128,-1,45
 747 669 747 669 745 661 c 2,46,-1
 648 240 l 2,47,48
 641 209 641 209 626 196 c 128,-1,49
 611 183 611 183 582 183 c 2,50,-1
 345 183 l 2,51,52
 315 183 315 183 299.5 196 c 128,-1,53
 284 209 284 209 284 232 c 0,54,55
 284 243 284 243 287 255 c 2,56,-1
 381 665 l 1,57,-1
 382 670 l 2,58,59
 382 674 382 674 373 674 c 2,60,-1
 215 674 l 2,61,62
 208 674 208 674 205 671.5 c 128,-1,63
 202 669 202 669 200 661 c 2,64,-1
 93 197 l 2,65,66
 86 162 86 162 86 143 c 0,67,68
 86 84 86 84 124 53.5 c 128,-1,69
 162 23 162 23 235 23 c 2,70,-1
 645 23 l 2,35,36
EndSplineSet
EndChar

StartChar: V
Encoding: 86 86 74
Width: 842
GlyphClass: 1
Flags: W
LayerCount: 2
Fore
SplineSet
579.290386461 -29.8983007675 m 4,0,1
 531.295122268 -96.9809793224 531.295122268 -96.9809793224 453 -96.9809793224 c 6,2,-1
 273 -96.9809793224 l 6,3,4
 211.457436186 -96.9809793224 211.457436186 -96.9809793224 170.083650548 -55.6071936847 c 4,5,6
 142.613804148 -28.1373472847 142.613804148 -28.1373472847 133.665710969 9.42393749803 c 4,7,8
 82.137753628 226.499678208 82.137753628 226.499678208 -16.2498645487 640.984552297 c 4,9,10
 -17.9809793224 648.27734964 -17.9809793224 648.27734964 -17.9809793224 664 c 4,11,12
 -17.9809793224 720.775123885 -17.9809793224 720.775123885 18.6389912409 757.395094448 c 4,13,14
 58.2248729952 796.980979322 58.2248729952 796.980979322 118 796.980979322 c 6,15,-1
 275 796.980979322 l 6,16,17
 338.100962034 796.980979322 338.100962034 796.980979322 376.63306225 758.448879107 c 4,18,19
 404.625200774 730.456740583 404.625200774 730.456740583 412.953187931 688.829247294 c 6,20,-1
 453.159127453 500.108882694 l 5,21,-1
 613.415665356 737.947071744 l 6,22,23
 617.093843492 743.405892374 617.093843492 743.405892374 628.978113356 755.290162241 c 4,24,25
 670.66893044 796.980979322 670.66893044 796.980979322 729 796.980979322 c 6,26,-1
 905 796.980979322 l 6,27,28
 968.100962033 796.980979322 968.100962033 796.980979322 1006.55501855 758.526922812 c 4,29,30
 1041.98097932 723.100962033 1041.98097932 723.100962033 1041.98097932 672.764938939 c 4,31,32
 1041.98097932 627.006932928 1041.98097932 627.006932928 1014.29858501 588.113346824 c 4,33,34
 1014.17680374 587.941292774 1014.17680374 587.941292774 796.733589623 279.021504217 c 132,-1,35
 579.290375509 -29.8982843403 579.290375509 -29.8982843403 579.290386461 -29.8983007675 c 4,0,1
911 658 m 2,36,37
 916 666 916 666 916 669 c 0,38,39
 916 674 916 674 905 674 c 2,40,-1
 731 674 l 2,41,42
 723 674 723 674 718.5 671.5 c 128,-1,43
 714 669 714 669 708 659 c 2,44,-1
 416 221 l 1,45,-1
 386 221 l 1,46,-1
 292 663 l 2,47,48
 290 670 290 670 286.5 672 c 128,-1,49
 283 674 283 674 273 674 c 2,50,-1
 120 674 l 2,51,52
 107 674 107 674 107 665 c 0,53,54
 107 659 107 659 108 655 c 2,55,-1
 255 37 l 2,56,57
 258 26 258 26 273 26 c 2,58,-1
 453 26 l 2,59,60
 461 26 461 26 466 28.5 c 128,-1,61
 471 31 471 31 478 42 c 2,62,-1
 911 658 l 2,36,37
EndSplineSet
EndChar

StartChar: W
Encoding: 87 87 75
Width: 1161
GlyphClass: 1
Flags: W
LayerCount: 2
Fore
SplineSet
1219 796.981445312 m 1,0,1
 1276 797 1276 797 1312.5 760.5 c 128,-1,2
 1349 724 1349 724 1348.98097932 673 c 0,3,4
 1348.99999624 636.007313356 1348.99999624 636.007313356 1331.04542562 603.309986796 c 2,5,-1
 989.433482698 -18.8044312427 l 2,6,7
 978 -40 978 -40 964.102562865 -53.9786969048 c 0,8,9
 952 -67 952 -67 941.216238079 -73.6120199554 c 0,10,11
 907.027826945 -96.9809793224 907.027826945 -96.9809793224 864 -96.9809793224 c 2,12,-1
 676 -96.9809793224 l 2,13,14
 613 -97 613 -97 572.839213653 -56.8750720608 c 0,15,16
 543 -27 543 -27 536.550087233 15.6116632688 c 1,17,18
 536 15 536 15 522.033193354 -12.1771139555 c 0,19,20
 508 -39 508 -39 490.741857776 -56.336857775 c 0,21,22
 450.019057498 -96.9809793224 450.019057498 -96.9809793224 393 -96.9809793224 c 2,23,-1
 195 -96.9809793224 l 2,24,25
 131 -97 131 -97 92.0383428425 -57.5642806146 c 0,26,27
 59 -24 59 -24 54.3835779442 25.5674743237 c 0,28,29
 0 652 0 652 0.107417078552 653.136358131 c 0,30,31
 -0 663 -0 663 -0.209132315886 664.216627405 c 0,32,33
 0 723 0 723 37.1726921078 759.845383546 c 0,34,35
 73 797 73 797 131 796.980979322 c 2,36,-1
 1219 796.981445312 l 1,0,1
1222 662 m 2,37,38
 1226 669 1226 669 1225 671.5 c 128,-1,39
 1224 674 1224 674 1219 674 c 2,40,-1
 1041 674 l 2,41,42
 1035 674 1035 674 1031.5 671 c 128,-1,43
 1028 668 1028 668 1023 659 c 2,44,-1
 814 246 l 1,45,-1
 783 246 l 1,46,-1
 762 663 l 2,47,48
 762 669 762 669 758.5 671.5 c 128,-1,49
 755 674 755 674 746 674 c 2,50,-1
 594 674 l 2,51,52
 589 674 589 674 585 671 c 128,-1,53
 581 668 581 668 577 659 c 2,54,-1
 367 246 l 1,55,-1
 336 246 l 1,56,-1
 315 664 l 2,57,58
 315 670 315 670 312 672 c 128,-1,59
 309 674 309 674 299 674 c 2,60,-1
 131 674 l 2,61,62
 126 674 126 674 125 671.5 c 128,-1,63
 124 669 124 669 125 659 c 2,64,-1
 179 36 l 2,65,66
 180 30 180 30 183 28 c 128,-1,67
 186 26 186 26 195 26 c 2,68,-1
 393 26 l 2,69,70
 398 26 398 26 402 29 c 128,-1,71
 406 32 406 32 410 41 c 2,72,-1
 605 414 l 1,73,-1
 637 414 l 1,74,-1
 660 36 l 2,75,76
 660 31 660 31 663.5 28.5 c 128,-1,77
 667 26 667 26 676 26 c 2,78,-1
 860 26 l 2,79,80
 872 26 872 26 881 41 c 2,81,-1
 1222 662 l 2,37,38
EndSplineSet
EndChar

StartChar: X
Encoding: 88 88 76
Width: 760
GlyphClass: 1
Flags: W
LayerCount: 2
Fore
SplineSet
-25 -96.9809793224 m 2,0,1
 -84.8529086416 -96.9809793224 -84.8529086416 -96.9809793224 -122.916943982 -58.9169439819 c 128,-1,2
 -160.980979322 -20.8529086415 -160.980979322 -20.8529086415 -160.980979322 31 c 0,3,4
 -160.980979322 88.0446232113 -160.980979322 88.0446232113 -116.049051832 133.126872271 c 0,5,6
 -115.83862601 133.339446329 -115.83862601 133.339446329 126.070515198 379.392180503 c 1,7,8
 10.4765042899 598.106575697 10.4765042899 598.106575697 10.2342487193 598.591120822 c 0,9,10
 -5.98097932241 631.021576906 -5.98097932241 631.021576906 -5.98097932241 665 c 0,11,12
 -5.98097932241 722.911227022 -5.98097932241 722.911227022 34.7472833593 759.946103172 c 128,-1,13
 75.4755460411 796.980979322 75.4755460411 796.980979322 132 796.980979322 c 2,14,-1
 288 796.980979322 l 2,15,16
 356.136511738 796.980979322 356.136511738 796.980979322 398.782610587 754.334880474 c 0,17,18
 414.924350984 738.193140076 414.924350984 738.193140076 424.470133828 718.986261108 c 2,19,-1
 444.447435049 678.792180529 l 1,20,21
 509.035275821 746.213964088 509.035275821 746.213964088 509.410642224 746.589357776 c 0,22,23
 532.582950638 769.761666188 532.582950638 769.761666188 559.802263773 783.371322755 c 128,-1,24
 587.021576907 796.980979322 587.021576907 796.980979322 623 796.980979322 c 2,25,-1
 806 796.980979322 l 2,26,27
 867.464402895 796.980979322 867.464402895 796.980979322 907.327135553 757.118246664 c 0,28,29
 943.980979322 720.464402896 943.980979322 720.464402896 943.980979322 668.881161278 c 128,-1,30
 943.980979322 617.29791966 943.980979322 617.29791966 904.789877024 572.881337055 c 0,31,32
 903.897335541 571.869790042 903.897335541 571.869790042 674.626805202 339.180043651 c 1,33,34
 797.242212245 103.442035271 797.242212245 103.442035271 797.411419117 103.103812711 c 0,35,36
 813.980979322 69.9845462074 813.980979322 69.9845462074 813.980979322 36 c 0,37,38
 813.980979322 -24.2173392929 813.980979322 -24.2173392929 769.08695198 -63.2556239382 c 0,39,40
 730.302793288 -96.9809793224 730.302793288 -96.9809793224 675 -96.9809793224 c 2,41,-1
 520 -96.9809793224 l 2,42,43
 452.802263772 -96.9809793224 452.802263772 -96.9809793224 409.785642224 -53.964357775 c 0,44,45
 393.804872248 -37.9835877982 393.804872248 -37.9835877982 383.723065386 -18.372934984 c 2,46,-1
 354.813405703 37.8579415421 l 1,47,48
 274.935162785 -45.2435314337 274.935162785 -45.2435314337 274.589357776 -45.589357775 c 0,49,50
 252.076873002 -68.1018425481 252.076873002 -68.1018425481 224.510424263 -82.5414109352 c 128,-1,51
 196.943975524 -96.9809793224 196.943975524 -96.9809793224 160 -96.9809793224 c 2,52,-1
 -25 -96.9809793224 l 2,0,1
160 26 m 2,53,54
 167 26 167 26 172 29 c 128,-1,55
 177 32 177 32 186 41 c 2,56,-1
 374 236 l 1,57,-1
 393 236 l 1,58,-1
 494 38 l 2,59,60
 498 31 498 31 503.5 28.5 c 128,-1,61
 509 26 509 26 520 26 c 2,62,-1
 675 26 l 2,63,64
 690 26 690 26 690 37 c 0,65,66
 690 41 690 41 687 47 c 2,67,-1
 526 355 l 1,68,-1
 529 368 l 1,69,-1
 812 655 l 2,70,71
 819 662 819 662 819 668 c 256,72,73
 819 674 819 674 806 674 c 2,74,-1
 623 674 l 2,75,76
 616 674 616 674 611 671 c 128,-1,77
 606 668 606 668 598 660 c 2,78,-1
 425 480 l 1,79,-1
 405 480 l 1,80,-1
 314 663 l 2,81,82
 310 670 310 670 305 672 c 128,-1,83
 300 674 300 674 288 674 c 2,84,-1
 132 674 l 2,85,86
 118 674 118 674 118 664 c 0,87,88
 118 660 118 660 121 654 c 2,89,-1
 275 364 l 1,90,-1
 272 351 l 1,91,-1
 -27 47 l 2,92,93
 -34 40 -34 40 -34 34 c 0,94,95
 -34 26 -34 26 -21 26 c 2,96,-1
 160 26 l 2,53,54
EndSplineSet
EndChar

StartChar: Y
Encoding: 89 89 77
Width: 786
GlyphClass: 1
Flags: W
LayerCount: 2
Fore
SplineSet
854 796.980979322 m 6,0,1
 915.447736227 796.980979322 915.447736227 796.980979322 955.167482776 757.261232776 c 4,2,3
 991.980979322 720.447736227 991.980979322 720.447736227 991.980979322 668.372827943 c 132,-1,4
 991.980979322 616.29791966 991.980979322 616.29791966 952.789877024 571.881337055 c 4,5,6
 952.337843888 571.369032834 952.337843888 571.369032834 590.778777385 183.956939931 c 5,7,-1
 551.678349427 11.9150569128 l 6,8,9
 542.63030834 -29.6303744236 542.63030834 -29.6303744236 514.535340038 -57.7253427253 c 4,10,11
 475.279703441 -96.9809793224 475.279703441 -96.9809793224 415 -96.9809793224 c 6,12,-1
 254 -96.9809793224 l 6,13,14
 195.157102482 -96.9809793224 195.157102482 -96.9809793224 158.088061579 -59.9119384202 c 132,-1,15
 121.019020678 -22.8428975178 121.019020678 -22.8428975178 121.019020678 30 c 4,16,17
 121.019020678 48.4260636882 121.019020678 48.4260636882 124.650586735 63.5207101375 c 6,18,-1
 161.892157285 224.900849186 l 5,19,20
 -18.0817784978 604.556210193 -18.0817784978 604.556210193 -18.5241944671 605.618340404 c 4,21,22
 -30.9809793224 635.514624056 -30.9809793224 635.514624056 -30.9809793224 663 c 4,23,24
 -30.9809793224 723.036468022 -30.9809793224 723.036468022 14.1859084668 762.557494838 c 4,25,26
 53.5270335915 796.980979322 53.5270335915 796.980979322 110 796.980979322 c 6,27,-1
 261 796.980979322 l 6,28,29
 327.524659305 796.980979322 327.524659305 796.980979322 369.586029373 754.919609255 c 4,30,31
 387.896237553 736.609401074 387.896237553 736.609401074 398.693258629 712.316103653 c 6,32,-1
 442.421129799 613.507863594 l 5,33,34
 566.459040838 749.937459713 566.459040838 749.937459713 567.290642224 750.769357776 c 4,35,36
 613.502263773 796.980979322 613.502263773 796.980979322 678 796.980979322 c 6,37,-1
 854 796.980979322 l 6,0,1
860 654 m 2,38,39
 867 661 867 661 867 667 c 0,40,41
 867 674 867 674 854 674 c 2,42,-1
 678 674 l 2,43,44
 671 674 671 674 667 671.5 c 128,-1,45
 663 669 663 669 654 660 c 2,46,-1
 424 408 l 1,47,-1
 397 408 l 1,48,-1
 284 663 l 2,49,50
 281 669 281 669 276 671.5 c 128,-1,51
 271 674 271 674 261 674 c 2,52,-1
 110 674 l 2,53,54
 95 674 95 674 95 663 c 0,55,56
 95 657 95 657 97 653 c 2,57,-1
 293 239 l 1,58,-1
 246 35 l 2,59,60
 245 33 245 33 245 29 c 0,61,62
 245 27 245 27 247.5 26.5 c 128,-1,63
 250 26 250 26 254 26 c 2,64,-1
 415 26 l 2,65,66
 422 26 422 26 424.5 28.5 c 128,-1,67
 427 31 427 31 429 39 c 2,68,-1
 476 243 l 1,69,-1
 860 654 l 2,38,39
EndSplineSet
EndChar

StartChar: Z
Encoding: 90 90 78
Width: 791
GlyphClass: 1
Flags: W
LayerCount: 2
Fore
SplineSet
812 796.980979322 m 6,0,1
 870.842897517 796.980979322 870.842897517 796.980979322 907.911938421 759.911938421 c 132,-1,2
 944.98097891 722.84289793 944.98097891 722.84289793 944.98097891 669.993649839 c 4,3,4
 944.98097891 651.648994241 944.98097891 651.648994241 941.37319246 636.585771354 c 6,5,-1
 914.493530718 521.098423941 l 6,6,7
 900.514770792 459.548574856 900.514770792 459.548574856 845.079546525 418.295562465 c 4,8,9
 844.689458685 418.005272334 844.689458685 418.005272334 661.020419936 286.981287788 c 5,10,-1
 703 286.981287788 l 6,11,12
 761.842897517 286.981287788 761.842897517 286.981287788 798.911938421 249.911938421 c 132,-1,13
 835.980979322 212.842897517 835.980979322 212.842897517 835.980979322 160 c 4,14,15
 835.980979322 141.973151226 835.980979322 141.973151226 832.386487839 126.61830754 c 6,16,-1
 806.674554171 11.903526558 l 6,17,18
 797.62447589 -29.6338852318 797.62447589 -29.6338852318 769.535340038 -57.7253427253 c 4,19,20
 730.279703441 -96.9809793224 730.279703441 -96.9809793224 670 -96.9809793224 c 6,21,-1
 13 -96.9809793224 l 6,22,23
 -45.8428975181 -96.9809793224 -45.8428975181 -96.9809793224 -82.9119384202 -59.9119384202 c 132,-1,24
 -119.980978953 -22.8428978871 -119.980978953 -22.8428978871 -119.980978953 30.0060055383 c 4,25,26
 -119.980978953 48.3568983655 -119.980978953 48.3568983655 -116.371007868 63.4237410031 c 4,27,28
 -88.8540200991 181.511077343 -88.8540200991 181.511077343 -88.6760622954 182.186367282 c 4,29,30
 -73.0272907466 241.56147303 -73.0272907466 241.56147303 -19.0784315742 281.705277149 c 4,31,32
 -18.6890524454 281.995017465 -18.6890524454 281.995017465 164.979580064 413.018712212 c 5,33,-1
 146 413.018712212 l 6,34,35
 87.1571024826 413.018712212 87.1571024826 413.018712212 50.0880615798 450.088061579 c 132,-1,36
 13.0190210886 487.157102071 13.0190210886 487.157102071 13.0190210886 540.006337489 c 4,37,38
 13.0190210886 558.351149109 13.0190210886 558.351149109 16.6268575491 573.414451919 c 6,39,-1
 43.7176806158 689.804654723 l 6,40,41
 53.6207680308 730.398369105 53.6207680308 730.398369105 80.8585020355 757.630437925 c 4,42,43
 120.209043433 796.980979322 120.209043433 796.980979322 180 796.980979322 c 6,44,-1
 812 796.980979322 l 6,0,1
820 665 m 1,45,-1
 821 670 l 2,46,47
 821 674 821 674 812 674 c 2,48,-1
 180 674 l 2,49,50
 173 674 173 674 170 671.5 c 128,-1,51
 167 669 167 669 165 661 c 2,52,-1
 138 545 l 1,53,-1
 137 540 l 2,54,55
 137 536 137 536 146 536 c 2,56,-1
 515 536 l 1,57,-1
 509 507 l 1,58,-1
 55 182 l 2,59,60
 45 174 45 174 39.5 167.5 c 128,-1,61
 34 161 34 161 32 151 c 2,62,-1
 5 35 l 1,63,-1
 4 30 l 2,64,65
 4 26 4 26 13 26 c 2,66,-1
 670 26 l 2,67,68
 677 26 677 26 680.5 28.5 c 128,-1,69
 684 31 684 31 685 39 c 2,70,-1
 711 154 l 1,71,-1
 712 159 l 2,72,73
 712 164 712 164 703 164 c 2,74,-1
 307 164 l 1,75,-1
 317 194 l 1,76,-1
 770 517 l 2,77,78
 789 530 789 530 793 549 c 2,79,-1
 820 665 l 1,45,-1
EndSplineSet
EndChar

StartChar: a
Encoding: 97 97 79
Width: 753
GlyphClass: 1
Flags: W
LayerCount: 2
Fore
SplineSet
389.473544018 -86.8190251092 m 1,0,1
 350.369628962 -99.9809793224 350.369628962 -99.9809793224 305 -99.9809793224 c 2,2,-1
 144 -99.9809793224 l 2,3,4
 37.7572187272 -99.9809793224 37.7572187272 -99.9809793224 -23.2116286947 -39.0121319006 c 0,5,6
 -54.5376333493 -7.6861272459 -54.5376333493 -7.6861272459 -68.1732040455 35.0561424364 c 0,7,8
 -77.9809793224 65.7997457082 -77.9809793224 65.7997457082 -77.9809793224 96.7340599608 c 0,9,10
 -77.9809793224 132.804259578 -77.9809793224 132.804259578 -70.4330014706 165.157216189 c 2,11,-1
 -56.411161542 225.250607446 l 2,12,13
 -39.9288211288 295.575259876 -39.9288211288 295.575259876 -5.52587801137 338.606805872 c 1,14,15
 -8.9809793326 353.326392078 -8.9809793326 353.326392078 -8.98097932751 370.380105288 c 128,-1,16
 -8.98097932243 387.433818497 -8.98097932243 387.433818497 -5.40145342682 402.308200125 c 2,17,-1
 1.41161324109 432.480352512 l 2,18,19
 24.4643823326 533.462135532 24.4643823326 533.462135532 94.7788438666 583.561189375 c 0,20,21
 159.92942625 629.980979322 159.92942625 629.980979322 267 629.980979322 c 2,22,-1
 569 629.980979322 l 2,23,24
 688.743190773 629.980979322 688.743190773 629.980979322 755.771175957 562.952994139 c 0,25,26
 838.050281076 480.67388902 838.050281076 480.67388902 807.959575751 335.235479948 c 0,27,28
 807.74420304 334.194511849 807.74420304 334.194511849 733.646374416 11.76882513 c 0,29,30
 724.572890239 -29.6877925243 724.572890239 -29.6877925243 696.535340038 -57.7253427254 c 0,31,32
 657.279703441 -96.9809793224 657.279703441 -96.9809793224 597 -96.9809793224 c 2,33,-1
 444 -96.9809793224 l 2,34,35
 414.010572978 -96.9809793224 414.010572978 -96.9809793224 389.473544018 -86.8190251092 c 1,0,1
685 361 m 2,36,37
 691 387 691 387 691 408 c 0,38,39
 691 507 691 507 569 507 c 2,40,-1
 267 507 l 2,41,42
 201 507 201 507 169 485 c 128,-1,43
 137 463 137 463 124 405 c 2,44,-1
 118 377 l 2,45,46
 117 375 117 375 117 371 c 0,47,48
 117 368 117 368 119.5 367 c 128,-1,49
 122 366 122 366 126 366 c 2,50,-1
 289 366 l 2,51,52
 296 366 296 366 298 368 c 128,-1,53
 300 370 300 370 302 376 c 2,54,-1
 304 384 l 2,55,56
 309 401 309 401 319 409 c 128,-1,57
 329 417 329 417 348 417 c 2,58,-1
 463 417 l 2,59,60
 516 417 516 417 516 378 c 0,61,62
 516 369 516 369 513 357 c 2,63,-1
 497 291 l 1,64,-1
 177 291 l 2,65,66
 126 291 126 291 102.5 271.5 c 128,-1,67
 79 252 79 252 66 197 c 2,68,-1
 52 137 l 2,69,70
 47 114 47 114 47 99 c 0,71,72
 47 23 47 23 144 23 c 2,73,-1
 305 23 l 2,74,75
 346 23 346 23 372.5 40 c 128,-1,76
 399 57 399 57 418 94 c 1,77,-1
 453 94 l 1,78,-1
 439 35 l 1,79,-1
 438 30 l 2,80,81
 438 27 438 27 440.5 26.5 c 128,-1,82
 443 26 443 26 448 26 c 2,83,-1
 597 26 l 2,84,85
 604 26 604 26 606.5 28 c 128,-1,86
 609 30 609 30 611 39 c 2,87,-1
 685 361 l 2,36,37
246 194 m 2,88,89
 253 226 253 226 282 226 c 2,90,-1
 483 226 l 1,91,-1
 469 165 l 2,92,93
 463 140 463 140 450.5 129.5 c 128,-1,94
 438 119 438 119 413 119 c 2,95,-1
 275 119 l 2,96,97
 237 119 237 119 237 151 c 0,98,99
 237 154 237 154 239 166 c 2,100,-1
 246 194 l 2,88,89
EndSplineSet
EndChar

StartChar: b
Encoding: 98 98 80
Width: 778
GlyphClass: 1
Flags: W
LayerCount: 2
Fore
SplineSet
596 629.980979322 m 2,0,1
 717.342774396 629.980979322 717.342774396 629.980979322 784.945747263 562.378006455 c 0,2,3
 819.078438495 528.245315223 819.078438495 528.245315223 834.035801607 481.887077629 c 0,4,5
 854.81336032 417.489964567 854.81336032 417.489964567 836.509263506 338.172211706 c 0,6,7
 788.486414847 129.57409796 788.486414847 129.57409796 788.486414847 129.072963383 c 0,8,9
 763.280473787 19.8472187914 763.280473787 19.8472187914 694.463863939 -38.5668802655 c 128,-1,10
 625.647254091 -96.9809793224 625.647254091 -96.9809793224 516 -96.9809793224 c 2,11,-1
 49 -96.9809793224 l 2,12,13
 -9.84289751809 -96.9809793224 -9.84289751809 -96.9809793224 -47.8390976294 -58.9847792111 c 0,14,15
 -68.4904371631 -38.3334396774 -68.4904371631 -38.3334396774 -77.5833024531 -10.6959149143 c 0,16,17
 -83.9809793224 8.74965556993 -83.9809793224 8.74965556993 -83.9809793224 28.6433276686 c 128,-1,18
 -83.9809793224 48.5369997673 -83.9809793224 48.5369997673 -80.3446523033 63.5434160763 c 0,19,20
 63.62602939 689.415962882 63.62602939 689.415962882 63.760319134 689.969918486 c 0,21,22
 73.5402668259 730.312202715 73.5402668259 730.312202715 100.858502035 757.630437924 c 0,23,24
 123.943881452 780.715817342 123.943881452 780.715817342 155.528717438 790.479747904 c 0,25,26
 176.559216042 796.980979322 176.559216042 796.980979322 200 796.980979322 c 2,27,-1
 356 796.980979322 l 2,28,29
 413.269164799 796.980979322 413.269164799 796.980979322 450.260276142 759.989867979 c 0,30,31
 470.745368355 739.504775766 470.745368355 739.504775766 479.723125112 712.043402158 c 0,32,33
 488.930681103 683.879113245 488.930681103 683.879113245 484.569655631 653.897063125 c 0,34,35
 483.235307151 644.72341733 483.235307151 644.72341733 479.865607035 629.980979322 c 1,36,-1
 596 629.980979322 l 2,0,1
714 366 m 2,37,38
 720 390 720 390 720 410 c 0,39,40
 720 457 720 457 689 482 c 128,-1,41
 658 507 658 507 596 507 c 2,42,-1
 476 507 l 2,43,44
 425 507 425 507 392.5 488.5 c 128,-1,45
 360 470 360 470 331 425 c 1,46,-1
 303 425 l 1,47,-1
 359 665 l 2,48,49
 360 667 360 667 360 671 c 0,50,51
 360 673 360 673 357.5 673.5 c 128,-1,52
 355 674 355 674 351 674 c 2,53,-1
 200 674 l 2,54,55
 193 674 193 674 190 671.5 c 128,-1,56
 187 669 187 669 185 661 c 2,57,-1
 41 35 l 1,58,-1
 40 30 l 2,59,60
 40 26 40 26 49 26 c 2,61,-1
 516 26 l 2,62,63
 580 26 580 26 615 56.5 c 128,-1,64
 650 87 650 87 666 157 c 2,65,-1
 714 366 l 2,37,38
489 388 m 2,66,67
 537 388 537 388 537 348 c 0,68,69
 537 340 537 340 534 328 c 2,70,-1
 502 191 l 2,71,72
 496 165 496 165 483.5 154.5 c 128,-1,73
 471 144 471 144 447 144 c 2,74,-1
 239 144 l 1,75,-1
 284 341 l 2,76,77
 290 366 290 366 303.5 377 c 128,-1,78
 317 388 317 388 341 388 c 2,79,-1
 489 388 l 2,66,67
EndSplineSet
EndChar

StartChar: c
Encoding: 99 99 81
Width: 764
GlyphClass: 1
Flags: W
LayerCount: 2
Fore
SplineSet
-54.188414933 49.0515502473 m 4,0,1
 -75.113500176 115.495489753 -75.113500176 115.495489753 -56.5852284126 197.494334673 c 6,2,-1
 -9.63510049088 405.273624198 l 6,3,4
 14.416036083 513.939480891 14.416036083 513.939480891 82.9127539072 571.960230107 c 132,-1,5
 151.409471731 629.980979322 151.409471731 629.980979322 259 629.980979322 c 6,6,-1
 587 629.980979322 l 6,7,8
 707.333074574 629.980979322 707.333074574 629.980979322 774.840813482 562.473240414 c 4,9,10
 809.139900314 528.174153583 809.139900314 528.174153583 824.103585647 481.316715856 c 4,11,12
 834.980979322 447.255133737 834.980979322 447.255133737 834.980979322 408.619810213 c 132,-1,13
 834.980979322 369.984486689 834.980979322 369.984486689 825.087170155 331.398049844 c 6,14,-1
 818.506982517 304.137272488 l 6,15,16
 810.589414965 268.624156013 810.589414965 268.624156013 788.653560791 242.815338804 c 5,17,18
 792.980979322 226.096467374 792.980979322 226.096467374 792.980979322 207.857744883 c 132,-1,19
 792.980979322 189.619022391 792.980979322 189.619022391 789.468753825 174.968962333 c 6,20,-1
 778.745999285 126.230016708 l 6,21,22
 754.836188811 16.5261804117 754.836188811 16.5261804117 686.873678966 -41.7273994553 c 132,-1,23
 618.911169121 -99.9809793224 618.911169121 -99.9809793224 510 -99.9809793224 c 6,24,-1
 182 -99.9809793224 l 6,25,26
 62.2649503394 -99.9809793224 62.2649503394 -99.9809793224 -4.67612542936 -33.0399035537 c 4,27,28
 -39.2117244798 1.49569549679 -39.2117244798 1.49569549679 -54.188414933 49.0515502473 c 4,0,1
510 23 m 2,29,30
 572 23 572 23 606.5 53.5 c 128,-1,31
 641 84 641 84 657 153 c 2,32,-1
 668 201 l 1,33,-1
 669 206 l 2,34,35
 669 212 669 212 660 212 c 2,36,-1
 497 212 l 2,37,38
 491 212 491 212 488.5 209.5 c 128,-1,39
 486 207 486 207 484 199 c 2,40,-1
 480 183 l 2,41,42
 475 162 475 162 463.5 152.5 c 128,-1,43
 452 143 452 143 431 143 c 2,44,-1
 294 143 l 2,45,46
 241 143 241 143 241 183 c 0,47,48
 241 194 241 194 243 201 c 2,49,-1
 276 342 l 2,50,51
 281 366 281 366 294 376.5 c 128,-1,52
 307 387 307 387 332 387 c 2,53,-1
 473 387 l 2,54,55
 494 387 494 387 505.5 377.5 c 128,-1,56
 517 368 517 368 517 351 c 0,57,58
 517 346 517 346 515 336 c 2,59,-1
 513 328 l 2,60,61
 512 326 512 326 512 323 c 0,62,63
 512 319 512 319 520 319 c 2,64,-1
 683 319 l 2,65,66
 690 319 690 319 692.5 321.5 c 128,-1,67
 695 324 695 324 697 332 c 2,68,-1
 704 361 l 2,69,70
 710 387 710 387 710 408 c 0,71,72
 710 457 710 457 679 482 c 128,-1,73
 648 507 648 507 587 507 c 2,74,-1
 259 507 l 2,75,76
 197 507 197 507 162.5 477 c 128,-1,77
 128 447 128 447 112 378 c 2,78,-1
 65 170 l 2,79,80
 59 145 59 145 59 123 c 0,81,82
 59 74 59 74 90 48.5 c 128,-1,83
 121 23 121 23 182 23 c 2,84,-1
 510 23 l 2,29,30
EndSplineSet
EndChar

StartChar: d
Encoding: 100 100 82
Width: 779
GlyphClass: 1
Flags: W
LayerCount: 2
Fore
SplineSet
769 796.980979322 m 2,0,1
 827.842897518 796.980979322 827.842897518 796.980979322 865.839097629 758.984779211 c 0,2,3
 886.490437163 738.333439677 886.490437163 738.333439677 895.583302453 710.695914914 c 0,4,5
 901.980979322 691.25034443 901.980979322 691.25034443 901.980979322 671.356672331 c 128,-1,6
 901.980979322 651.463000233 901.980979322 651.463000233 898.344652303 636.456583924 c 2,7,-1
 754.643711924 11.7566625518 l 2,8,9
 745.568481216 -29.692201547 745.568481216 -29.692201547 717.535340038 -57.7253427254 c 0,10,11
 678.279703441 -96.9809793224 678.279703441 -96.9809793224 618 -96.9809793224 c 2,12,-1
 466 -96.9809793224 l 2,13,14
 434.185840866 -96.9809793224 434.185840866 -96.9809793224 406.473509186 -84.2263270112 c 1,15,16
 359.987129449 -99.9809793224 359.987129449 -99.9809793224 305 -99.9809793224 c 2,17,-1
 184 -99.9809793224 l 2,18,19
 62.6763378463 -99.9809793224 62.6763378463 -99.9809793224 -5.33048260363 -31.9741588725 c 0,20,21
 -39.9286621182 2.6240206421 -39.9286621182 2.6240206421 -55.0154603079 49.9373655977 c 0,22,23
 -65.9809793224 84.3260660515 -65.9809793224 84.3260660515 -65.9809793224 123.531272659 c 128,-1,24
 -65.9809793224 162.736479266 -65.9809793224 162.736479266 -56.2192855389 201.08459695 c 2,25,-1
 -8.52651298649 407.75327801 l 2,26,27
 15.8127629718 514.919389392 15.8127629718 514.919389392 84.0241655382 570.950184357 c 128,-1,28
 152.235568105 626.980979322 152.235568105 626.980979322 261 626.980979322 c 2,29,-1
 467.044079234 626.980979322 l 1,30,-1
 481.757004963 689.970692599 l 2,31,32
 491.536952655 730.312976828 491.536952655 730.312976828 518.858502035 757.630437924 c 0,33,34
 541.943881452 780.715817342 541.943881452 780.715817342 573.528717438 790.479747904 c 0,35,36
 594.559216042 796.980979322 594.559216042 796.980979322 618 796.980979322 c 2,37,-1
 769 796.980979322 l 2,0,1
776 665 m 2,38,39
 777 667 777 667 777 670 c 0,40,41
 777 674 777 674 769 674 c 2,42,-1
 618 674 l 2,43,44
 611 674 611 674 608.5 671.5 c 128,-1,45
 606 669 606 669 604 661 c 2,46,-1
 567 504 l 1,47,-1
 261 504 l 2,48,49
 197 504 197 504 162.5 475 c 128,-1,50
 128 446 128 446 113 380 c 2,51,-1
 65 172 l 2,52,53
 59 145 59 145 59 123 c 0,54,55
 59 23 59 23 184 23 c 2,56,-1
 305 23 l 2,57,58
 356 23 356 23 385.5 41 c 128,-1,59
 415 59 415 59 444 104 c 1,60,-1
 476 104 l 1,61,-1
 461 38 l 2,62,63
 460 36 460 36 460 32 c 0,64,65
 460 26 460 26 468 26 c 2,66,-1
 618 26 l 2,67,68
 625 26 625 26 627.5 28.5 c 128,-1,69
 630 31 630 31 632 39 c 2,70,-1
 776 665 l 2,38,39
276 340 m 2,71,72
 282 365 282 365 295 375.5 c 128,-1,73
 308 386 308 386 333 386 c 2,74,-1
 540 386 l 1,75,-1
 495 188 l 2,76,77
 489 163 489 163 476.5 152.5 c 128,-1,78
 464 142 464 142 439 142 c 2,79,-1
 296 142 l 2,80,81
 243 142 243 142 243 183 c 0,82,83
 243 195 243 195 245 202 c 2,84,-1
 276 340 l 2,71,72
EndSplineSet
EndChar

StartChar: e
Encoding: 101 101 83
Width: 776
GlyphClass: 1
Flags: W
LayerCount: 2
Fore
SplineSet
181 -99.9809793224 m 2,0,1
 61.2649503394 -99.9809793224 61.2649503394 -99.9809793224 -5.67612542936 -33.0399035537 c 0,2,3
 -65.9809793224 27.2649503394 -65.9809793224 27.2649503394 -65.9809793224 123 c 0,4,5
 -65.9809793224 161.116018325 -65.9809793224 161.116018325 -57.4864148466 197.927036617 c 2,6,-1
 -9.48641484657 405.927036617 l 2,7,8
 15.673266912 514.952324237 15.673266912 514.952324237 82.9083258703 572.46665178 c 128,-1,9
 150.143384829 629.980979322 150.143384829 629.980979322 259 629.980979322 c 2,10,-1
 595 629.980979322 l 2,11,12
 715.333074574 629.980979322 715.333074574 629.980979322 782.840813482 562.473240414 c 0,13,14
 817.139900314 528.174153583 817.139900314 528.174153583 832.103585647 481.316715856 c 0,15,16
 842.980979322 447.255133737 842.980979322 447.255133737 842.980979322 408.686606944 c 128,-1,17
 842.980979322 370.118080151 842.980979322 370.118080151 833.155582433 331.665324436 c 2,18,-1
 808.57460443 227.441977703 l 2,19,20
 802.58250101 200.316654993 802.58250101 200.316654993 788.224170422 178.568235313 c 1,21,22
 790.702340036 156.031508427 790.702340036 156.031508427 784.660868167 128.843205551 c 128,-1,23
 778.575222296 101.457799134 778.575222296 101.457799134 778.486414847 101.072963383 c 0,24,25
 755.790313376 2.72319034386 755.790313376 2.72319034386 690.126991786 -48.6288944893 c 128,-1,26
 624.463670196 -99.9809793224 624.463670196 -99.9809793224 524 -99.9809793224 c 2,27,-1
 181 -99.9809793224 l 2,0,1
524 23 m 2,28,29
 582 23 582 23 612.5 47 c 128,-1,30
 643 71 643 71 656 128 c 2,31,-1
 662 155 l 1,32,-1
 663 160 l 2,33,34
 663 165 663 165 655 165 c 2,35,-1
 490 165 l 2,36,37
 483 165 483 165 479.5 162 c 128,-1,38
 476 159 476 159 475 152 c 2,39,-1
 472 138 l 2,40,41
 469 125 469 125 458.5 119.5 c 128,-1,42
 448 114 448 114 428 114 c 2,43,-1
 281 114 l 2,44,45
 233 114 233 114 233 150 c 0,46,47
 233 162 233 162 235 168 c 2,48,-1
 252 242 l 1,49,-1
 673 242 l 2,50,51
 680 242 680 242 682 244 c 128,-1,52
 684 246 684 246 686 255 c 2,53,-1
 711 361 l 2,54,55
 717 387 717 387 717 409 c 0,56,57
 717 458 717 458 686 482.5 c 128,-1,58
 655 507 655 507 595 507 c 2,59,-1
 259 507 l 2,60,61
 197 507 197 507 163 477 c 128,-1,62
 129 447 129 447 113 378 c 2,63,-1
 65 170 l 2,64,65
 59 143 59 143 59 122 c 0,66,67
 59 23 59 23 181 23 c 2,68,-1
 524 23 l 2,28,29
282 371 m 2,69,70
 288 395 288 395 300.5 405.5 c 128,-1,71
 313 416 313 416 337 416 c 2,72,-1
 489 416 l 2,73,74
 537 416 537 416 537 379 c 0,75,76
 537 369 537 369 534 357 c 2,77,-1
 522 307 l 1,78,-1
 266 307 l 1,79,-1
 282 371 l 2,69,70
EndSplineSet
EndChar

StartChar: f
Encoding: 102 102 84
Width: 560
GlyphClass: 1
Flags: W
LayerCount: 2
Fore
SplineSet
99 -96.9809793224 m 6,0,1
 40.1571024819 -96.9809793224 40.1571024819 -96.9809793224 2.16090237059 -58.9847792111 c 4,2,3
 -18.4904371631 -38.3334396774 -18.4904371631 -38.3334396774 -27.5833024531 -10.6959149143 c 4,4,5
 -33.9809793224 8.74965556993 -33.9809793224 8.74965556993 -33.9809793224 28.659264759 c 132,-1,6
 -33.9809793224 48.5688739482 -33.9809793224 48.5688739482 -30.326988536 63.6162336866 c 6,7,-1
 5.55312226511 218.710906182 l 5,8,9
 -24.6554304226 228.226714872 -24.6554304226 228.226714872 -45.7925578382 249.363842288 c 4,10,11
 -81.9809793224 285.552263772 -81.9809793224 285.552263772 -81.9809793224 338 c 4,12,13
 -81.9809793224 354.195293129 -81.9809793224 354.195293129 -77.2438565506 372.966771268 c 6,14,-1
 -52.3918237179 479.332954049 l 6,15,16
 -41.0565775377 527.507750315 -41.0565775377 527.507750315 -5.74434781472 557.244364819 c 132,-1,17
 29.5678819083 586.980979322 29.5678819083 586.980979322 82 586.980979322 c 6,18,-1
 90.6421015815 586.980979322 l 5,19,20
 116.389599359 688.343598279 116.389599359 688.343598279 179.451191272 741.64565811 c 4,21,22
 248.467627636 799.980979322 248.467627636 799.980979322 357 799.980979322 c 6,23,-1
 620 799.980979322 l 6,24,25
 678.842897518 799.980979322 678.842897518 799.980979322 716.839097629 761.984779211 c 4,26,27
 737.490437163 741.333439677 737.490437163 741.333439677 746.583302453 713.695914914 c 4,28,29
 752.980979322 694.25034443 752.980979322 694.25034443 752.980979322 674.264885315 c 132,-1,30
 752.980979322 654.2794262 752.980979322 654.2794262 749.242160222 639.036189838 c 6,31,-1
 725.55295023 539.344097788 l 6,32,33
 718.668153493 508.269951376 718.668153493 508.269951376 700.923974648 484.437808494 c 5,34,35
 705.928171362 456.483329769 705.928171362 456.483329769 698.243868538 426.033276235 c 6,36,-1
 673.599542512 320.555560842 l 6,37,38
 664.495585845 279.234903081 664.495585845 279.234903081 636.535340038 251.274657275 c 4,39,40
 597.279703441 212.019020678 597.279703441 212.019020678 537 212.019020678 c 6,41,-1
 432.292365476 212.019020678 l 5,42,-1
 386.579318396 12.4779421542 l 6,43,44
 374.857169078 -39.7817254408 374.857169078 -39.7817254408 337.320158718 -68.3813523816 c 132,-1,45
 299.783148358 -96.9809793224 299.783148358 -96.9809793224 250 -96.9809793224 c 6,46,-1
 99 -96.9809793224 l 6,0,1
250 26 m 2,47,48
 257 26 257 26 259.5 28 c 128,-1,49
 262 30 262 30 264 39 c 2,50,-1
 332 335 l 1,51,-1
 537 335 l 2,52,53
 544 335 544 335 547 337.5 c 128,-1,54
 550 340 550 340 552 348 c 2,55,-1
 577 455 l 1,56,-1
 578 459 l 2,57,58
 578 464 578 464 569 464 c 2,59,-1
 342 464 l 1,60,-1
 352 507 l 2,61,62
 358 532 358 532 371 543 c 128,-1,63
 384 554 384 554 408 554 c 2,64,-1
 590 554 l 2,65,66
 597 554 597 554 599 556 c 128,-1,67
 601 558 601 558 603 567 c 2,68,-1
 627 668 l 2,69,70
 628 670 628 670 628 673 c 0,71,72
 628 677 628 677 620 677 c 2,73,-1
 357 677 l 2,74,75
 294 677 294 677 259.5 647 c 128,-1,76
 225 617 225 617 209 546 c 2,77,-1
 190 464 l 1,78,-1
 84 464 l 2,79,80
 77 464 77 464 74.5 462 c 128,-1,81
 72 460 72 460 70 451 c 2,82,-1
 45 344 l 1,83,-1
 44 340 l 2,84,85
 44 335 44 335 52 335 c 2,86,-1
 161 335 l 1,87,-1
 92 35 l 2,88,89
 91 33 91 33 91 30 c 0,90,91
 91 26 91 26 99 26 c 2,92,-1
 250 26 l 2,47,48
EndSplineSet
EndChar

